<svg width="244" height="57" viewBox="0 0 244 57" fill="none" xmlns="http://www.w3.org/2000/svg">
<g clip-path="url(#clip0_49_2)">
<path d="M54.0897 20.6931H62.4676V56.2842H53.1052V34.372L44.235 45.8637H40.022L31.1518 34.372V56.2842H21.8473V20.6931H30.1673L42.102 35.7928L54.0897 20.6931Z" fill="white"/>
<path d="M75.4398 46.1685C76.3181 48.9159 79.2716 50.6415 83.4316 50.6415C86.7181 50.6415 89.5076 49.6734 91.9157 48.0464L95.3663 53.232C92.1908 55.5716 87.7557 56.9431 82.7753 56.9431C73.0847 56.9431 66.8447 51.4034 66.8447 43.2149C66.8447 35.0264 72.9786 29.3881 81.9018 29.3881C91.9206 29.3881 98.1606 36.7071 96.5197 46.164H75.4446L75.4398 46.1685ZM88.581 40.8798C87.8716 37.8276 85.5165 35.7435 81.9549 35.7435C78.3933 35.7435 75.99 37.7245 75.3288 40.8798H88.5761H88.581Z" fill="white"/>
<path d="M121.369 18.6628H130.239V56.2842H122.083L121.972 52.7749C119.675 55.4192 116.277 56.8938 112.117 56.8938C104.401 56.8938 98.87 51.251 98.87 43.1656C98.87 35.0802 104.454 29.4867 112.117 29.4867C115.838 29.4867 119.072 30.8089 121.369 33.1484V18.6583V18.6628ZM121.48 43.1701C121.48 39.2035 118.632 36.5099 114.583 36.5099C110.534 36.5099 107.687 39.2035 107.687 43.1701C107.687 47.1366 110.534 49.8302 114.583 49.8302C118.632 49.8302 121.48 47.1366 121.48 43.1701Z" fill="white"/>
<path d="M134.944 22.2215C134.944 19.2724 137.077 17.3899 140.417 17.3899C143.757 17.3899 145.783 19.2724 145.783 22.2215C145.783 25.1706 143.65 27.1023 140.417 27.1023C137.184 27.1023 134.944 25.1706 134.944 22.2215ZM135.929 56.2842V30.0514H144.852V56.2842H135.929Z" fill="white"/>
<path d="M149.012 38.4909C149.012 28.1197 156.676 20.0343 168.557 20.0343C174.797 20.0343 180.275 22.3739 184.763 27.1023L179.015 32.6958C176.443 29.6974 172.992 28.0166 169.161 28.0166C162.863 28.0166 158.65 32.3372 158.65 38.4909C158.65 44.6446 162.863 48.9652 169.325 48.9652C173.649 48.9652 177.152 47.1859 179.836 44.0351L185.583 49.6286C181.312 54.7111 175.125 56.952 168.721 56.952C156.787 56.952 149.012 49.1221 149.012 38.4954V38.4909Z" fill="#40E4AD"/>
<path d="M188.59 56.2842V18.6628H197.513V56.2842H188.59Z" fill="#40E4AD"/>
<path d="M202.166 22.2215C202.166 19.2724 204.299 17.3899 207.638 17.3899C210.978 17.3899 213.005 19.2724 213.005 22.2215C213.005 25.1706 210.872 27.1023 207.638 27.1023C204.405 27.1023 202.166 25.1706 202.166 22.2215ZM203.15 56.2842V30.0514H212.073V56.2842H203.15Z" fill="#40E4AD"/>
<path d="M216.069 43.1656C216.069 35.0802 222.309 29.3881 231.179 29.3881C235.996 29.3881 240.32 31.015 243.114 33.9642L238.24 39.1005C236.488 37.4735 234.027 36.5054 231.725 36.5054C227.676 36.5054 224.881 39.2528 224.881 43.1656C224.881 47.0783 227.565 49.8258 231.778 49.8258C234.403 49.8258 237.033 48.7053 238.621 46.7242L243.765 51.6051C240.701 55.1637 236.319 56.9431 231.121 56.9431C222.309 56.9431 216.064 51.2465 216.064 43.1656H216.069Z" fill="#40E4AD"/>
<path d="M23.5798 7.6955V14.5484H15.6121V22.2439H7.91462V14.5484H0V7.6955H7.91462V0H15.6121V7.6955H23.5798Z" fill="#40E4AD"/>
</g>
<defs>
<clipPath id="clip0_49_2">
<rect width="243.77" height="56.9431" fill="white"/>
</clipPath>
</defs>
</svg>
