<svg width="48" height="45" viewBox="0 0 48 45" fill="none" xmlns="http://www.w3.org/2000/svg">
<rect width="47.633" height="45" rx="18" fill="#3D8CEF" fill-opacity="0.1"/>
<path d="M20.9024 11.1273C19.1961 11.3813 17.6321 12.3156 17.0532 13.443C16.9414 13.6461 16.7383 13.7883 16.3118 13.9406C14.4227 14.6414 13.1227 16.825 13.1227 19.3336C13.1227 20.3492 13.2141 20.8367 13.6407 21.9945L13.9453 22.8273L13.7321 23.1117C13.3258 23.6805 13.1227 24.3 13.1227 24.9805C13.1125 26.2398 13.7016 27.2859 14.8391 28.0273C15.3977 28.3828 15.4688 28.4641 15.4078 28.6875C15.3774 28.8297 15.3266 29.2969 15.2961 29.7336C15.2453 30.4445 15.2758 30.5766 15.5094 31.0742C15.6618 31.3789 15.9258 31.7445 16.1086 31.8969C16.5352 32.2625 17.3985 32.6484 17.9571 32.7297C18.3735 32.7906 18.4344 32.8516 18.7391 33.3594C19.3789 34.4055 20.3844 34.9133 21.918 34.9234C22.7914 34.9336 23.1774 34.8016 23.7258 34.2938L24 34.0297L24.2844 34.2938C24.8328 34.8117 25.1985 34.9336 26.1328 34.9234C27.6157 34.893 28.6211 34.3953 29.2305 33.3898L29.525 32.882L30.3172 32.7703C30.7539 32.7094 31.3328 32.557 31.5969 32.4453C32.9477 31.8461 33.6688 30.2719 33.1914 28.9414C33.1102 28.718 33.0391 28.5047 33.0391 28.4742C33.0391 28.4438 33.2727 28.2711 33.5571 28.0883C34.4508 27.4992 34.8672 26.6055 34.8774 25.2242C34.8875 24.3609 34.725 23.8734 34.2578 23.2844L33.9532 22.9188L34.2578 22.1773C34.7149 21.0703 34.8774 20.3289 34.8774 19.3539C34.8672 18.3383 34.6844 17.5156 34.2477 16.632C33.6688 15.4336 32.3485 14.2758 31.1399 13.8898C30.6625 13.7375 30.5711 13.6664 30.3782 13.2805C29.9313 12.3867 28.8344 11.5844 27.6258 11.2594C26.1938 10.8836 24.843 11.0156 24.2742 11.5844L24 11.8586L23.736 11.5844C23.2282 11.0867 22.2735 10.9242 20.9024 11.1273ZM23.0961 12.4273C23.4211 12.8234 23.4922 13.6055 23.4922 16.5V19.3438H22.7305H21.9688V18.0742V16.8047H20.8821L19.7852 16.7945L19.5821 16.4695C19.3078 16.0328 18.5258 15.6469 18.0789 15.7281C17.5305 15.8297 17.0938 16.1648 16.8805 16.6625C16.5961 17.2922 16.6875 17.8102 17.1852 18.3281C17.8453 19.0289 18.8102 18.9883 19.4602 18.2266C19.775 17.8508 19.8461 17.8203 20.3235 17.8203H20.8516V19.0898V20.3594H22.1719H23.4922V22.4414V24.5234H21.6641H19.836V26.1281V27.7328L19.5211 27.9664C18.6274 28.6266 18.5867 29.7336 19.4297 30.4445C19.8563 30.8102 20.3438 30.8813 20.9125 30.668C22.0703 30.2313 22.243 28.5758 21.1969 27.9563L20.8516 27.7531V26.6969V25.6406H22.1719H23.4922V29.1953C23.4922 32.9734 23.4719 33.1867 23.0047 33.6031C22.7102 33.8672 22.243 33.9383 21.4508 33.857C20.2828 33.725 19.6024 33.2172 19.318 32.2727C19.1961 31.8461 19.186 31.8359 18.7696 31.8359C17.6828 31.8359 16.6571 31.2164 16.3219 30.3633C16.1086 29.7945 16.1899 29.3477 16.6266 28.5352L16.9618 27.9258L16.2 27.6313C14.1688 26.8594 13.5289 24.9602 14.768 23.3961L15.0828 23H15.9868C16.6672 23 16.8907 23.0305 16.8907 23.132C16.8907 23.2844 17.3477 23.7313 17.6727 23.9039C18.2922 24.2188 19.2266 23.9039 19.6024 23.2438C20.2219 22.1773 19.4907 20.9688 18.2313 20.9688C17.6828 20.9688 17.6524 20.9891 17.175 21.4766L16.6774 21.9945L15.6922 21.9641L14.7071 21.9336L14.4633 21.2734C14.1383 20.3695 14.0571 18.9273 14.2907 18.0234C14.7274 16.2867 15.9258 14.9156 17.1649 14.7125C17.561 14.6516 17.6118 14.6008 17.8657 14.093C18.3633 13.0672 19.7649 12.2953 21.3899 12.143C22.3141 12.0617 22.8727 12.1531 23.0961 12.4273ZM27.8899 12.407C28.5602 12.6406 29.4641 13.5242 29.6875 14.1539C29.85 14.5805 29.8703 14.6008 30.5102 14.7633C32.45 15.2508 33.8516 17.1602 33.8516 19.3336C33.8516 20.1664 33.6282 21.0805 33.1305 22.2383L32.7344 23.1523L33.1914 23.6094C33.7297 24.1578 33.8516 24.4625 33.8516 25.2141C33.8516 26.0469 33.6891 26.5242 33.2321 27.0016L32.8461 27.418L32.836 26.2195V25.0313H30.5H28.1641V24.2289C28.1641 23.4266 28.1641 23.4266 28.4992 23.2234C29.1594 22.8375 29.3828 21.8117 28.9461 21.1617C28.6313 20.6742 27.8899 20.3289 27.3922 20.4203C26.8844 20.5117 26.2446 21.1109 26.143 21.5781C26.0008 22.2586 26.2953 22.9797 26.8539 23.2844L27.1485 23.457V24.7977V26.1484H29.4844H31.8203V27.2352C31.8203 28.1594 31.861 28.4133 32.0844 28.982C32.5008 30.018 32.318 30.7492 31.5157 31.2977C31.0586 31.6125 30.5914 31.7344 29.6164 31.8055L28.7938 31.8664L28.6617 32.3234C28.3875 33.2984 27.4328 33.857 26.0414 33.8773C25.3 33.8875 24.975 33.7148 24.6907 33.1461C24.5383 32.8617 24.5078 32.5266 24.5078 31.2977V29.8047H25.6047H26.6914L26.8946 30.1094C27.118 30.4445 27.7883 30.8203 28.1641 30.8203C28.2961 30.8203 28.5907 30.7289 28.8242 30.6172C29.5961 30.2414 29.911 29.2461 29.4946 28.4844C29.2914 28.0984 28.5907 27.6719 28.1742 27.6719C27.7375 27.682 27.0875 28.0375 26.8844 28.3727L26.7016 28.6875H25.6047H24.5078V23.2539V17.8203H26.5899H28.6719L29.1086 18.2672C29.5961 18.7852 30.0836 18.9273 30.7032 18.7445C31.1805 18.6023 31.6883 18.0438 31.7797 17.5563C31.9219 16.7742 31.2821 15.8906 30.4492 15.7281C29.9617 15.6367 29.2305 15.9922 28.9664 16.4492L28.7532 16.8047L26.6508 16.7844L24.5586 16.7539L24.5282 15.2305C24.4875 12.9352 24.6907 12.275 25.4828 12.143C26.0414 12.0516 27.2703 12.1836 27.8899 12.407ZM18.7188 17.0078C18.9625 17.4648 18.4649 17.9625 18.018 17.7289C17.7844 17.5969 17.7235 17.1297 17.9266 16.9266C18.1297 16.7234 18.5969 16.7742 18.7188 17.0078ZM30.6321 17.018C30.8149 17.2719 30.7438 17.5867 30.4797 17.7289C30.0532 17.9625 29.6063 17.5359 29.7891 17.0688C29.911 16.7336 30.4188 16.7031 30.6321 17.018ZM28.1032 21.8016C28.2758 22.3094 27.6766 22.7055 27.311 22.3297C27.118 22.1367 27.0977 21.7711 27.2703 21.5984C27.3414 21.5273 27.5344 21.4766 27.7071 21.4969C27.9305 21.5172 28.0321 21.5984 28.1032 21.8016ZM18.6578 22.1469C18.8813 22.3602 18.861 22.6242 18.6172 22.8477C18.1703 23.2539 17.5305 22.5938 17.9164 22.1266C18.0688 21.9336 18.4649 21.9438 18.6578 22.1469ZM20.6282 28.85C20.9125 29.043 20.8922 29.4695 20.5977 29.6625C20.0899 29.9977 19.5617 29.1953 20.0594 28.85C20.1813 28.7586 20.3133 28.6875 20.3438 28.6875C20.3742 28.6875 20.5063 28.7586 20.6282 28.85ZM28.4485 28.85C28.7532 29.0633 28.743 29.4492 28.418 29.6625C28.1844 29.8148 28.1438 29.8148 27.9102 29.6625C27.5852 29.4492 27.575 29.0633 27.8797 28.85C28.0016 28.7586 28.1336 28.6875 28.1641 28.6875C28.1946 28.6875 28.3266 28.7586 28.4485 28.85Z" fill="#3D8CEF"/>
</svg>

