<svg width="48" height="45" viewBox="0 0 48 45" fill="none" xmlns="http://www.w3.org/2000/svg">
<rect width="47.633" height="45" rx="18" fill="#3D8CEF" fill-opacity="0.1"/>
<path fill-rule="evenodd" clip-rule="evenodd" d="M32.7896 27.5076V15.4179C32.7896 14.7767 32.5344 14.1616 32.0801 13.7082C31.6259 13.2547 31.0098 13 30.3674 13H20.6786C20.0361 13 19.42 13.2547 18.9658 13.7082C18.5115 14.1616 18.2563 14.7767 18.2563 15.4179V27.5076C18.2563 28.1488 18.5115 28.7638 18.9658 29.2173C19.42 29.6707 20.0361 29.9255 20.6786 29.9255H30.3674C31.0098 29.9255 31.6259 29.6707 32.0801 29.2173C32.5344 28.7638 32.7896 28.1488 32.7896 27.5076Z" stroke="#3D8CEF" stroke-linecap="round" stroke-linejoin="round"/>
<path d="M18.0203 15.9443L15.5932 16.8269C14.9898 17.0463 14.4983 17.496 14.2269 18.077C13.9555 18.6581 13.9264 19.323 14.146 19.9255L18.2879 31.2861C18.3968 31.5845 18.5634 31.8586 18.7784 32.0927C18.9933 32.3268 19.2524 32.5164 19.5408 32.6505C19.8291 32.7847 20.1411 32.8608 20.459 32.8746C20.7768 32.8884 21.0943 32.8395 21.3932 32.7308L28.1366 30.0735M21.8898 19.0453H27.9453M21.8898 21.4633H29.1564M21.8898 23.8812H25.5231" stroke="#3D8CEF" stroke-linecap="round" stroke-linejoin="round"/>
</svg>