<svg width="45" height="45" viewBox="0 0 45 45" fill="none" xmlns="http://www.w3.org/2000/svg">
<rect width="45" height="45" rx="18" fill="#3D8CEF" fill-opacity="0.1"/>
<path d="M26.6516 31.5874L28.1788 30.0409L25.7012 27.5633L24.1546 29.0905C23.7987 29.4464 23.6207 29.8626 23.6207 30.339C23.6207 30.8154 23.7987 31.2315 24.1546 31.5874C24.5106 31.9441 24.9267 32.1224 25.4031 32.1224C25.8795 32.1224 26.2957 31.9441 26.6516 31.5874ZM28.8821 29.3385L30.4287 27.8104C30.7846 27.4544 30.9595 27.0383 30.9534 26.5619C30.9466 26.0855 30.7652 25.6693 30.4093 25.3134C30.0534 24.9704 29.6403 24.7958 29.17 24.7897C28.7004 24.7829 28.2877 24.9575 27.9317 25.3134L26.4046 26.861L28.8821 29.3385ZM27.3611 32.3163C26.8098 32.8676 26.1538 33.1398 25.3929 33.133C24.6327 33.1262 23.977 32.854 23.4258 32.3163C22.8881 31.7651 22.6159 31.1094 22.6091 30.3492C22.6023 29.589 22.8745 28.9333 23.4258 28.382L27.2233 24.5845C27.7609 24.0469 28.4166 23.7781 29.1904 23.7781C29.9635 23.7781 30.6192 24.0469 31.1576 24.5845C31.7088 25.1358 31.9844 25.7918 31.9844 26.5527C31.9844 27.3129 31.7088 27.9686 31.1576 28.5198L27.3611 32.3163ZM14.6486 30.3747C14.1927 30.3747 13.8037 30.2141 13.4818 29.8929C13.1606 29.5716 13 29.1827 13 28.726V15.69C13 15.234 13.1606 14.8451 13.4818 14.5232C13.8031 14.202 14.192 14.0414 14.6486 14.0414H19.4466C19.354 13.5207 19.4789 13.0501 19.8212 12.6295C20.1635 12.2096 20.612 11.9997 21.1667 11.9997C21.7349 11.9997 22.1902 12.2096 22.5325 12.6295C22.8742 13.0501 22.9923 13.5207 22.8868 14.0414H27.6847C28.1407 14.0414 28.5296 14.202 28.8515 14.5232C29.1727 14.8444 29.3333 15.2334 29.3333 15.69V20.981C29.1632 20.9612 28.9931 20.9578 28.8229 20.9708C28.6528 20.9844 28.4826 21.0034 28.3125 21.0279V15.69C28.3125 15.5069 28.2536 15.3565 28.1359 15.2388C28.0182 15.1211 27.8678 15.0622 27.6847 15.0622H14.6486C14.4656 15.0622 14.3152 15.1211 14.1974 15.2388C14.0797 15.3565 14.0208 15.5069 14.0208 15.69V28.726C14.0208 28.9091 14.0797 29.0595 14.1974 29.1773C14.3152 29.295 14.4656 29.3539 14.6486 29.3539H19.8886C19.8505 29.524 19.825 29.6941 19.812 29.8643C19.7984 30.0344 19.8018 30.2046 19.8222 30.3747H14.6486ZM21.1667 14.4926C21.3878 14.4926 21.5709 14.4204 21.7159 14.2762C21.8608 14.1319 21.933 13.9488 21.9323 13.7269C21.9323 13.5058 21.8598 13.323 21.7149 13.1788C21.5699 13.0345 21.3872 12.962 21.1667 12.9613C20.9455 12.9613 20.7628 13.0338 20.6185 13.1788C20.4742 13.3237 20.4017 13.5064 20.401 13.7269C20.401 13.9481 20.4735 14.1312 20.6185 14.2762C20.7634 14.4211 20.9462 14.4932 21.1667 14.4926ZM16.5729 18.8709V17.8501H25.7604V18.8709H16.5729ZM16.5729 22.7184V21.6976H25.7604V22.1141C25.6638 22.1856 25.5746 22.257 25.493 22.3285C25.4113 22.3999 25.3218 22.484 25.2245 22.5806L25.0867 22.7184H16.5729ZM16.5729 26.567V25.5462H22.26L21.9711 25.834C21.8486 25.9565 21.7288 26.0787 21.6117 26.2005C21.494 26.321 21.3797 26.4428 21.2687 26.566L16.5729 26.567Z" fill="#3D8CEF"/>
<path d="M14.0208 29.3539V15.0622M26.6516 31.5874L28.1788 30.0409L25.7012 27.5633L24.1546 29.0905C23.7987 29.4464 23.6207 29.8626 23.6207 30.339C23.6207 30.8154 23.7987 31.2315 24.1546 31.5874C24.5106 31.9441 24.9267 32.1224 25.4031 32.1224C25.8795 32.1224 26.2957 31.9441 26.6516 31.5874ZM28.8821 29.3385L30.4287 27.8104C30.7846 27.4544 30.9595 27.0383 30.9534 26.5619C30.9466 26.0855 30.7652 25.6693 30.4093 25.3134C30.0534 24.9704 29.6403 24.7958 29.17 24.7897C28.7004 24.7829 28.2877 24.9575 27.9317 25.3134L26.4046 26.861L28.8821 29.3385ZM27.3611 32.3163C26.8098 32.8676 26.1538 33.1398 25.3929 33.133C24.6327 33.1262 23.977 32.854 23.4258 32.3163C22.8881 31.7651 22.6159 31.1094 22.6091 30.3492C22.6023 29.589 22.8745 28.9333 23.4258 28.382L27.2233 24.5845C27.7609 24.0469 28.4166 23.7781 29.1904 23.7781C29.9635 23.7781 30.6192 24.0469 31.1576 24.5845C31.7088 25.1358 31.9844 25.7918 31.9844 26.5527C31.9844 27.3129 31.7088 27.9686 31.1576 28.5198L27.3611 32.3163ZM14.6486 30.3747C14.1927 30.3747 13.8037 30.2141 13.4818 29.8929C13.1606 29.5716 13 29.1827 13 28.726V15.69C13 15.234 13.1606 14.8451 13.4818 14.5232C13.8031 14.202 14.192 14.0414 14.6486 14.0414H19.4466C19.354 13.5207 19.4789 13.0501 19.8212 12.6295C20.1635 12.2096 20.612 11.9997 21.1667 11.9997C21.7349 11.9997 22.1902 12.2096 22.5325 12.6295C22.8742 13.0501 22.9923 13.5207 22.8868 14.0414H27.6847C28.1407 14.0414 28.5296 14.202 28.8515 14.5232C29.1727 14.8444 29.3333 15.2334 29.3333 15.69V20.981C29.1632 20.9612 28.9931 20.9578 28.8229 20.9708C28.6528 20.9844 28.4826 21.0034 28.3125 21.0279V15.69C28.3125 15.5069 28.2536 15.3565 28.1359 15.2388C28.0182 15.1211 27.8678 15.0622 27.6847 15.0622H14.6486C14.4656 15.0622 14.3152 15.1211 14.1974 15.2388C14.0797 15.3565 14.0208 15.5069 14.0208 15.69V28.726C14.0208 28.9091 14.0797 29.0595 14.1974 29.1773C14.3152 29.295 14.4656 29.3539 14.6486 29.3539H19.8886C19.8505 29.524 19.825 29.6941 19.812 29.8643C19.7984 30.0344 19.8018 30.2046 19.8222 30.3747H14.6486ZM21.1667 14.4926C21.3878 14.4926 21.5709 14.4204 21.7159 14.2762C21.8608 14.1319 21.933 13.9488 21.9323 13.7269C21.9323 13.5058 21.8598 13.323 21.7149 13.1788C21.5699 13.0345 21.3872 12.962 21.1667 12.9613C20.9455 12.9613 20.7628 13.0338 20.6185 13.1788C20.4742 13.3237 20.4017 13.5064 20.401 13.7269C20.401 13.9481 20.4735 14.1312 20.6185 14.2762C20.7634 14.4211 20.9462 14.4932 21.1667 14.4926ZM16.5729 18.8709V17.8501H25.7604V18.8709H16.5729ZM16.5729 22.7184V21.6976H25.7604V22.1141C25.6638 22.1856 25.5746 22.257 25.493 22.3285C25.4113 22.3999 25.3218 22.484 25.2245 22.5806L25.0867 22.7184H16.5729ZM16.5729 26.567V25.5462H22.26L21.9711 25.834C21.8486 25.9565 21.7288 26.0787 21.6117 26.2005C21.494 26.321 21.3797 26.4428 21.2687 26.566L16.5729 26.567Z" stroke="#3D8CEF" stroke-width="0.2"/>
</svg>
