<svg width="45" height="45" viewBox="0 0 45 45" fill="none" xmlns="http://www.w3.org/2000/svg">
<rect width="45" height="45" rx="18" fill="#3D8CEF" fill-opacity="0.1"/>
<path d="M23 12.6406C20.9511 12.6406 18.9482 13.2482 17.2446 14.3865C15.5411 15.5248 14.2133 17.1427 13.4292 19.0356C12.6451 20.9286 12.44 23.0115 12.8397 25.021C13.2394 27.0305 14.226 28.8764 15.6748 30.3252C17.1236 31.774 18.9695 32.7606 20.979 33.1603C22.9885 33.56 25.0714 33.3549 26.9644 32.5708C28.8573 31.7867 30.4752 30.459 31.6135 28.7554C32.7518 27.0518 33.3594 25.0489 33.3594 23C33.3562 20.2535 32.2637 17.6204 30.3216 15.6784C28.3796 13.7363 25.7465 12.6439 23 12.6406ZM17.2556 30.1094C17.8516 29.1184 18.6938 28.2984 19.7003 27.7292C20.7069 27.16 21.8436 26.8608 23 26.8608C24.1564 26.8608 25.2931 27.16 26.2997 27.7292C27.3062 28.2984 28.1484 29.1184 28.7444 30.1094C27.1197 31.4268 25.0917 32.1457 23 32.1457C20.9084 32.1457 18.8803 31.4268 17.2556 30.1094ZM19.5469 22.1875C19.5469 21.5045 19.7494 20.8369 20.1288 20.269C20.5083 19.7012 21.0476 19.2586 21.6786 18.9972C22.3095 18.7359 23.0038 18.6675 23.6737 18.8007C24.3435 18.934 24.9588 19.2628 25.4417 19.7458C25.9247 20.2287 26.2535 20.844 26.3868 21.5138C26.52 22.1837 26.4516 22.878 26.1903 23.509C25.9289 24.1399 25.4863 24.6792 24.9185 25.0587C24.3506 25.4381 23.683 25.6406 23 25.6406C22.0842 25.6406 21.2059 25.2768 20.5583 24.6292C19.9107 23.9816 19.5469 23.1033 19.5469 22.1875ZM29.6534 29.2603C28.6959 27.7716 27.2648 26.6488 25.5909 26.0733C26.4255 25.5173 27.0592 24.7076 27.3981 23.7637C27.737 22.8198 27.7631 21.792 27.4727 20.8321C27.1823 19.8722 26.5907 19.0312 25.7854 18.4335C24.9801 17.8358 24.0039 17.5131 23.001 17.5131C21.9982 17.5131 21.0219 17.8358 20.2166 18.4335C19.4113 19.0312 18.8197 19.8722 18.5293 20.8321C18.2389 21.792 18.2651 22.8198 18.604 23.7637C18.9429 24.7076 19.5765 25.5173 20.4112 26.0733C18.7373 26.6488 17.3061 27.7716 16.3487 29.2603C15.1247 27.9614 14.3077 26.3326 13.9986 24.5748C13.6894 22.8171 13.9016 21.0072 14.609 19.3687C15.3164 17.7301 16.488 16.3344 17.9793 15.3539C19.4706 14.3734 21.2163 13.8509 23.001 13.8509C24.7858 13.8509 26.5315 14.3734 28.0228 15.3539C29.514 16.3344 30.6856 17.7301 31.393 19.3687C32.1004 21.0072 32.3126 22.8171 32.0035 24.5748C31.6943 26.3326 30.8774 27.9614 29.6534 29.2603Z" fill="#3D8CEF"/>
</svg>
