<svg width="51" height="47" viewBox="0 0 51 47" fill="none" xmlns="http://www.w3.org/2000/svg">
<rect width="50.0156" height="47" rx="4" fill="#3D8CEF" fill-opacity="0.1"/>
<g clip-path="url(#clip0_617_147)">
<path d="M22.5059 10.0312C20.9121 10.3828 19.8926 11.3086 19.4824 12.7793C19.3066 13.4004 19.2891 14.5781 19.4473 15.1523C19.623 15.7852 19.9688 16.4355 20.3613 16.8633C20.6543 17.1797 20.7305 17.3086 20.7773 17.543C20.8418 17.9121 21.0176 18.3574 21.2168 18.7031C21.4219 19.0488 21.9961 19.6113 22.3301 19.7871L22.5938 19.9277V20.3789V20.8301L22.3535 20.8945C21.7793 21.0527 21.1523 21.1348 20.25 21.1875C18.9316 21.2578 18.498 21.4102 17.9707 21.9785C17.373 22.6289 16.9688 24.0586 16.9688 25.5469C16.9688 25.916 16.9629 25.9336 16.7813 26.0273C16.6816 26.0801 16.4121 26.3086 16.1836 26.543C15.4922 27.2344 15.0938 28.1895 15.0938 29.1562C15.0938 30.3223 15.7148 31.5352 16.6348 32.168C16.8926 32.3496 16.9629 32.4316 16.998 32.6016C17.0859 33.0586 17.2793 33.4453 17.5957 33.791C17.9063 34.125 18.0176 34.1895 19.9629 35.168L22.0078 36.1875V36.3809C22.0078 36.9668 22.4063 37.6172 22.9512 37.916C23.2324 38.0742 23.3203 38.0918 23.7656 38.0918H24.2637L26.1387 37.3418C27.7617 36.6914 28.0664 36.5449 28.4238 36.2754C29.4258 35.5078 32.1328 33 32.4727 32.5195C32.8594 31.9805 32.877 31.8398 32.8652 29.9531C32.8418 25.1309 32.4023 22.6172 31.4414 21.7559C31.1602 21.5039 30.6328 21.2461 30.3867 21.2461C30.0762 21.2461 30.0938 21.375 30.0938 18.6152C30.0938 15.9316 30.0586 15.375 29.8301 14.4785C29.2207 12.0703 27.7617 10.582 25.5176 10.084C24.8789 9.94336 23.0508 9.9082 22.5059 10.0312ZM25.5234 11.0508C27.3633 11.5078 28.4824 12.7793 28.998 15.0059C29.1211 15.5215 29.1211 15.6797 29.1387 21.9844L29.1621 28.4355L28.7461 28.3008C28.2598 28.1426 27.5684 27.9961 26.8711 27.9023L26.373 27.832L26.3438 22.3008C26.3262 19.2539 26.291 16.7285 26.2676 16.6934C26.2383 16.6523 26.0273 16.5234 25.7871 16.4062C24.75 15.9023 23.7129 14.6953 23.168 13.3711C22.9746 12.9023 22.834 12.75 22.5938 12.75C22.5059 12.75 22.377 12.7969 22.3125 12.8496C22.2363 12.9141 21.9609 13.5645 21.5918 14.5605L20.9883 16.166L20.877 16.0254C20.4844 15.5508 20.2207 14.5781 20.2734 13.8047C20.3789 12.2285 21.1582 11.3086 22.6816 10.957C23.2148 10.834 24.873 10.8867 25.5234 11.0508ZM22.7109 14.5664C22.7109 14.6426 23.3145 15.5215 23.6133 15.873C23.9355 16.2656 24.5508 16.7754 25.0195 17.0508L25.4063 17.2793V18.2637V19.2539L25.2598 19.2891C25.1777 19.3066 24.7383 19.3125 24.2754 19.3008C23.4902 19.2832 23.4199 19.2715 23.0508 19.0957C22.3418 18.7617 21.8555 18.1523 21.7031 17.4141L21.6387 17.0859L22.125 15.7969C22.3887 15.0879 22.6289 14.5078 22.6582 14.5078C22.6875 14.5078 22.7109 14.5312 22.7109 14.5664ZM25.4063 23.9824V27.75H24.6152H23.8242L24 27.4629C24.2402 27.0762 24.4043 26.5781 24.4453 26.1035C24.4805 25.7344 24.4746 25.6992 24.334 25.5586C24.0234 25.2539 23.5313 25.459 23.5313 25.8926C23.5313 26.2031 23.3203 26.8242 23.127 27.0937C22.9512 27.3281 22.5176 27.6328 22.3535 27.6328C22.3066 27.6328 22.1777 27.4629 22.0664 27.2637C21.8438 26.8652 21.1934 26.1738 20.9004 26.0273L20.7188 25.9277V25.3418C20.7188 24.7969 20.707 24.7441 20.5723 24.6152C20.3848 24.4219 20.1152 24.4219 19.9277 24.6152C19.8047 24.7383 19.7813 24.8086 19.7813 25.1367V25.5176L19.5645 25.4766C19.2773 25.4238 18.4102 25.4238 18.1172 25.4766L17.8945 25.5176L17.9355 25.0078C18.0586 23.4668 18.4043 22.6465 19.0488 22.3242C19.3418 22.1836 19.4648 22.166 20.332 22.1191C21.7207 22.0488 23.2559 21.7266 23.4434 21.4629C23.5078 21.3691 23.5313 21.1875 23.5313 20.7773V20.2207H24.4688H25.4063V23.9824ZM30.5625 22.2773C31.3945 22.6992 31.752 24.3691 31.916 28.6289C31.998 30.8437 31.9746 31.5059 31.8047 31.834C31.6172 32.1914 28.8691 34.7637 27.8379 35.543C27.4629 35.8301 24.1113 37.1836 23.7773 37.1836C23.1621 37.1836 22.7871 36.5508 23.0625 35.9883C23.1855 35.7305 23.2207 35.7012 24.2402 35.1914C24.8145 34.8984 25.3125 34.6113 25.3477 34.5527C25.377 34.4883 25.4063 34.3184 25.4063 34.1777C25.4063 34.002 25.4473 33.8672 25.5293 33.7617C25.6816 33.5684 25.875 33.5625 26.6895 33.7324C27.0234 33.7969 27.3516 33.8379 27.416 33.8203C27.4863 33.8027 28.1191 33.2109 28.8223 32.5078L30.0938 31.2305V26.6777V22.125L30.2578 22.1602C30.3457 22.1836 30.4805 22.2363 30.5625 22.2773ZM19.5176 26.4316C20.9121 26.7949 21.8203 28.1367 21.6152 29.543C21.5391 30.082 21.2344 30.7324 20.9121 31.043L20.6836 31.2656L20.2148 30.9727C19.6289 30.6152 19.0723 30.0352 18.9375 29.6484C18.8848 29.4961 18.8438 29.2324 18.8438 29.0684C18.8438 28.5762 18.7324 27.832 18.5449 27.1172C18.4102 26.584 18.3867 26.4316 18.4453 26.3906C18.5684 26.3145 19.1484 26.3379 19.5176 26.4316ZM17.6133 27.2344C17.7715 27.8203 17.9063 28.6582 17.9063 29.0977C17.9121 30.0234 18.416 30.8672 19.3535 31.541C19.7168 31.7988 19.7285 31.8164 19.5996 31.8691C19.3535 31.9629 18.6504 31.9863 18.2988 31.916C17.7715 31.8047 17.209 31.4883 16.8398 31.1016C15.7266 29.9355 15.7734 28.207 16.9512 27.1055C17.1563 26.9121 17.3613 26.7539 17.4023 26.7539C17.4551 26.7539 17.5313 26.9355 17.6133 27.2344ZM26.8066 28.834C27.5684 28.9453 28.2539 29.1035 28.7461 29.291L29.127 29.4316L29.1445 30.1289L29.1563 30.8262L28.1367 31.8457L27.1172 32.8652L26.6426 32.7656C25.7051 32.5781 25.2656 32.666 24.8379 33.1172L24.5977 33.3809L23.0449 32.6074L21.498 31.8281L21.75 31.5176C22.2598 30.8965 22.5879 29.9707 22.5938 29.1738V28.8164L23.1094 28.7754C23.3906 28.7578 23.6602 28.7285 23.707 28.7168C23.9121 28.6641 26.2441 28.7461 26.8066 28.834ZM24.0586 34.1953C24.0586 34.2129 23.7598 34.377 23.3965 34.5586C23.0391 34.7402 22.6523 34.9863 22.541 35.0977L22.3418 35.3027L20.3613 34.3066C18.791 33.5215 18.3516 33.2754 18.2285 33.1172C18.1465 33.0117 18.082 32.9062 18.082 32.8887C18.082 32.8711 18.2988 32.8711 18.5684 32.8887C19.1602 32.9297 19.7402 32.8359 20.25 32.6191L20.6309 32.4551L22.3477 33.3105C23.2852 33.7793 24.0586 34.1777 24.0586 34.1953Z" fill="#3D8CEF"/>
</g>
<defs>
<clipPath id="clip0_617_147">
<rect width="30.1625" height="32" fill="white" transform="translate(8.48315 8)"/>
</clipPath>
</defs>
</svg>
