<svg width="51" height="47" viewBox="0 0 51 47" fill="none" xmlns="http://www.w3.org/2000/svg">
<rect width="50.0156" height="47" rx="4" fill="#3D8CEF" fill-opacity="0.1"/>
<path d="M21.9095 11.0845C20.1373 11.4146 18.7611 12.7806 18.4005 14.558C18.2888 15.1217 18.3244 16.051 18.4767 16.5842C18.5935 16.9853 18.8576 17.5439 19.1064 17.9146C19.3552 18.2904 26.1447 25.0697 26.3783 25.1814C26.6423 25.3033 27.0181 25.3033 27.2568 25.1814C27.4853 25.0595 34.3459 18.1939 34.5642 17.8638C35.9353 15.8072 35.3767 13.0752 33.3099 11.7142C32.5533 11.2166 31.6443 10.9728 30.7201 11.0236C30.0751 11.0592 29.6587 11.1607 29.1103 11.4146C28.5212 11.6888 28.2876 11.8615 27.5919 12.542C27.1095 13.0092 26.947 13.1412 26.8353 13.1412C26.7287 13.1412 26.556 13.0041 26.0482 12.5166C25.6267 12.1154 25.2611 11.8107 24.9919 11.6533C24.0626 11.0947 22.9556 10.8916 21.9095 11.0845ZM23.4482 11.8006C23.8798 11.8869 24.4334 12.1256 24.8142 12.3845C24.9462 12.476 25.322 12.806 25.6419 13.1209C25.9619 13.4306 26.297 13.7252 26.3884 13.7709C26.5916 13.8724 27.008 13.8775 27.2416 13.781C27.338 13.7404 27.7189 13.4103 28.0947 13.0498C29.0646 12.1103 29.6994 11.7904 30.7201 11.7345C33.3302 11.5822 35.2548 14.1365 34.4017 16.6095C34.2138 17.1631 33.9091 17.615 33.3201 18.2244L32.7767 18.7881L32.4771 18.6052C32.3146 18.5088 32.1623 18.4224 32.1369 18.4123C32.1166 18.4021 32.1673 18.2498 32.2587 18.072C32.3959 17.7877 32.4212 17.6912 32.4212 17.3611C32.4162 15.6142 30.1209 15.0963 29.288 16.6553C29.1916 16.8381 29.1712 16.9498 29.1712 17.356C29.1712 17.8029 29.1814 17.8588 29.3337 18.1228L29.4962 18.4123L29.3033 18.4986C29.1103 18.5849 29.1052 18.5849 28.9072 18.4377C28.7955 18.3615 28.5923 18.2396 28.4501 18.1736L28.1912 18.0517L28.374 17.7166C28.5568 17.3916 28.5619 17.3611 28.5619 16.8736C28.5619 16.4115 28.5466 16.3404 28.4146 16.0865C27.9677 15.2232 26.9419 14.8576 26.0939 15.2588C25.7029 15.4416 25.383 15.7564 25.2001 16.1373C25.0834 16.3709 25.063 16.4877 25.058 16.8482C25.058 17.3154 25.1392 17.5998 25.3677 17.8994L25.4896 18.0568L25.3169 18.1177C25.2205 18.1482 25.0021 18.265 24.8345 18.3717L24.5298 18.5697L24.3267 18.4885L24.1236 18.4123L24.2455 18.2244C24.3115 18.1228 24.408 17.8943 24.4537 17.7166C24.5654 17.2799 24.4841 16.8482 24.2251 16.4623C23.89 15.9646 23.4482 15.731 22.8287 15.731C22.2142 15.731 21.681 16.0611 21.3865 16.6197C21.2646 16.8431 21.2494 16.9295 21.2494 17.356C21.2494 17.8029 21.2595 17.8588 21.4068 18.1279L21.5642 18.4174L21.3814 18.4935C21.2798 18.5342 21.1275 18.6154 21.0412 18.6763L20.8837 18.7779L20.2794 18.1584C19.7767 17.6404 19.6396 17.4627 19.4568 17.1021C18.7509 15.6853 18.9591 14.0553 19.99 12.9381C20.899 11.9529 22.1685 11.5365 23.4482 11.8006ZM27.3177 15.9342C27.9779 16.2744 28.0744 17.2189 27.4955 17.6963C26.9623 18.1381 26.1599 17.9654 25.8705 17.3408C25.708 16.9955 25.708 16.7314 25.8755 16.3963C26.1498 15.8529 26.7642 15.6549 27.3177 15.9342ZM23.306 16.5435C23.7935 16.7924 23.9357 17.4525 23.6005 17.9299C23.3873 18.2295 22.788 18.3717 22.4529 18.199C21.5845 17.747 21.874 16.442 22.8388 16.442C23.0064 16.442 23.1791 16.4775 23.306 16.5435ZM31.2279 16.5435C31.7052 16.7873 31.8677 17.4322 31.558 17.8689C31.3599 18.1482 31.1212 18.2701 30.781 18.2701C30.2478 18.2701 29.8568 17.8842 29.8568 17.356C29.8568 16.6553 30.5931 16.2185 31.2279 16.5435ZM28.2064 18.8388C28.5263 19.0064 28.8056 19.2959 28.9376 19.5904C29.0341 19.8037 29.0443 19.9205 29.0443 21.1646V22.5154L28.0134 23.5412C27.14 24.4095 26.9572 24.567 26.8353 24.567C26.7084 24.567 26.5205 24.4045 25.6318 23.5158L24.5755 22.4595V21.1849C24.5755 19.6767 24.6009 19.5599 25.0072 19.1537C25.4388 18.717 25.6166 18.6763 26.8861 18.6916C27.9322 18.7017 27.9576 18.7017 28.2064 18.8388ZM23.9103 19.0877C24.0271 19.1283 24.0677 19.1689 24.0525 19.2299C23.8849 19.7478 23.8646 19.9103 23.8646 20.8092V21.7486L22.6459 20.5299C21.9755 19.8595 21.4271 19.2959 21.4271 19.2806C21.4271 19.2603 21.5337 19.1994 21.6709 19.1435C21.8841 19.047 22.006 19.0369 22.8287 19.0318C23.3822 19.0318 23.8138 19.0521 23.9103 19.0877ZM31.8423 19.0927C31.9388 19.1232 32.0658 19.1842 32.1318 19.2248C32.2486 19.301 32.2384 19.3111 31.04 20.5146C30.3748 21.1799 29.8162 21.7232 29.7959 21.7232C29.7705 21.7232 29.7552 21.2763 29.7552 20.733C29.7552 19.8697 29.74 19.7021 29.6537 19.4533C29.5978 19.2908 29.5521 19.1588 29.5521 19.1486C29.5521 19.0369 31.5326 18.9861 31.8423 19.0927Z" fill="#3D8CEF" stroke="#3D8CEF" stroke-width="0.3"/>
<path d="M33.767 24.308C33.5284 24.3842 33.3405 24.501 30.7709 26.1768C29.3592 27.0959 28.1811 27.8627 28.1506 27.883C28.1151 27.9033 28.0186 27.8018 27.9069 27.6393C27.7088 27.3397 27.4245 27.101 27.0741 26.9436C26.9573 26.8928 25.6319 26.5272 24.1288 26.1361C21.6252 25.4811 21.3663 25.4201 20.9448 25.4201C20.5791 25.415 20.4065 25.4404 20.1018 25.5471C19.5889 25.7197 19.4061 25.8365 17.9741 26.8522C17.3038 27.3244 16.7502 27.7154 16.735 27.7154C16.7249 27.7154 16.6284 27.5783 16.5268 27.4158C16.2526 26.9588 15.892 26.7811 15.501 26.9182C15.2877 26.9893 13.5967 27.949 13.3124 28.1572C13.226 28.2232 13.1143 28.3451 13.0737 28.4264C12.9721 28.6193 12.9772 29.0002 13.0788 29.2033C13.1854 29.4065 16.8772 35.815 17.2174 36.3838C17.4256 36.7291 17.5069 36.8154 17.6999 36.9068C18.0756 37.0897 18.2229 37.044 19.3452 36.399C20.5639 35.6982 20.635 35.6475 20.7416 35.358C20.8584 35.0584 20.8229 34.8502 20.5639 34.4084C20.4522 34.2104 20.376 34.0275 20.3963 34.0072C20.4166 33.9869 20.6655 33.8447 20.9448 33.6873C21.7674 33.2303 21.7725 33.2303 23.4229 33.6365C24.6823 33.9463 24.8499 33.9768 25.312 33.9768C25.901 33.9717 26.3124 33.86 26.7643 33.5908C26.9217 33.4943 27.9018 32.7479 28.9479 31.9252C29.994 31.1025 31.7053 29.7568 32.7514 28.9342C34.8233 27.3092 35.4225 26.7658 35.5698 26.3799C35.8338 25.6893 35.4174 24.7549 34.6913 24.4147C34.4374 24.2928 33.9752 24.2369 33.767 24.308ZM34.5288 25.1408C34.7471 25.2881 34.935 25.6283 34.935 25.8822C34.935 26.1209 34.8284 26.2885 34.4678 26.6287C34.0209 27.04 26.6627 32.8342 26.3581 33.0119C26.0331 33.1998 25.4541 33.3166 25.0885 33.2709C24.9311 33.2557 24.2557 33.1033 23.5854 32.9357C21.8182 32.494 21.5694 32.5041 20.5233 33.1084C20.2338 33.276 19.9901 33.4029 19.985 33.3928C19.9749 33.3826 19.3249 32.2604 18.5327 30.8893C17.5831 29.244 17.1159 28.3807 17.1413 28.34C17.2327 28.2131 19.6346 26.5424 19.9799 26.3697C20.437 26.1412 20.8229 26.0701 21.2139 26.1412C21.6354 26.2174 26.5663 27.5022 26.7745 27.5885C27.2366 27.7815 27.5209 28.2182 27.5209 28.7412C27.5159 29.4623 27.1147 29.8482 26.3682 29.8482C26.1041 29.8482 25.6471 29.7518 24.337 29.4115C22.717 28.99 22.6459 28.9748 22.519 29.0561C22.26 29.2287 22.3159 29.5994 22.6155 29.6908C22.7018 29.7162 23.4889 29.9244 24.3573 30.1529C25.9823 30.5744 26.3936 30.6354 26.8608 30.5338C27.1096 30.483 27.4854 30.285 27.6936 30.0971C27.9424 29.8838 28.2065 29.3303 28.2522 28.9494L28.2877 28.6397L30.3799 27.2787C34.2647 24.7498 33.9194 24.9631 34.1377 24.9885C34.2444 25.0037 34.4221 25.0748 34.5288 25.1408ZM17.9741 31.3412C19.1522 33.3775 20.1018 35.0686 20.0866 35.1041C20.0663 35.1701 18.1264 36.2975 18.0401 36.2975C17.9639 36.2975 13.6983 28.8936 13.7186 28.7971C13.7389 28.6904 15.694 27.5631 15.7752 27.6088C15.8108 27.6291 16.801 29.31 17.9741 31.3412Z" fill="#3D8CEF" stroke="#3D8CEF" stroke-width="0.3"/>
<path d="M15.0593 28.9088C14.8663 29.1018 14.9374 29.4268 15.1964 29.5131C15.496 29.6198 15.7753 29.1729 15.5569 28.9291C15.4503 28.8124 15.171 28.8022 15.0593 28.9088Z" fill="#3D8CEF" stroke="#3D8CEF" stroke-width="0.3"/>
</svg>
