<svg width="51" height="47" viewBox="0 0 51 47" fill="none" xmlns="http://www.w3.org/2000/svg">
<rect width="50.0156" height="47" rx="4" fill="#3D8CEF" fill-opacity="0.1"/>
<path d="M35.9461 17.3277C35.8547 16.8657 35.6485 16.4289 35.3477 16.0618C35.2866 15.9847 35.2227 15.9161 35.1529 15.8465C34.6177 15.3086 33.8733 15 33.1105 15H16.8894C16.1181 15 15.3926 15.3008 14.8467 15.8468C14.7776 15.9158 14.7135 15.985 14.6501 16.0646C14.3506 16.4302 14.1454 16.8663 14.0561 17.329C14.0188 17.5107 14 17.699 14 17.8895V29.2821C14 29.6785 14.0805 30.0644 14.2402 30.4313C14.3783 30.7572 14.5879 31.0661 14.8465 31.3246C14.9117 31.3894 14.9764 31.4492 15.0455 31.5075C15.5626 31.9357 16.2173 32.1714 16.8894 32.1714H33.1105C33.7869 32.1714 34.4411 31.9348 34.9568 31.5028C35.0257 31.447 35.0896 31.3885 35.1535 31.3246C35.4035 31.0748 35.6022 30.7879 35.745 30.4715L35.7638 30.4263C35.9205 30.0664 36 29.6817 36 29.2822V17.8895C36 17.7015 35.9819 17.512 35.9461 17.3277ZM15.4963 16.844C15.5372 16.7842 15.5893 16.7228 15.6559 16.6558C15.9863 16.3255 16.4244 16.1438 16.8893 16.1438H33.1105C33.5795 16.1438 34.0178 16.3258 34.3445 16.6564C34.4009 16.7134 34.4548 16.7767 34.5018 16.84L34.6259 17.0067L25.9677 24.5527C25.7007 24.7867 25.3571 24.9155 24.9999 24.9155C24.6462 24.9155 24.3028 24.787 24.0327 24.553L15.3832 17.0088L15.4963 16.844ZM15.1496 29.3827C15.1449 29.3517 15.1439 29.3172 15.1439 29.2821V18.1254L21.8629 23.9868L15.2117 29.7859L15.1496 29.3827ZM33.9761 30.7975C33.7161 30.9476 33.4166 31.0272 33.1105 31.0272H16.8894C16.5832 31.0272 16.2838 30.9476 16.0239 30.7975L15.752 30.6399L22.6243 24.651L23.3774 25.3061C23.8292 25.6983 24.4053 25.9145 25 25.9145C25.5968 25.9145 26.1739 25.6983 26.6253 25.3061L27.3782 24.6507L34.2481 30.6403L33.9761 30.7975ZM34.8558 29.2821C34.8558 29.3166 34.8552 29.3507 34.8508 29.3811L34.7913 29.7881L28.1372 23.99L34.8558 18.1283V29.2821Z" fill="#3D8CEF"/>
</svg>
