<svg width="51" height="47" viewBox="0 0 51 47" fill="none" xmlns="http://www.w3.org/2000/svg">
<rect width="50.0156" height="47" rx="4" fill="#3D8CEF" fill-opacity="0.1"/>
<g clip-path="url(#clip0_617_104)">
<path d="M25.48 18.5264C25.1171 17.5163 24.3861 16.7006 23.4218 16.2294C22.4573 15.7581 21.3645 15.683 20.345 16.0178C18.8339 16.5143 17.4022 17.1675 16.7827 17.6433C13.7874 19.9432 12.7495 24.3201 13.0496 27.6376C13.2836 30.2232 14.2868 32.1523 15.8021 32.9304C16.0671 33.0665 16.3359 33.1233 16.6017 33.1233C17.3686 33.1233 18.1093 32.6499 18.6514 32.2427C19.5544 31.5643 20.54 30.5605 21.6812 29.3984C22.8722 28.1855 24.2219 26.811 25.664 25.6454C25.8301 25.5111 26.0151 25.3686 26.214 25.222C27.0046 24.6388 27.3124 23.6253 26.9799 22.7001L25.48 18.5264ZM25.4999 24.2538C25.2869 24.411 25.0875 24.5644 24.9077 24.7098C23.412 25.9189 22.0364 27.3196 20.8228 28.5555C19.0253 30.3861 17.1658 32.2789 16.3515 31.8602C15.2272 31.283 14.4408 29.6639 14.2477 27.5292C13.9859 24.6367 14.8969 20.6078 17.5152 18.5973C17.9493 18.2641 19.1896 17.6635 20.7204 17.1606C21.0248 17.0607 21.3329 17.0131 21.6353 17.0131C22.8232 17.0131 23.9221 17.7482 24.3479 18.9331L25.8479 23.1068C25.9992 23.5279 25.8594 23.9888 25.4999 24.2538Z" fill="#3D8CEF"/>
<path d="M34.8252 16.5588C34.1183 15.2038 30.3839 14.8114 27.4021 14.8853C26.8324 14.8996 26.2999 15.1889 25.9779 15.6592C25.6558 16.1296 25.5786 16.7307 25.7714 17.2669L27.3568 21.6784C27.5429 22.1964 27.9495 22.5928 28.4721 22.7661C28.6567 22.8273 28.8463 22.8575 29.0347 22.8575C29.3793 22.8575 29.7195 22.7565 30.0162 22.5598C33.9862 19.9287 35.5592 17.9657 34.8252 16.5588ZM29.3515 21.5571C29.2026 21.656 29.02 21.6805 28.8506 21.6243C28.681 21.5681 28.5491 21.4395 28.4887 21.2716L26.9034 16.8602C26.8409 16.6864 26.866 16.4915 26.9705 16.3388C27.0749 16.1864 27.2475 16.0926 27.4323 16.088C27.6873 16.0815 27.9336 16.0785 28.1718 16.0785C31.9223 16.0785 33.5993 16.8335 33.7588 17.1157C33.9624 17.5068 33.3033 18.9381 29.3515 21.5571Z" fill="#3D8CEF"/>
<path d="M17.7297 19.54C17.6437 19.6159 15.6198 21.4363 15.1909 24.4342C15.1439 24.7631 15.3724 25.0678 15.7012 25.1149C15.73 25.1189 15.7588 25.1209 15.7871 25.1209C16.0815 25.1209 16.3389 24.9046 16.3818 24.6046C16.7454 22.0623 18.5037 20.4615 18.5276 20.44C18.7755 20.2198 18.7984 19.8403 18.5786 19.5919C18.3586 19.3432 17.9784 19.3197 17.7297 19.54Z" fill="#3D8CEF"/>
<path d="M15.6259 27.1424C15.9581 27.1424 16.2274 26.8731 16.2274 26.5409C16.2274 26.2087 15.9581 25.9395 15.6259 25.9395C15.2937 25.9395 15.0244 26.2087 15.0244 26.5409C15.0244 26.8731 15.2937 27.1424 15.6259 27.1424Z" fill="#3D8CEF"/>
</g>
<defs>
<clipPath id="clip0_617_104">
<rect width="22" height="22" fill="white" transform="translate(13 13)"/>
</clipPath>
</defs>
</svg>
