<svg width="51" height="47" viewBox="0 0 51 47" fill="none" xmlns="http://www.w3.org/2000/svg">
<rect width="50.0156" height="47" rx="4" fill="#3D8CEF" fill-opacity="0.1"/>
<path fill-rule="evenodd" clip-rule="evenodd" d="M29.8482 18.6667C29.8482 22.3487 27.0349 25.3333 23.5644 25.3333C20.0938 25.3333 17.2805 22.3487 17.2805 18.6667C17.2805 14.9847 20.0938 12 23.5644 12C27.0349 12 29.8482 14.9847 29.8482 18.6667ZM28.5915 18.6667C28.5915 20.0812 28.0618 21.4377 27.1191 22.4379C26.1763 23.4381 24.8976 24 23.5644 24C22.2311 24 20.9524 23.4381 20.0097 22.4379C19.0669 21.4377 18.5373 20.0812 18.5373 18.6667C18.5373 17.2522 19.0669 15.8956 20.0097 14.8954C20.9524 13.8952 22.2311 13.3333 23.5644 13.3333C24.8976 13.3333 26.1763 13.8952 27.1191 14.8954C28.0618 15.8956 28.5915 17.2522 28.5915 18.6667ZM19.74 27.2367L19.7469 27.2513L19.7941 27.3493H27.177C27.3209 27.06 27.647 26.5987 27.9631 26.6753C28.6732 26.8467 29.3883 27.0853 30.0751 27.3793L30.0958 27.3687L30.1027 27.3833L30.1078 27.3933C32.6936 28.508 34.8753 30.3973 34.8753 32.38V36H12.2534V32.38C12.2534 29.8633 15.7699 27.4953 19.1657 26.6753C19.4428 26.6087 19.6074 26.9553 19.74 27.2367ZM29.0338 28.3887C28.7643 28.2886 28.4916 28.1981 28.2163 28.1173L27.9361 28.6827H19.0356L18.7754 28.158L18.5492 28.23C18.5448 28.274 18.5411 28.3233 18.5392 28.3793C18.531 28.6093 18.5473 28.882 18.5832 29.1593C18.6199 29.4486 18.6788 29.7342 18.7591 30.0133C19.2005 30.0688 19.6093 30.288 19.9131 30.6322C20.217 30.9764 20.3965 31.4234 20.4199 31.8943C20.4432 32.3653 20.309 32.8298 20.0408 33.2059C19.7727 33.582 19.3879 33.8455 18.9544 33.9499C18.5209 34.0542 18.0666 33.9927 17.6717 33.7762C17.2768 33.5596 16.9668 33.202 16.7963 32.7665C16.6258 32.331 16.6059 31.8456 16.74 31.3959C16.8741 30.9463 17.1537 30.5615 17.5293 30.3093L17.5243 30.2907C17.4406 29.979 17.3782 29.6612 17.3377 29.34C17.311 29.1348 17.2934 28.9283 17.2849 28.7213C16.5082 29.0733 15.7837 29.4987 15.1767 29.968C13.9689 30.904 13.5102 31.7787 13.5102 32.38V34.6667H33.6186V32.38C33.6186 31.778 33.1598 30.9033 31.9521 29.9687C31.4254 29.5669 30.8646 29.2183 30.2768 28.9273C30.2512 29.2886 30.1991 29.6473 30.121 30H30.4766C30.5933 30.0001 30.7076 30.0346 30.8069 30.0997C30.9061 30.1648 30.9862 30.2579 31.0384 30.3687L31.6668 31.702C31.7108 31.7947 31.7334 31.8967 31.7334 32V33.3333C31.7334 33.5101 31.6672 33.6797 31.5493 33.8047C31.4315 33.9298 31.2717 34 31.105 34H29.8482V32.6667H30.4766V32.1573L30.0883 31.3333H28.3514L27.9631 32.1573V32.6667H28.5915V34H27.3347C27.168 34 27.0082 33.9298 26.8904 33.8047C26.7725 33.6797 26.7063 33.5101 26.7063 33.3333V32C26.7063 31.8967 26.7289 31.7947 26.7729 31.702L27.4013 30.3687C27.4534 30.2579 27.5336 30.1648 27.6328 30.0997C27.7321 30.0346 27.8464 30.0001 27.9631 30H28.8189C28.8265 29.9733 28.8346 29.9467 28.8422 29.9173C28.9013 29.7033 28.954 29.4373 28.9899 29.16C29.025 28.8853 29.0414 28.6167 29.0338 28.3887ZM19.1657 32C19.1657 32.3827 18.8754 32.6767 18.5373 32.6767C18.1992 32.6767 17.9089 32.3833 17.9089 32C17.9089 31.6173 18.1992 31.3233 18.5373 31.3233C18.8754 31.3233 19.1657 31.6167 19.1657 32Z" fill="#3D8CEF"/>
</svg>
