<svg width="51" height="47" viewBox="0 0 51 47" fill="none" xmlns="http://www.w3.org/2000/svg">
<rect width="50.0156" height="47" rx="4" fill="#3D8CEF" fill-opacity="0.1"/>
<path d="M32.9033 11H28.2158C28.0294 11 27.8505 11.0741 27.7187 11.2059C27.5868 11.3378 27.5127 11.5166 27.5127 11.7031C27.5127 11.8896 27.5868 12.0684 27.7187 12.2003C27.8505 12.3322 28.0294 12.4062 28.2158 12.4062H31.2065L27.6908 15.9148C26.8638 15.0953 25.852 14.4866 24.7406 14.1398C23.6292 13.7931 22.4507 13.7185 21.3044 13.9223C20.1581 14.1262 19.0776 14.6026 18.1539 15.3113C17.2302 16.02 16.4903 16.9403 15.9966 17.9947C15.5029 19.0491 15.2698 20.2068 15.317 21.3701C15.3642 22.5334 15.6902 23.6683 16.2677 24.6793C16.8451 25.6903 17.6571 26.5477 18.6351 27.1793C19.6132 27.8109 20.7287 28.1982 21.8877 28.3086V30.6875H18.8408C18.6544 30.6875 18.4755 30.7616 18.3437 30.8934C18.2118 31.0253 18.1377 31.2041 18.1377 31.3906C18.1377 31.5771 18.2118 31.7559 18.3437 31.8878C18.4755 32.0197 18.6544 32.0938 18.8408 32.0938H21.8877V35.1406C21.8877 35.3271 21.9618 35.5059 22.0937 35.6378C22.2255 35.7697 22.4044 35.8438 22.5908 35.8438C22.7773 35.8438 22.9562 35.7697 23.088 35.6378C23.2199 35.5059 23.294 35.3271 23.294 35.1406V32.0938H26.3408C26.5273 32.0938 26.7062 32.0197 26.838 31.8878C26.9699 31.7559 27.044 31.5771 27.044 31.3906C27.044 31.2041 26.9699 31.0253 26.838 30.8934C26.7062 30.7616 26.5273 30.6875 26.3408 30.6875H23.294V28.3086C24.5478 28.1859 25.7482 27.7394 26.7773 27.0127C27.8065 26.2861 28.629 25.3043 29.1641 24.1638C29.6993 23.0233 29.9287 21.7632 29.8298 20.5073C29.731 19.2514 29.3072 18.0427 28.6002 17L32.2002 13.4V16.3906C32.2002 16.5771 32.2743 16.7559 32.4062 16.8878C32.538 17.0197 32.7169 17.0938 32.9033 17.0938C33.0898 17.0938 33.2687 17.0197 33.4005 16.8878C33.5324 16.7559 33.6065 16.5771 33.6065 16.3906V11.7031C33.6065 11.5166 33.5324 11.3378 33.4005 11.2059C33.2687 11.0741 33.0898 11 32.9033 11ZM22.5908 26.9375C21.432 26.9375 20.2991 26.5939 19.3355 25.95C18.372 25.3062 17.621 24.3911 17.1775 23.3204C16.734 22.2497 16.618 21.0716 16.844 19.935C17.0701 18.7984 17.6282 17.7544 18.4476 16.9349C19.2671 16.1155 20.3111 15.5574 21.4477 15.3313C22.5843 15.1053 23.7625 15.2213 24.8331 15.6648C25.9038 16.1083 26.8189 16.8593 27.4627 17.8228C28.1066 18.7864 28.4502 19.9193 28.4502 21.0781C28.4484 22.6316 27.8304 24.1208 26.732 25.2193C25.6335 26.3177 24.1443 26.9356 22.5908 26.9375Z" fill="#3D8CEF"/>
</svg>
