<svg width="51" height="47" viewBox="0 0 51 47" fill="none" xmlns="http://www.w3.org/2000/svg">
<rect width="50.0156" height="47" rx="4" fill="#3D8CEF" fill-opacity="0.1"/>
<g clip-path="url(#clip0_617_24)">
<path d="M21.5962 32.9667V28.4824C21.5962 27.9538 21.7941 27.4468 22.1464 27.0731C22.4987 26.6993 22.9766 26.4893 23.4748 26.4893V20.5102C23.4748 20.5102 22.0659 19.5137 19.7176 19.5137C17.3693 19.5137 15.9604 20.5102 15.9604 20.5102V26.4893C16.4586 26.4893 16.9365 26.6993 17.2888 27.0731C17.6411 27.4468 17.839 27.9538 17.839 28.4824V32.9667M35.1334 11.5415H12.7104M35.1343 34.4615H12.7095M30.0499 14.0328V31.9702M30.0499 14.0328C30.0499 14.3896 30.2425 14.834 30.4435 15.1997C30.7112 15.688 31.0634 16.1145 31.4654 16.4713C31.7773 16.7483 32.1492 17.0224 32.3982 17.0224M30.0499 14.0328C30.0499 14.3896 29.8564 14.834 29.6554 15.1997C29.3877 15.688 29.0364 16.1145 28.6344 16.4713C28.3216 16.7483 27.9506 17.0224 27.7017 17.0224M30.0499 31.9702C30.0499 31.6134 30.2425 31.169 30.4435 30.8033C30.7112 30.315 31.0634 29.8885 31.4654 29.5317C31.7773 29.2547 32.1492 28.9806 32.3982 28.9806M30.0499 31.9702C30.0499 31.6134 29.8564 31.169 29.6554 30.8033C29.3871 30.3198 29.0416 29.8896 28.6344 29.5317C28.3216 29.2547 27.9506 28.9806 27.7017 28.9806M19.5767 17.5206C19.5767 17.5206 18.0738 16.5241 18.0738 15.2785C18.0738 14.8166 18.2468 14.3737 18.5546 14.0471C18.8624 13.7205 19.2799 13.537 19.7152 13.537C20.1506 13.537 20.5681 13.7205 20.8759 14.0471C21.1837 14.3737 21.3567 14.8166 21.3567 15.2785C21.3567 16.5241 19.8585 17.5206 19.8585 17.5206H19.5767Z" stroke="#3D8CEF" stroke-width="1.3"/>
</g>
<defs>
<clipPath id="clip0_617_24">
<rect width="24.5071" height="26" fill="white" transform="translate(12.645 11)"/>
</clipPath>
</defs>
</svg>
