<svg width="20" height="25" viewBox="0 0 20 25" fill="none" xmlns="http://www.w3.org/2000/svg">
<path d="M16.25 3.4064H14.2188V2.45355C14.2188 2.30192 14.1694 2.1565 14.0815 2.04929C13.9935 1.94207 13.8743 1.88184 13.75 1.88184C13.6257 1.88184 13.5065 1.94207 13.4185 2.04929C13.3306 2.1565 13.2812 2.30192 13.2812 2.45355V3.4064H6.71875V2.45355C6.71875 2.30192 6.66936 2.1565 6.58146 2.04929C6.49355 1.94207 6.37432 1.88184 6.25 1.88184C6.12568 1.88184 6.00645 1.94207 5.91854 2.04929C5.83064 2.1565 5.78125 2.30192 5.78125 2.45355V3.4064H3.75C3.45992 3.4064 3.18172 3.54694 2.9766 3.79712C2.77148 4.04729 2.65625 4.38659 2.65625 4.74039V19.986C2.65625 20.3398 2.77148 20.6791 2.9766 20.9293C3.18172 21.1795 3.45992 21.32 3.75 21.32H16.25C16.5401 21.32 16.8183 21.1795 17.0234 20.9293C17.2285 20.6791 17.3438 20.3398 17.3438 19.986V4.74039C17.3438 4.38659 17.2285 4.04729 17.0234 3.79712C16.8183 3.54694 16.5401 3.4064 16.25 3.4064ZM3.75 4.54982H5.78125V5.50267C5.78125 5.6543 5.83064 5.79972 5.91854 5.90693C6.00645 6.01415 6.12568 6.07438 6.25 6.07438C6.37432 6.07438 6.49355 6.01415 6.58146 5.90693C6.66936 5.79972 6.71875 5.6543 6.71875 5.50267V4.54982H13.2812V5.50267C13.2812 5.6543 13.3306 5.79972 13.4185 5.90693C13.5065 6.01415 13.6257 6.07438 13.75 6.07438C13.8743 6.07438 13.9935 6.01415 14.0815 5.90693C14.1694 5.79972 14.2188 5.6543 14.2188 5.50267V4.54982H16.25C16.2914 4.54982 16.3312 4.5699 16.3605 4.60564C16.3898 4.64138 16.4062 4.68985 16.4062 4.74039V7.98008H3.59375V4.74039C3.59375 4.68985 3.61021 4.64138 3.63951 4.60564C3.66882 4.5699 3.70856 4.54982 3.75 4.54982ZM16.25 20.1766H3.75C3.70856 20.1766 3.66882 20.1565 3.63951 20.1208C3.61021 20.085 3.59375 20.0366 3.59375 19.986V9.12351H16.4062V19.986C16.4062 20.0366 16.3898 20.085 16.3605 20.1208C16.3312 20.1565 16.2914 20.1766 16.25 20.1766Z" fill="#6C87AE"/>
</svg>
