<svg width="20" height="25" viewBox="0 0 20 25" fill="none" xmlns="http://www.w3.org/2000/svg">
<path d="M16.8461 4.15625H3.09392C2.8038 4.15625 2.52555 4.27966 2.3204 4.49932C2.11525 4.71899 2 5.01692 2 5.32757V18.7141C1.99998 18.7997 2.02037 18.8838 2.05926 18.9585C2.09814 19.0333 2.15422 19.0961 2.22217 19.1412C2.29012 19.1862 2.36768 19.2118 2.4475 19.2157C2.52732 19.2196 2.60674 19.2016 2.67823 19.1634L4.96922 17.9368L7.2602 19.1634C7.32523 19.1982 7.39692 19.2163 7.46961 19.2163C7.54229 19.2163 7.61398 19.1982 7.67902 19.1634L9.97 17.9368L12.261 19.1634C12.326 19.1982 12.3977 19.2163 12.4704 19.2163C12.5431 19.2163 12.6148 19.1982 12.6798 19.1634L14.9708 17.9368L17.2618 19.1634C17.3268 19.1981 17.3985 19.2161 17.4712 19.2161C17.5582 19.2162 17.6435 19.1902 17.7173 19.1408C17.7853 19.0959 17.8415 19.0331 17.8804 18.9584C17.9194 18.8838 17.9399 18.7997 17.94 18.7141V5.32757C17.94 5.01692 17.8247 4.71899 17.6196 4.49932C17.4144 4.27966 17.1362 4.15625 16.8461 4.15625ZM17.0024 17.9017L15.1802 16.9262C15.1152 16.8914 15.0435 16.8733 14.9708 16.8733C14.8981 16.8733 14.8264 16.8914 14.7614 16.9262L12.4704 18.1527L10.1794 16.9262C10.1144 16.8914 10.0427 16.8733 9.97 16.8733C9.89731 16.8733 9.82562 16.8914 9.76059 16.9262L7.46961 18.1527L5.17862 16.9262C5.11359 16.8914 5.0419 16.8733 4.96922 16.8733C4.89653 16.8733 4.82484 16.8914 4.75981 16.9262L2.93765 17.9017V5.32757C2.93765 5.28319 2.95411 5.24063 2.98342 5.20925C3.01273 5.17787 3.05247 5.16024 3.09392 5.16024H16.8461C16.8875 5.16024 16.9273 5.17787 16.9566 5.20925C16.9859 5.24063 17.0024 5.28319 17.0024 5.32757V17.9017ZM15.4396 10.0129C15.4396 10.146 15.3902 10.2737 15.3023 10.3678C15.2144 10.462 15.0951 10.5149 14.9708 10.5149H11.2202C11.0959 10.5149 10.9766 10.462 10.8887 10.3678C10.8008 10.2737 10.7514 10.146 10.7514 10.0129C10.7514 9.87972 10.8008 9.75204 10.8887 9.65789C10.9766 9.56375 11.0959 9.51086 11.2202 9.51086H14.9708C15.0951 9.51086 15.2144 9.56375 15.3023 9.65789C15.3902 9.75204 15.4396 9.87972 15.4396 10.0129ZM15.4396 12.6902C15.4396 12.8233 15.3902 12.951 15.3023 13.0451C15.2144 13.1393 15.0951 13.1922 14.9708 13.1922H11.2202C11.0959 13.1922 10.9766 13.1393 10.8887 13.0451C10.8008 12.951 10.7514 12.8233 10.7514 12.6902C10.7514 12.557 10.8008 12.4293 10.8887 12.3352C10.9766 12.2411 11.0959 12.1882 11.2202 12.1882H14.9708C15.0951 12.1882 15.2144 12.2411 15.3023 12.3352C15.3902 12.4293 15.4396 12.557 15.4396 12.6902ZM8.7198 8.17221H4.96922C4.84488 8.17221 4.72563 8.2251 4.63771 8.31924C4.54979 8.41338 4.50039 8.54107 4.50039 8.6742V14.0288C4.50039 14.162 4.54979 14.2896 4.63771 14.3838C4.72563 14.4779 4.84488 14.5308 4.96922 14.5308H8.7198C8.84414 14.5308 8.96339 14.4779 9.05131 14.3838C9.13923 14.2896 9.18863 14.162 9.18863 14.0288V8.6742C9.18863 8.54107 9.13923 8.41338 9.05131 8.31924C8.96339 8.2251 8.84414 8.17221 8.7198 8.17221ZM8.25098 13.5268H5.43804V9.1762H8.25098V13.5268Z" fill="#6C87AE"/>
</svg>
