<svg width="20" height="25" viewBox="0 0 20 25" fill="none" xmlns="http://www.w3.org/2000/svg">
<path d="M3.54737 19.4218C3.10663 19.4218 2.73871 19.2742 2.44361 18.9791C2.14787 18.6834 2 18.3152 2 17.8744V5.63917C2 5.19843 2.14787 4.83051 2.44361 4.53541C2.73871 4.23967 3.10663 4.0918 3.54737 4.0918H15.7826C16.2234 4.0918 16.5913 4.23967 16.8864 4.53541C17.1821 4.83051 17.33 5.19843 17.33 5.63917V17.8744C17.33 18.3152 17.1824 18.6831 16.8873 18.9782C16.5916 19.2739 16.2234 19.4218 15.7826 19.4218H3.54737ZM3.54737 18.4637H15.7826C15.9295 18.4637 16.0646 18.4024 16.1879 18.2797C16.3106 18.1564 16.3719 18.0213 16.3719 17.8744V5.63917C16.3719 5.49226 16.3106 5.35716 16.1879 5.23388C16.0646 5.11124 15.9295 5.04992 15.7826 5.04992H3.54737C3.40046 5.04992 3.26536 5.11124 3.14208 5.23388C3.01944 5.35716 2.95812 5.49226 2.95812 5.63917V17.8744C2.95812 18.0213 3.01944 18.1564 3.14208 18.2797C3.26536 18.4024 3.40046 18.4637 3.54737 18.4637ZM5.8325 16.0684H10.6231C10.7592 16.0684 10.8732 16.0227 10.9652 15.9313C11.0565 15.8394 11.1022 15.7254 11.1022 15.5893C11.1022 15.4532 11.0565 15.3392 10.9652 15.2472C10.8732 15.1559 10.7592 15.1102 10.6231 15.1102H5.8325C5.69645 15.1102 5.58243 15.1559 5.49045 15.2472C5.39911 15.3392 5.35344 15.4532 5.35344 15.5893C5.35344 15.7254 5.39911 15.8394 5.49045 15.9313C5.58243 16.0227 5.69645 16.0684 5.8325 16.0684ZM5.8325 12.2359H13.4975C13.6336 12.2359 13.7476 12.1902 13.8396 12.0988C13.9309 12.0069 13.9766 11.8929 13.9766 11.7568C13.9766 11.6207 13.9309 11.5067 13.8396 11.4147C13.7476 11.3234 13.6336 11.2777 13.4975 11.2777H5.8325C5.69645 11.2777 5.58243 11.3234 5.49045 11.4147C5.39911 11.5067 5.35344 11.6207 5.35344 11.7568C5.35344 11.8929 5.39911 12.0069 5.49045 12.0988C5.58243 12.1902 5.69645 12.2359 5.8325 12.2359ZM5.8325 8.40336H13.4975C13.6336 8.40336 13.7476 8.35769 13.8396 8.26635C13.9309 8.17437 13.9766 8.06035 13.9766 7.9243C13.9766 7.78824 13.9309 7.67423 13.8396 7.58225C13.7476 7.49091 13.6336 7.44523 13.4975 7.44523H5.8325C5.69645 7.44523 5.58243 7.49091 5.49045 7.58225C5.39911 7.67423 5.35344 7.78824 5.35344 7.9243C5.35344 8.06035 5.39911 8.17437 5.49045 8.26635C5.58243 8.35769 5.69645 8.40336 5.8325 8.40336Z" fill="#6C87AE"/>
</svg>
