<svg width="20" height="25" viewBox="0 0 20 25" fill="none" xmlns="http://www.w3.org/2000/svg">
<path d="M4.54737 20.4308C4.10663 20.4308 3.73871 20.2928 3.44361 20.017C3.14787 19.7405 3 19.3963 3 18.9843V7.54719C3 7.13521 3.14787 6.79129 3.44361 6.51543C3.73871 6.23898 4.10663 6.10076 4.54737 6.10076H6.24325V4.10352H7.27515V6.10076H14.1286V4.10352H15.0867V6.10076H16.7826C17.2234 6.10076 17.5913 6.23898 17.8864 6.51543C18.1821 6.79129 18.33 7.13521 18.33 7.54719V18.9843C18.33 19.3963 18.1824 19.7402 17.8873 20.0161C17.5916 20.2925 17.2234 20.4308 16.7826 20.4308H4.54737ZM4.54737 19.5351H16.7826C16.9295 19.5351 17.0646 19.4778 17.1879 19.3632C17.3106 19.2479 17.3719 19.1217 17.3719 18.9843V11.1297H3.95812V18.9843C3.95812 19.1217 4.01944 19.2479 4.14208 19.3632C4.26536 19.4778 4.40046 19.5351 4.54737 19.5351ZM3.95812 10.2341H17.3719V7.54719C17.3719 7.40986 17.3106 7.28358 17.1879 7.16834C17.0646 7.0537 16.9295 6.99638 16.7826 6.99638H4.54737C4.40046 6.99638 4.26536 7.0537 4.14208 7.16834C4.01944 7.28358 3.95812 7.40986 3.95812 7.54719V10.2341ZM10.665 14.2993C10.467 14.2993 10.2945 14.2306 10.1476 14.0933C10.0007 13.956 9.92724 13.7948 9.92724 13.6097C9.92724 13.4252 10.0007 13.2643 10.1476 13.1269C10.2945 12.9896 10.467 12.9209 10.665 12.9209C10.863 12.9209 11.0355 12.9896 11.1824 13.1269C11.3293 13.2643 11.4028 13.4255 11.4028 13.6106C11.4028 13.7957 11.3293 13.9566 11.1824 14.0933C11.0355 14.2306 10.863 14.2993 10.665 14.2993ZM6.8325 14.2993C6.63449 14.2993 6.46203 14.2306 6.31511 14.0933C6.1682 13.956 6.09474 13.7948 6.09474 13.6097C6.09474 13.4252 6.1682 13.2643 6.31511 13.1269C6.46203 12.9896 6.63449 12.9209 6.8325 12.9209C7.03051 12.9209 7.20297 12.9896 7.34989 13.1269C7.4968 13.2643 7.57026 13.4255 7.57026 13.6106C7.57026 13.7957 7.4968 13.9566 7.34989 14.0933C7.20297 14.2306 7.03051 14.2993 6.8325 14.2993ZM14.4975 14.2993C14.2995 14.2993 14.127 14.2306 13.9801 14.0933C13.8332 13.956 13.7597 13.7948 13.7597 13.6097C13.7597 13.4252 13.8332 13.2643 13.9801 13.1269C14.127 12.9896 14.2995 12.9209 14.4975 12.9209C14.6955 12.9209 14.868 12.9896 15.0149 13.1269C15.1618 13.2643 15.2353 13.4255 15.2353 13.6106C15.2353 13.7957 15.1618 13.9566 15.0149 14.0933C14.868 14.2306 14.6955 14.2993 14.4975 14.2993ZM10.665 17.7439C10.467 17.7439 10.2945 17.6752 10.1476 17.5379C10.0007 17.4006 9.92724 17.2393 9.92724 17.0543C9.92724 16.8698 10.0007 16.7088 10.1476 16.5715C10.2945 16.4342 10.467 16.3655 10.665 16.3655C10.863 16.3655 11.0355 16.4342 11.1824 16.5715C11.3293 16.7088 11.4028 16.8701 11.4028 17.0551C11.4028 17.2402 11.3293 17.4015 11.1824 17.5388C11.0355 17.6755 10.863 17.7439 10.665 17.7439ZM6.8325 17.7439C6.63449 17.7439 6.46203 17.6752 6.31511 17.5379C6.1682 17.4006 6.09474 17.2393 6.09474 17.0543C6.09474 16.8698 6.1682 16.7088 6.31511 16.5715C6.46203 16.4342 6.63449 16.3655 6.8325 16.3655C7.03051 16.3655 7.20297 16.4342 7.34989 16.5715C7.4968 16.7088 7.57026 16.8701 7.57026 17.0551C7.57026 17.2402 7.4968 17.4015 7.34989 17.5388C7.20297 17.6755 7.03051 17.7439 6.8325 17.7439ZM14.4975 17.7439C14.2995 17.7439 14.127 17.6752 13.9801 17.5379C13.8332 17.4006 13.7597 17.2393 13.7597 17.0543C13.7597 16.8698 13.8332 16.7088 13.9801 16.5715C14.127 16.4342 14.2995 16.3655 14.4975 16.3655C14.6955 16.3655 14.868 16.4342 15.0149 16.5715C15.1618 16.7088 15.2353 16.8701 15.2353 17.0551C15.2353 17.2402 15.1618 17.4015 15.0149 17.5388C14.868 17.6755 14.6955 17.7439 14.4975 17.7439Z" fill="#6C87AE"/>
</svg>
