<svg width="22" height="22" viewBox="0 0 22 22" fill="none" xmlns="http://www.w3.org/2000/svg">
<path d="M21.382 6.85639L11.0695 1.06444C10.995 1.02214 10.9118 1 10.8272 1C10.7426 1 10.6593 1.02214 10.5848 1.06444L0.272316 6.85639C0.190033 6.90276 0.121245 6.97179 0.0732872 7.0561C0.0253294 7.14041 0 7.23685 0 7.33513C0 7.43341 0.0253294 7.52985 0.0732872 7.61416C0.121245 7.69847 0.190033 7.76749 0.272316 7.81387L2.74903 9.20575V13.6963C2.74896 14.0074 2.85755 14.3076 3.05411 14.5398C4.16013 15.8366 6.64114 18.014 10.8272 18.014C12.3012 18.0286 13.7628 17.7291 15.124 17.1335V20.367C15.124 20.511 15.1784 20.6491 15.2751 20.751C15.3718 20.8528 15.5029 20.91 15.6397 20.91C15.7764 20.91 15.9076 20.8528 16.0043 20.751C16.101 20.6491 16.1553 20.511 16.1553 20.367V16.5977C17.0705 16.055 17.8961 15.3597 18.6002 14.5389C18.7972 14.3073 18.9059 14.0072 18.9053 13.6963V9.20575L21.382 7.81387C21.4643 7.76749 21.5331 7.69847 21.581 7.61416C21.629 7.52985 21.6543 7.43341 21.6543 7.33513C21.6543 7.23685 21.629 7.14041 21.581 7.0561C21.5331 6.97179 21.4643 6.90276 21.382 6.85639ZM10.8272 16.928C7.04591 16.928 4.81153 14.9769 3.82153 13.814C3.79491 13.7812 3.78028 13.7395 3.78028 13.6963V9.78494L10.5848 13.6058C10.6594 13.6476 10.7426 13.6695 10.8272 13.6695C10.9117 13.6695 10.9949 13.6476 11.0695 13.6058L15.124 11.3289V15.9443C14.0068 16.5072 12.5846 16.928 10.8272 16.928ZM17.874 13.6963C17.874 13.7395 17.8594 13.7812 17.8328 13.814C17.3375 14.3917 16.7737 14.9 16.1553 15.3262V10.7497L17.874 9.78494V13.6963ZM15.9705 9.62385C15.9439 9.59953 15.9152 9.57801 15.8846 9.5596L11.0721 6.85729C10.9522 6.79665 10.8147 6.78715 10.6883 6.83076C10.5619 6.87437 10.4564 6.96773 10.3938 7.09133C10.3313 7.21493 10.3165 7.3592 10.3525 7.49402C10.3886 7.62883 10.4728 7.74375 10.5874 7.81477L14.8877 10.2311L10.8272 12.5117L1.61036 7.33513L10.8272 2.15858L20.044 7.33513L15.9705 9.62385Z" fill="#6C87AE"/>
</svg>
