<svg width="20" height="25" viewBox="0 0 20 25" fill="none" xmlns="http://www.w3.org/2000/svg">
<path d="M17.9813 11.0096C17.8799 10.869 17.7465 10.7545 17.5922 10.6756C17.4379 10.5967 17.2671 10.5556 17.0938 10.5557H15.6875V9.14941C15.6875 8.85933 15.5723 8.58113 15.3671 8.37602C15.162 8.1709 14.8838 8.05566 14.5938 8.05566H9.17734C9.14354 8.05566 9.11064 8.0447 9.08359 8.02441L6.91719 6.39941C6.72771 6.25772 6.49754 6.181 6.26094 6.18066H2.09375C1.80367 6.18066 1.52547 6.2959 1.32035 6.50102C1.11523 6.70613 1 6.98433 1 7.27441V18.5244C1 18.6487 1.04939 18.768 1.13729 18.8559C1.2252 18.9438 1.34443 18.9932 1.46875 18.9932H15.4609C15.5593 18.9931 15.6551 18.9622 15.7349 18.9047C15.8147 18.8472 15.8743 18.7661 15.9055 18.6729L18.1313 11.9955C18.1862 11.831 18.2012 11.6559 18.1752 11.4844C18.1491 11.313 18.0826 11.1503 17.9813 11.0096ZM2.09375 7.11816H6.26094C6.29474 7.11816 6.32764 7.12913 6.35469 7.14941L8.52109 8.77441C8.71058 8.9161 8.94074 8.99283 9.17734 8.99316H14.5938C14.6352 8.99316 14.6749 9.00963 14.7042 9.03893C14.7335 9.06823 14.75 9.10797 14.75 9.14941V10.5557H10.4086C10.1925 10.5553 9.98121 10.6192 9.80156 10.7393L8.23906 11.7791C8.21342 11.7963 8.18324 11.8056 8.15234 11.8057H4.39219C4.17341 11.8049 3.95948 11.8701 3.77831 11.9927C3.59713 12.1154 3.45713 12.2898 3.37656 12.4932L1.9375 16.09V7.27441C1.9375 7.23297 1.95396 7.19323 1.98326 7.16393C2.01257 7.13463 2.05231 7.11816 2.09375 7.11816ZM17.2422 11.6986L15.1234 18.0557H2.16094L4.24687 12.8416C4.25845 12.8125 4.27849 12.7876 4.3044 12.7701C4.33031 12.7525 4.36089 12.7431 4.39219 12.7432H8.15469C8.37076 12.7435 8.58207 12.6796 8.76172 12.5596L10.3242 11.5197C10.3499 11.5025 10.38 11.4932 10.4109 11.4932H17.0938C17.1185 11.4931 17.1429 11.499 17.165 11.5103C17.187 11.5215 17.2061 11.5378 17.2205 11.5579C17.235 11.578 17.2446 11.6012 17.2483 11.6257C17.2521 11.6501 17.25 11.6751 17.2422 11.6986Z" fill="#6C87AE"/>
</svg>
