<svg width="20" height="25" viewBox="0 0 20 25" fill="none" xmlns="http://www.w3.org/2000/svg">
<path d="M18.4907 19.2126L17.3574 9.22691C17.3243 8.94259 17.1927 8.68085 16.9874 8.49128C16.7822 8.30172 16.5177 8.1975 16.2439 8.19838H13.4085V8.03195C13.4085 7.01674 13.0231 6.04311 12.337 5.32525C11.6509 4.60739 10.7203 4.2041 9.75 4.2041C8.77969 4.2041 7.84913 4.60739 7.16302 5.32525C6.47691 6.04311 6.09146 7.01674 6.09146 8.03195V8.19838H3.25449C2.98074 8.1975 2.71619 8.30172 2.51097 8.49128C2.30575 8.68085 2.17412 8.94259 2.14102 9.22691L1.00767 19.2126C0.989171 19.3767 1.00423 19.5429 1.05184 19.7004C1.09945 19.8579 1.17853 20.003 1.28383 20.1261C1.38913 20.2492 1.51824 20.3474 1.6626 20.4143C1.80696 20.4812 1.96326 20.5152 2.12114 20.5141H17.3789C17.5367 20.5152 17.693 20.4812 17.8374 20.4143C17.9818 20.3474 18.1109 20.2492 18.2162 20.1261C18.3215 20.003 18.4005 19.8579 18.4482 19.7004C18.4958 19.5429 18.5108 19.3767 18.4923 19.2126H18.4907ZM7.04586 8.03195C7.04586 7.28158 7.33076 6.56194 7.83788 6.03135C8.34501 5.50076 9.03282 5.20267 9.75 5.20267C10.4672 5.20267 11.155 5.50076 11.6621 6.03135C12.1692 6.56194 12.4541 7.28158 12.4541 8.03195V8.19838H7.04586V8.03195ZM17.5045 19.4573C17.4888 19.4759 17.4695 19.4907 17.4478 19.5008C17.4261 19.5108 17.4026 19.5158 17.3789 19.5155H2.12114C2.09742 19.5158 2.07391 19.5108 2.05222 19.5008C2.03053 19.4907 2.01117 19.4759 1.99548 19.4573C1.98058 19.4402 1.96938 19.42 1.96265 19.3981C1.95592 19.3761 1.95383 19.3528 1.95651 19.3299L3.09065 9.34424C3.09523 9.30262 3.11464 9.26434 3.14501 9.23704C3.17538 9.20973 3.21448 9.19542 3.25449 9.19695H6.09146V11.3605C6.09146 11.4929 6.14173 11.6199 6.23122 11.7136C6.32072 11.8072 6.4421 11.8598 6.56866 11.8598C6.69522 11.8598 6.8166 11.8072 6.90609 11.7136C6.99558 11.6199 7.04586 11.4929 7.04586 11.3605V9.19695H12.4541V11.3605C12.4541 11.4929 12.5044 11.6199 12.5939 11.7136C12.6834 11.8072 12.8048 11.8598 12.9313 11.8598C13.0579 11.8598 13.1793 11.8072 13.2688 11.7136C13.3583 11.6199 13.4085 11.4929 13.4085 11.3605V9.19695H16.2455C16.2855 9.19542 16.3246 9.20973 16.355 9.23704C16.3854 9.26434 16.4048 9.30262 16.4093 9.34424L17.5435 19.3299C17.5462 19.3528 17.5441 19.3761 17.5373 19.3981C17.5306 19.42 17.5194 19.4402 17.5045 19.4573Z" fill="#6C87AE"/>
</svg>
