<svg width="20" height="20" viewBox="0 0 20 20" fill="none" xmlns="http://www.w3.org/2000/svg">
<path d="M16.25 3.90625H3.75C3.29416 3.90625 2.85699 4.08733 2.53466 4.40966C2.21233 4.73199 2.03125 5.16916 2.03125 5.625V14.375C2.03125 14.8308 2.21233 15.268 2.53466 15.5903C2.85699 15.9127 3.29416 16.0938 3.75 16.0938H16.25C16.7058 16.0938 17.143 15.9127 17.4653 15.5903C17.7877 15.268 17.9688 14.8308 17.9688 14.375V5.625C17.9688 5.16916 17.7877 4.73199 17.4653 4.40966C17.143 4.08733 16.7058 3.90625 16.25 3.90625ZM2.96875 7.34375H17.0312V8.90625H13.0617C12.8096 8.90642 12.5653 8.99368 12.3701 9.15326C12.1749 9.31285 12.0409 9.53497 11.9906 9.78203C11.8989 10.2429 11.6502 10.6577 11.287 10.9558C10.9237 11.2539 10.4683 11.4168 9.99844 11.4168C9.52853 11.4168 9.07315 11.2539 8.70989 10.9558C8.34663 10.6577 8.09796 10.2429 8.00625 9.78203C7.95611 9.53549 7.82252 9.31378 7.62798 9.15425C7.43345 8.99472 7.18986 8.90713 6.93828 8.90625H2.96875V7.34375ZM3.75 4.84375H16.25C16.4572 4.84375 16.6559 4.92606 16.8024 5.07257C16.9489 5.21909 17.0312 5.4178 17.0312 5.625V6.40625H2.96875V5.625C2.96875 5.4178 3.05106 5.21909 3.19757 5.07257C3.34409 4.92606 3.5428 4.84375 3.75 4.84375ZM16.25 15.1562H3.75C3.5428 15.1562 3.34409 15.0739 3.19757 14.9274C3.05106 14.7809 2.96875 14.5822 2.96875 14.375V9.84375H6.93828C6.97473 9.84298 7.01029 9.85497 7.03883 9.87766C7.06736 9.90034 7.08707 9.93229 7.09453 9.96797C7.23081 10.6391 7.5949 11.2424 8.12513 11.6758C8.65535 12.1092 9.3191 12.3459 10.0039 12.3459C10.6887 12.3459 11.3525 12.1092 11.8827 11.6758C12.4129 11.2424 12.777 10.6391 12.9133 9.96797C12.9206 9.93295 12.9397 9.90151 12.9675 9.8789C12.9952 9.85629 13.0298 9.84388 13.0656 9.84375H17.0312V14.375C17.0312 14.5822 16.9489 14.7809 16.8024 14.9274C16.6559 15.0739 16.4572 15.1562 16.25 15.1562Z" fill="#6C87AE"/>
</svg>
