<svg width="23" height="23" viewBox="0 0 23 23" fill="none" xmlns="http://www.w3.org/2000/svg">
<path d="M14.8158 21.3885L16.2495 19.9366L13.9236 17.6107L12.4717 19.0444C12.1376 19.3786 11.9705 19.7692 11.9705 20.2165C11.9705 20.6637 12.1376 21.0544 12.4717 21.3885C12.8058 21.7233 13.1965 21.8907 13.6437 21.8907C14.091 21.8907 14.4816 21.7233 14.8158 21.3885ZM16.9097 19.2773L18.3616 17.8427C18.6958 17.5085 18.86 17.1178 18.8542 16.6706C18.8478 16.2234 18.6776 15.8327 18.3434 15.4986C18.0093 15.1766 17.6215 15.0127 17.18 15.007C16.7392 15.0006 16.3517 15.1644 16.0175 15.4986L14.5839 16.9514L16.9097 19.2773ZM15.4818 22.0727C14.9643 22.5902 14.3484 22.8458 13.6342 22.8394C12.9205 22.833 12.305 22.5775 11.7875 22.0727C11.2827 21.5552 11.0272 20.9397 11.0208 20.226C11.0144 19.5124 11.27 18.8968 11.7875 18.3793L15.3525 14.8143C15.8572 14.3096 16.4727 14.0572 17.1992 14.0572C17.9249 14.0572 18.5405 14.3096 19.0459 14.8143C19.5634 15.3318 19.8221 15.9477 19.8221 16.662C19.8221 17.3756 19.5634 17.9912 19.0459 18.5087L15.4818 22.0727ZM3.54771 20.25C3.11965 20.25 2.75453 20.0992 2.45233 19.7977C2.15078 19.4961 2 19.131 2 18.7023V6.46437C2 6.03632 2.15078 5.67119 2.45233 5.369C2.75389 5.06744 3.11901 4.91667 3.54771 4.91667H8.05187C7.96498 4.42792 8.08222 3.98612 8.40358 3.59129C8.72494 3.1971 9.14597 3 9.66666 3C10.2001 3 10.6276 3.1971 10.9489 3.59129C11.2696 3.98612 11.3805 4.42792 11.2815 4.91667H15.7856C16.2137 4.91667 16.5788 5.06744 16.881 5.369C17.1826 5.67056 17.3333 6.03568 17.3333 6.46437V11.4314C17.1736 11.4129 17.0139 11.4097 16.8542 11.4218C16.6944 11.4346 16.5347 11.4525 16.375 11.4755V6.46437C16.375 6.29251 16.3197 6.15132 16.2092 6.04079C16.0987 5.93026 15.9575 5.875 15.7856 5.875H3.54771C3.37585 5.875 3.23465 5.93026 3.12412 6.04079C3.0136 6.15132 2.95833 6.29251 2.95833 6.46437V18.7023C2.95833 18.8741 3.0136 19.0153 3.12412 19.1259C3.23465 19.2364 3.37585 19.2917 3.54771 19.2917H8.46683C8.43105 19.4514 8.4071 19.6111 8.39496 19.7708C8.38218 19.9306 8.38537 20.0903 8.40454 20.25H3.54771ZM9.66666 5.34025C9.8743 5.34025 10.0462 5.27253 10.1822 5.13708C10.3183 5.00164 10.3861 4.82978 10.3854 4.6215C10.3854 4.41386 10.3174 4.24232 10.1813 4.10687C10.0452 3.97143 9.87366 3.90339 9.66666 3.90275C9.45903 3.90275 9.28748 3.97079 9.15204 4.10687C9.0166 4.24296 8.94855 4.4145 8.94791 4.6215C8.94791 4.82914 9.01596 5.001 9.15204 5.13708C9.28812 5.27317 9.45966 5.34089 9.66666 5.34025ZM5.35417 9.45054V8.49221H13.9792V9.45054H5.35417ZM5.35417 13.0625V12.1042H13.9792V12.4952C13.8884 12.5622 13.8047 12.6293 13.7281 12.6964C13.6514 12.7635 13.5674 12.8424 13.476 12.9331L13.3467 13.0625H5.35417ZM5.35417 16.6754V15.7171H10.693L10.4218 15.9873C10.3068 16.1023 10.1944 16.217 10.0845 16.3314C9.97397 16.4445 9.86664 16.5588 9.7625 16.6745L5.35417 16.6754Z" fill="#6C87AE"/>
</svg>
