<svg width="20" height="26" viewBox="0 0 20 26" fill="none" xmlns="http://www.w3.org/2000/svg">
<path d="M13.5458 15.3833C12.9762 15.3833 12.4921 15.1964 12.0937 14.8225C11.6952 14.4481 11.496 13.9939 11.496 13.46C11.496 12.9256 11.6952 12.4714 12.0937 12.0975C12.4921 11.7236 12.9762 11.5369 13.5458 11.5375C14.1154 11.5381 14.5994 11.725 14.9979 12.0983C15.3964 12.4722 15.5956 12.9264 15.5956 13.4608C15.5956 13.9947 15.3964 14.4489 14.9979 14.8233C14.5994 15.1972 14.1154 15.3833 13.5458 15.3833ZM13.5458 14.5508C13.8655 14.5508 14.139 14.4442 14.3664 14.2308C14.5938 14.0175 14.7075 13.7608 14.7075 13.4608C14.7075 13.1608 14.5938 12.9042 14.3664 12.6908C14.139 12.4775 13.8655 12.3706 13.5458 12.37C13.226 12.3694 12.9525 12.4761 12.7251 12.69C12.4978 12.9033 12.3841 13.16 12.3841 13.46C12.3841 13.76 12.4978 14.0167 12.7251 14.23C12.9525 14.4433 13.226 14.5508 13.5458 14.5508ZM9.54916 20.3025C9.34607 20.3025 9.17585 20.2381 9.03848 20.1092C8.90052 19.9803 8.83154 19.8206 8.83154 19.63V18.4633C8.83154 18.2722 8.8801 18.0928 8.9772 17.925C9.0743 17.7567 9.21048 17.6225 9.38574 17.5225C9.79073 17.2908 10.1418 17.1281 10.4391 17.0342C10.7363 16.9408 11.12 16.8567 11.5901 16.7817C11.7429 16.7561 11.8909 16.7589 12.0342 16.79C12.1775 16.8211 12.2971 16.8922 12.393 17.0033L13.5458 18.3958L14.6764 17.0033C14.7723 16.8856 14.8919 16.8128 15.0352 16.785C15.1785 16.7572 15.328 16.7558 15.4837 16.7808C15.9621 16.8564 16.3461 16.9403 16.6356 17.0325C16.9251 17.1253 17.2804 17.2886 17.7014 17.5225C17.8766 17.6219 18.0107 17.7547 18.1037 17.9208C18.1961 18.0869 18.2482 18.2625 18.26 18.4475V19.63C18.26 19.8206 18.191 19.9803 18.0531 20.1092C17.9157 20.2381 17.7455 20.3025 17.5424 20.3025H9.54916ZM9.69748 19.4692H13.2998L11.742 17.55C11.3808 17.6294 11.03 17.7328 10.6895 17.86C10.3485 17.9878 10.0178 18.1353 9.69748 18.3025V19.4692ZM13.7918 19.4692H17.371V18.3025C17.0548 18.1319 16.7262 17.9864 16.3851 17.8658C16.0441 17.7458 15.6933 17.6458 15.3327 17.5658L13.7918 19.4692ZM2.88814 18.1875V6.52083V9.5675V9.22917V18.1875ZM3.44322 19.0208C3.0406 19.0208 2.69926 18.8889 2.4192 18.625C2.13973 18.3617 2 18.045 2 17.675V7.03333C2 6.66333 2.14062 6.34667 2.42186 6.08333C2.70252 5.81944 3.04001 5.6875 3.43434 5.6875H14.7758C15.1702 5.6875 15.5077 5.81944 15.7883 6.08333C16.0696 6.34667 16.2102 6.66333 16.2102 7.03333V10.1108C16.0758 9.99306 15.939 9.88667 15.7999 9.79167C15.6613 9.69667 15.502 9.62361 15.322 9.5725V7.03333C15.322 6.88389 15.2708 6.76111 15.1684 6.665C15.066 6.56889 14.9351 6.52083 14.7758 6.52083H3.43434C3.27507 6.52083 3.14422 6.56889 3.04178 6.665C2.93935 6.76111 2.88814 6.88389 2.88814 7.03333V17.675C2.88814 17.8244 2.93935 17.9472 3.04178 18.0433C3.14422 18.1394 3.27507 18.1875 3.43434 18.1875H6.40338C6.39272 18.2336 6.38503 18.2794 6.38029 18.325C6.37496 18.3711 6.3723 18.4172 6.3723 18.4633V19.0208H3.44322ZM5.55255 9.62917H11.7011C11.9155 9.5125 12.141 9.42722 12.3779 9.37333C12.6147 9.32 12.856 9.2825 13.1017 9.26083V9.21333C13.1017 9.095 13.0591 8.99611 12.9738 8.91667C12.8886 8.83722 12.7832 8.79694 12.6576 8.79583H5.55255C5.42643 8.79583 5.32104 8.83583 5.23637 8.91583C5.15111 8.99583 5.10848 9.09472 5.10848 9.2125C5.10848 9.33083 5.15111 9.43 5.23637 9.51C5.32104 9.58944 5.42643 9.62917 5.55255 9.62917ZM5.55255 12.7708H9.12285C9.14535 12.6181 9.17555 12.475 9.21344 12.3417C9.25193 12.2083 9.29634 12.0736 9.34666 11.9375H5.55255C5.42643 11.9375 5.32104 11.9775 5.23637 12.0575C5.15111 12.1375 5.10848 12.2367 5.10848 12.355C5.10848 12.4733 5.15111 12.5722 5.23637 12.6517C5.32163 12.7311 5.42702 12.7708 5.55255 12.7708ZM5.55255 15.9125H7.58993C7.74269 15.7975 7.90019 15.6889 8.06242 15.5867C8.22465 15.4839 8.39044 15.3961 8.55977 15.3233V15.2708C8.55977 15.2197 8.54557 15.1747 8.51714 15.1358C8.48754 15.0975 8.43366 15.0783 8.3555 15.0783H5.55255C5.42643 15.0783 5.32104 15.1183 5.23637 15.1983C5.1517 15.2783 5.10907 15.3775 5.10848 15.4958C5.10848 15.6142 5.15111 15.7131 5.23637 15.7925C5.32104 15.8719 5.42643 15.9117 5.55255 15.9117" fill="#6C87AE"/>
</svg>
