<svg width="20" height="20" viewBox="0 0 20 20" fill="none" xmlns="http://www.w3.org/2000/svg">
<path d="M7.96832 8.55469V2.92969C7.96836 2.85468 7.95039 2.78075 7.91594 2.71412C7.88148 2.64749 7.83153 2.5901 7.7703 2.54678C7.70906 2.50346 7.63833 2.47546 7.56403 2.46515C7.48973 2.45483 7.41404 2.4625 7.34332 2.4875C5.55375 3.12007 4.04874 4.37063 3.09918 6.01411C2.14961 7.65759 1.81786 9.58603 2.16363 11.4523C2.17722 11.5262 2.20833 11.5956 2.25436 11.6549C2.30038 11.7142 2.35997 11.7616 2.4281 11.793C2.49624 11.8245 2.57093 11.8391 2.64591 11.8357C2.72088 11.8323 2.79394 11.811 2.85894 11.7734L7.73394 8.96094C7.80524 8.91977 7.86445 8.86055 7.90559 8.78923C7.94673 8.71792 7.96837 8.63702 7.96832 8.55469ZM7.03082 8.28125L2.99488 10.6094C2.97717 10.4068 2.96832 10.2036 2.96832 10C2.96933 8.66131 3.35205 7.35066 4.07161 6.22179C4.79116 5.09292 5.8177 4.19265 7.03082 3.62656V8.28125ZM16.9191 6.05078C16.9129 6.03828 16.9066 6.02578 16.8996 6.01406C16.8935 6.00256 16.8864 5.99158 16.8785 5.98125C16.1766 4.7795 15.1723 3.78252 13.9654 3.08951C12.7586 2.3965 11.3913 2.03165 9.99957 2.03125C9.87525 2.03125 9.75602 2.08064 9.66811 2.16854C9.5802 2.25645 9.53082 2.37568 9.53082 2.5V9.76563L3.29644 13.3953C3.24318 13.4264 3.19658 13.4677 3.1593 13.5168C3.12203 13.5659 3.09481 13.6219 3.0792 13.6816C3.0636 13.7412 3.05992 13.8034 3.06838 13.8644C3.07683 13.9255 3.09725 13.9843 3.12847 14.0375C4.0144 15.5458 5.372 16.7206 6.99183 17.3809C8.61166 18.0411 10.4037 18.15 12.0916 17.6908C13.7795 17.2316 15.2693 16.2297 16.3314 14.8398C17.3934 13.4499 17.9687 11.7492 17.9683 10C17.9699 8.6145 17.6081 7.2528 16.9191 6.05078ZM10.4683 2.98438C11.5415 3.0565 12.5839 3.3739 13.5152 3.91215C14.4465 4.45039 15.2419 5.19514 15.8402 6.08906L10.4683 9.21875V2.98438ZM9.99957 17.0313C8.85468 17.0282 7.72767 16.7471 6.71545 16.2122C5.70324 15.6772 4.8361 14.9044 4.18863 13.9602L10.2285 10.4445L10.2418 10.4367L16.3097 6.90234C16.8357 7.97417 17.0801 9.16228 17.0199 10.3547C16.9597 11.5471 16.5968 12.7045 15.9655 13.7179C15.3342 14.7313 14.4552 15.5672 13.4114 16.1469C12.3677 16.7266 11.1935 17.0309 9.99957 17.0313Z" fill="#6C87AE"/>
</svg>
