<svg width="25" height="25" viewBox="0 0 25 25" fill="none" xmlns="http://www.w3.org/2000/svg">
<path d="M12.8565 11.5911C11.8131 11.5911 10.9194 11.2192 10.1755 10.4752C9.43155 9.73128 9.06 8.83804 9.06084 7.79551C9.06084 6.75129 9.43239 5.85721 10.1755 5.11326C10.9186 4.37101 11.8123 3.99988 12.8565 3.99988C13.9007 3.99988 14.7944 4.37101 15.5375 5.11326C16.2806 5.85721 16.6521 6.75129 16.6521 7.79551C16.6521 8.83889 16.2806 9.73213 15.5375 10.4752C14.7944 11.2183 13.9007 11.5903 12.8565 11.5911ZM4 20.7386V18.6573C4 18.1352 4.15183 17.6469 4.45548 17.1922C4.75997 16.7368 5.16905 16.3833 5.68273 16.132C6.87709 15.5593 8.07187 15.1299 9.26707 14.844C10.4631 14.5572 11.6596 14.4138 12.8565 14.4138C14.0542 14.4138 15.2507 14.5572 16.4459 14.844C17.6411 15.1308 18.8354 15.5601 20.029 16.132C20.5435 16.3833 20.9526 16.7368 21.2562 17.1922C21.5607 17.6469 21.713 18.1352 21.713 18.6573V20.7399L4 20.7386ZM5.26521 19.4734H20.4477V18.6561C20.4477 18.376 20.3575 18.1125 20.177 17.8653C19.9956 17.619 19.7451 17.4107 19.4255 17.2403C18.3846 16.7359 17.3109 16.3496 16.2042 16.0814C15.0993 15.8123 13.9834 15.6778 12.8565 15.6778C11.7304 15.6778 10.6145 15.8123 9.50873 16.0814C8.40209 16.3496 7.32835 16.7359 6.2875 17.2403C5.96698 17.4107 5.71647 17.619 5.53597 17.8653C5.35546 18.1125 5.26521 18.3765 5.26521 18.6573V19.4734ZM12.8565 10.3259C13.5523 10.3259 14.1483 10.0779 14.6442 9.58199C15.1402 9.08602 15.3877 8.49053 15.3869 7.79551C15.3869 7.09964 15.1393 6.50373 14.6442 6.00777C14.1491 5.5118 13.5532 5.26425 12.8565 5.26509C12.1606 5.26509 11.5651 5.51265 11.07 6.00777C10.5749 6.50289 10.3269 7.0988 10.3261 7.79551C10.3261 8.49138 10.574 9.08687 11.07 9.58199C11.566 10.0771 12.1615 10.3251 12.8565 10.3259Z" fill="#A9A9A9"/>
</svg>