<svg width="30" height="30" viewBox="0 0 30 30" fill="none" xmlns="http://www.w3.org/2000/svg">
<path d="M16.9959 1.72656C19.1091 3.70031 20.4378 6.50344 20.4378 9.62281C20.4378 15.5959 15.5959 20.4378 9.62281 20.4378C6.50344 20.4378 3.70031 19.1091 1.72656 16.9959C2.69281 23.4684 8.25844 28.4372 14.9997 28.4372C22.4209 28.4372 28.4372 22.4209 28.4372 14.9997C28.4372 8.25844 23.4684 2.69344 16.9959 1.72656Z" stroke="#333333" stroke-width="0.85" stroke-linecap="round" stroke-linejoin="round"/>
<path d="M11.2759 7.76008C11.9451 7.76008 12.5869 8.02591 13.0601 8.49908C13.5332 8.97226 13.7991 9.61403 13.7991 10.2832C13.7991 9.95181 13.8643 9.62366 13.9912 9.3175C14.118 9.01134 14.3039 8.73316 14.5383 8.49886C14.7727 8.26456 15.0509 8.07872 15.3571 7.95196C15.6633 7.8252 15.9914 7.76 16.3228 7.76008C15.9914 7.76008 15.6633 7.69479 15.3571 7.56796C15.051 7.44112 14.7728 7.25521 14.5385 7.02085C14.3042 6.78649 14.1183 6.50827 13.9916 6.20208C13.8648 5.89589 13.7996 5.56772 13.7997 5.23633C13.7998 5.56777 13.7345 5.89599 13.6077 6.20222C13.4809 6.50846 13.2951 6.7867 13.0607 7.02107C12.8263 7.25544 12.5481 7.44134 12.2418 7.56814C11.9356 7.69494 11.6074 7.76016 11.2759 7.76008ZM6.61906 12.8245C7.00247 12.8245 7.37017 12.9768 7.64127 13.2479C7.91238 13.519 8.06469 13.8867 8.06469 14.2701C8.06469 13.8867 8.21699 13.519 8.4881 13.2479C8.75921 12.9768 9.12691 12.8245 9.51031 12.8245C9.12691 12.8245 8.75921 12.6721 8.4881 12.401C8.21699 12.1299 8.06469 11.7622 8.06469 11.3788C8.06469 11.7622 7.91238 12.1299 7.64127 12.401C7.37017 12.6721 7.00247 12.8245 6.61906 12.8245ZM5.66406 6.77445C6.36594 6.77445 6.93469 7.3432 6.93469 8.04508C6.93469 7.3432 7.50344 6.77445 8.20531 6.77445C7.86832 6.77445 7.54513 6.64058 7.30685 6.4023C7.06856 6.16401 6.93469 5.84082 6.93469 5.50383C6.93469 6.2057 6.36594 6.77445 5.66406 6.77445Z" stroke="#333333" stroke-width="0.666667" stroke-linecap="round" stroke-linejoin="round"/>
</svg>

