<?xml version="1.0" encoding="UTF-8"?>
<svg version="1.1" xmlns="http://www.w3.org/2000/svg" width="512" height="512">
<path d="M0 0 C0.99257813 0.71027344 1.98515625 1.42054687 3.0078125 2.15234375 C13.43781484 9.7983981 22.12913315 17.70844298 30 28 C30.60714844 28.79148438 31.21429688 29.58296875 31.83984375 30.3984375 C47.56558378 51.86532072 53.52357779 75.69023205 53.34057617 101.97265625 C53.33972747 103.70898422 53.34020978 105.44531327 53.34190369 107.18164062 C53.34275558 111.84179876 53.32526229 116.5017197 53.30418181 121.16182327 C53.28527877 126.0517986 53.28365393 130.94178088 53.28010559 135.83178711 C53.27082481 145.06779031 53.24626539 154.30368549 53.21605712 163.53964138 C53.18238877 174.06458529 53.165996 184.58953467 53.15097082 195.11451912 C53.11971179 216.74307276 53.06702944 238.37152954 53 260 C53.75481659 259.99442581 54.50963318 259.98885162 55.287323 259.98310852 C56.2777359 259.97877304 57.2681488 259.97443756 58.28857422 259.9699707 C59.27026581 259.96439651 60.2519574 259.95882233 61.26339722 259.95307922 C73.18597761 260.15749937 83.31773169 265.7587994 91.859375 273.703125 C101.42336725 283.96521888 105.2523178 296.12252125 105 310 C103.33462112 323.79885357 98.10188036 333.52459284 88 343 C75.96228839 352.36656976 64.3568957 353.45524464 49.6171875 353.51171875 C47.94994813 353.52859211 46.28272127 353.54674586 44.61550903 353.56611633 C40.25911369 353.61333442 35.90276912 353.64332517 31.54620361 353.66955566 C27.08799215 353.69950458 22.62995513 353.74598515 18.171875 353.79101562 C9.44800296 353.87672741 0.72411453 353.94421432 -8 354 C-8.1853833 354.87245361 -8.3707666 355.74490723 -8.56176758 356.64379883 C-8.81595459 357.79904053 -9.0701416 358.95428223 -9.33203125 360.14453125 C-9.7029187 361.85539917 -9.7029187 361.85539917 -10.08129883 363.60083008 C-14.6105309 380.35886839 -28.53596116 393.20975611 -43.00048828 401.7722168 C-58.13134804 410.33590207 -74.70833437 414.10752694 -92 415 C-93.04414063 415.061875 -93.04414063 415.061875 -94.109375 415.125 C-120.67110393 415.92384899 -146.07324696 405.9930808 -165.73828125 388.44921875 C-167.125 387.125 -167.125 387.125 -169 385 C-169 384.34 -169 383.68 -169 383 C-169.66 383 -170.32 383 -171 383 C-176.70438253 373.47462964 -181.18587067 365.07117844 -183 354 C-184.36943756 353.99453156 -184.36943756 353.99453156 -185.76654053 353.98895264 C-194.41610859 353.95091513 -203.06530561 353.89388519 -211.71461105 353.81609726 C-216.16017779 353.77677024 -220.60555083 353.74450996 -225.05126953 353.72900391 C-229.35037786 353.71373912 -233.64895312 353.67912245 -237.94782257 353.63169098 C-239.57901599 353.6169776 -241.21028555 353.60896482 -242.8415451 353.60811615 C-258.82819281 353.59145098 -271.03635579 350.33809481 -283.125 339.5 C-291.9811985 330.23641637 -295.32301109 318.53006029 -296.3125 306.0625 C-295.88653829 293.04404523 -290.26926778 281.58216126 -281.4609375 272.26171875 C-270.46152202 262.15273215 -258.56795965 260 -244 260 C-244 245.15 -244 230.3 -244 215 C-248.29 215 -252.58 215 -257 215 C-260.04068419 210.94575442 -260.38124483 210.27518616 -260.51171875 205.578125 C-260.54716797 204.55332031 -260.58261719 203.52851563 -260.61914062 202.47265625 C-260.64169922 201.40917969 -260.66425781 200.34570312 -260.6875 199.25 C-260.72166016 198.17105469 -260.75582031 197.09210938 -260.79101562 195.98046875 C-260.87340663 193.32041623 -260.94258645 190.66068965 -261 188 C-263.97123549 186.78911978 -265.85066796 186.06968125 -269 186 C-272.48888856 187.58551929 -275.29474202 189.8965766 -278.25 192.3125 C-279.81375241 193.54280521 -281.38132329 194.76827638 -282.953125 195.98828125 C-283.97647949 196.81646362 -283.97647949 196.81646362 -285.02050781 197.66137695 C-287.12187336 199.08241633 -288.47027652 199.7933773 -291 200 C-297.46638019 196.78014353 -302.7039411 190.53685205 -307.6875 185.4375 C-308.42033203 184.69564453 -309.15316406 183.95378906 -309.90820312 183.18945312 C-311.31874796 181.76110159 -312.72730043 180.33077888 -314.13354492 178.89819336 C-315.69579405 177.30937884 -317.26554036 175.72917054 -318.84375 174.15625 C-325.61764706 167.38235294 -325.61764706 167.38235294 -326.8125 163.0625 C-324.7288524 155.20875136 -314.37911675 150.30067502 -308 146 C-308.33 143.36 -308.66 140.72 -309 138 C-309.74161377 138.02618408 -310.48322754 138.05236816 -311.24731445 138.0793457 C-314.60216145 138.18317431 -317.95667105 138.24828239 -321.3125 138.3125 C-323.06336914 138.3753418 -323.06336914 138.3753418 -324.84960938 138.43945312 C-325.96787109 138.45556641 -327.08613281 138.47167969 -328.23828125 138.48828125 C-329.7857605 138.52755737 -329.7857605 138.52755737 -331.36450195 138.56762695 C-334 138 -334 138 -335.83740234 136.06542969 C-337.45219436 131.80769584 -337.41054189 127.98240787 -337.36328125 123.46484375 C-337.36377975 122.5491713 -337.36427826 121.63349884 -337.36479187 120.69007874 C-337.36245685 118.75942813 -337.35276213 116.82877417 -337.33618164 114.89819336 C-337.31255377 111.94422188 -337.31562954 108.99115159 -337.32226562 106.03710938 C-337.3166896 104.15884879 -337.30958019 102.280592 -337.30078125 100.40234375 C-337.30169266 99.51997543 -337.30260406 98.63760712 -337.30354309 97.72850037 C-337.29401108 96.90406937 -337.28447906 96.07963837 -337.2746582 95.23022461 C-337.27005081 94.50806259 -337.26544342 93.78590057 -337.26069641 93.04185486 C-336.95533742 90.65018891 -336.26144854 89.04744099 -335 87 C-332.39048764 85.69524382 -330.47298715 85.88698428 -327.5546875 85.90234375 C-325.94013672 85.90717773 -325.94013672 85.90717773 -324.29296875 85.91210938 C-323.16503906 85.92048828 -322.03710938 85.92886719 -320.875 85.9375 C-319.73933594 85.94201172 -318.60367188 85.94652344 -317.43359375 85.95117188 C-314.62234362 85.96298385 -311.8111977 85.97945493 -309 86 C-308.67 83.36 -308.34 80.72 -308 78 C-308.47421387 77.64695801 -308.94842773 77.29391602 -309.43701172 76.93017578 C-311.58426394 75.33012824 -313.72964893 73.72759558 -315.875 72.125 C-316.99455078 71.29162109 -316.99455078 71.29162109 -318.13671875 70.44140625 C-318.85214844 69.90644531 -319.56757813 69.37148437 -320.3046875 68.8203125 C-321.2944458 68.08192139 -321.2944458 68.08192139 -322.30419922 67.32861328 C-325.90568389 64.50694907 -325.90568389 64.50694907 -326.5 61.3125 C-325.44217083 54.30438177 -319.05483595 50.07203631 -313.89453125 45.7109375 C-312.10505097 44.09487077 -310.62384461 42.44600384 -309.125 40.5625 C-308.42375 39.716875 -307.7225 38.87125 -307 38 C-306.34 38 -305.68 38 -305 38 C-304.62101562 37.13761719 -304.62101562 37.13761719 -304.234375 36.2578125 C-302.84725796 33.72061741 -301.27347903 31.93769374 -299.25 29.875 C-298.59515625 29.19179687 -297.9403125 28.50859375 -297.265625 27.8046875 C-294.46579459 25.57447776 -292.55203042 24.57062506 -289 24 C-286.50264079 25.25327597 -284.71714826 26.37072819 -282.5625 28.0625 C-281.99120361 28.47991455 -281.41990723 28.8973291 -280.83129883 29.32739258 C-278.45117258 31.0749429 -276.13810947 32.88329495 -273.8828125 34.7890625 C-272.03446411 36.39532951 -272.03446411 36.39532951 -269 38 C-266.90267324 37.79028765 -266.90267324 37.79028765 -264.80078125 37.11328125 C-263.54652344 36.74589844 -262.29226563 36.37851563 -261 36 C-260.9906543 35.2886792 -260.98130859 34.5773584 -260.97167969 33.84448242 C-260.91803112 30.6247794 -260.83437365 27.40653817 -260.75 24.1875 C-260.73582031 23.06794922 -260.72164063 21.94839844 -260.70703125 20.79492188 C-260.67480469 19.72177734 -260.64257812 18.64863281 -260.609375 17.54296875 C-260.58842773 16.55321045 -260.56748047 15.56345215 -260.54589844 14.54370117 C-260 12 -260 12 -258.2482605 10.35437012 C-255.68303367 8.80905695 -254.44100771 8.66928467 -251.48193359 8.78637695 C-250.59355804 8.81242508 -249.7051825 8.83847321 -248.78988647 8.86531067 C-247.83570831 8.90589096 -246.88153015 8.94647125 -245.8984375 8.98828125 C-243.86071136 9.03599244 -241.82294878 9.08216703 -239.78515625 9.12695312 C-236.58504437 9.21338308 -233.38677216 9.31203377 -230.18798828 9.4387207 C-216.28970598 10.55395047 -216.28970598 10.55395047 -204.0234375 5.26953125 C-202.66408813 3.86373097 -201.3208671 2.44201778 -200 1 C-197.51921049 -0.73679392 -194.91109184 -2.18337527 -192.25 -3.625 C-191.56663574 -4.00052002 -190.88327148 -4.37604004 -190.17919922 -4.76293945 C-134.76909482 -34.70030426 -52.78541648 -38.06798728 0 0 Z M-145 -10 C-146.0823291 -9.73147217 -146.0823291 -9.73147217 -147.18652344 -9.45751953 C-167.87219138 -4.18976993 -190.47059554 4.81569342 -206 20 C-206 20.66 -206 21.32 -206 22 C-206.66 22 -207.32 22 -208 22 C-208 26.62 -208 31.24 -208 36 C-206.9275 36.515625 -205.855 37.03125 -204.75 37.5625 C-204.14671875 37.85253906 -203.5434375 38.14257812 -202.921875 38.44140625 C-200.50233388 39.14464686 -199.3802931 38.79214701 -197 38 C-195.10932726 36.81163638 -195.10932726 36.81163638 -193.28515625 35.3125 C-192.59873047 34.77882812 -191.91230469 34.24515625 -191.20507812 33.6953125 C-189.7790937 32.56700395 -188.35460691 31.4368 -186.93164062 30.3046875 C-186.24392578 29.77101562 -185.55621094 29.23734375 -184.84765625 28.6875 C-183.9196521 27.95080078 -183.9196521 27.95080078 -182.97290039 27.19921875 C-180.57715331 25.74297451 -178.80002369 25.18782665 -176 25 C-174.21655273 25.99194336 -174.21655273 25.99194336 -172.49609375 27.65234375 C-171.81015137 28.30187012 -171.12420898 28.95139648 -170.41748047 29.62060547 C-169.61971191 30.40580566 -168.82194336 31.19100586 -168 32 C-167.01180123 32.94415156 -166.02229944 33.88694054 -165.03173828 34.82861328 C-162.25041224 37.48492042 -159.50435319 40.17479921 -156.77026367 42.87963867 C-155.62448863 44.0087062 -154.47335579 45.13236043 -153.31713867 46.25073242 C-151.62752384 47.88560554 -149.95494105 49.53631353 -148.28515625 51.19140625 C-147.76856949 51.68532364 -147.25198273 52.17924103 -146.71974182 52.68812561 C-143.45457302 55.97290129 -142.17617461 58.35725721 -142 63 C-143 66 -143 66 -144.609375 66.8671875 C-145.39828125 67.24101562 -146.1871875 67.61484375 -147 68 C-149.46491211 69.64082647 -151.85358105 71.38613503 -154.25 73.125 C-154.8996875 73.59292969 -155.549375 74.06085938 -156.21875 74.54296875 C-157.81435483 75.69274282 -159.40743025 76.84602566 -161 78 C-160.01 80.64 -159.02 83.28 -158 86 C-157.31897217 86.01981934 -156.63794434 86.03963867 -155.9362793 86.06005859 C-152.85296083 86.15526983 -149.77032351 86.26496466 -146.6875 86.375 C-145.61564453 86.4059375 -144.54378906 86.436875 -143.43945312 86.46875 C-142.41142578 86.50742188 -141.38339844 86.54609375 -140.32421875 86.5859375 C-139.37635498 86.6173584 -138.42849121 86.6487793 -137.4519043 86.68115234 C-135 87 -135 87 -132 89 C-131.63923645 91.06277466 -131.63923645 91.06277466 -131.65942383 93.63330078 C-131.65965042 94.59414581 -131.65987701 95.55499084 -131.66011047 96.54495239 C-131.67559433 97.58457123 -131.69107819 98.62419006 -131.70703125 99.6953125 C-131.71127609 100.75789276 -131.71552094 101.82047302 -131.71989441 102.91525269 C-131.73672611 106.31875646 -131.77438697 109.72167433 -131.8125 113.125 C-131.82754101 115.42837688 -131.84123042 117.73176302 -131.85351562 120.03515625 C-131.88409614 125.69051307 -131.94281055 131.34459852 -132 137 C-140.58 137.33 -149.16 137.66 -158 138 C-158.99 140.64 -159.98 143.28 -161 146 C-160.45996338 146.3623877 -159.91992676 146.72477539 -159.36352539 147.09814453 C-156.9167621 148.75533169 -154.48988504 150.43957039 -152.0625 152.125 C-151.21236328 152.69476563 -150.36222656 153.26453125 -149.48632812 153.8515625 C-145.9907729 156.30262911 -143.46494036 158.09427202 -141.49609375 161.9296875 C-142.31828508 166.9393184 -145.49045822 169.49261485 -149 173 C-149.95015249 173.98628172 -150.89826934 174.97452714 -151.84472656 175.96435547 C-154.51518106 178.74588028 -157.2177528 181.49353558 -159.93457031 184.22973633 C-161.06957006 185.37637458 -162.2000577 186.52749534 -163.32617188 187.68286133 C-164.97080519 189.37003646 -166.62817984 191.04368074 -168.2890625 192.71484375 C-168.78814117 193.23143051 -169.28721985 193.74801727 -169.80142212 194.28025818 C-172.70700398 197.16803976 -174.8203079 198.91503634 -179 199 C-181.54683544 197.52908462 -183.69650109 196.09672725 -186 194.3125 C-186.60328125 193.86455078 -187.2065625 193.41660156 -187.828125 192.95507812 C-190.53910631 190.9306823 -193.12199926 188.89027285 -195.640625 186.625 C-197.85496537 184.76872978 -197.85496537 184.76872978 -200.421875 185.01171875 C-201.19015625 185.23472656 -201.9584375 185.45773438 -202.75 185.6875 C-203.52859375 185.89761719 -204.3071875 186.10773438 -205.109375 186.32421875 C-206.98533189 186.8427153 -206.98533189 186.8427153 -208 188 C-208.15806531 189.92478813 -208.251135 191.8549921 -208.31640625 193.78515625 C-208.35830078 194.95498047 -208.40019531 196.12480469 -208.44335938 197.33007812 C-208.48267578 198.56177734 -208.52199219 199.79347656 -208.5625 201.0625 C-208.62727539 202.91584961 -208.62727539 202.91584961 -208.69335938 204.80664062 C-208.79984111 207.87094841 -208.90046065 210.93545885 -209 214 C-216.92 214.33 -224.84 214.66 -233 215 C-233.04898438 218.71894531 -233.09796875 222.43789063 -233.1484375 226.26953125 C-233.20241737 229.86372979 -233.25973669 233.45786057 -233.31738281 237.05200195 C-233.35571119 239.55357841 -233.39055718 242.05521072 -233.421875 244.55688477 C-233.46744146 248.14880357 -233.52545024 251.74033662 -233.5859375 255.33203125 C-233.60326431 257.01496025 -233.60326431 257.01496025 -233.62094116 258.73188782 C-233.64081085 259.77274033 -233.66068054 260.81359283 -233.68115234 261.88598633 C-233.69447601 262.80309891 -233.70779968 263.72021149 -233.7215271 264.66511536 C-234 267 -234 267 -236 270 C-238.74578131 270.33688739 -241.31002584 270.50725761 -244.0625 270.5625 C-245.61739388 270.62809025 -247.17209801 270.69835603 -248.7265625 270.7734375 C-249.47067383 270.80920898 -250.21478516 270.84498047 -250.98144531 270.88183594 C-261.21789814 271.48106709 -269.30994955 275.84414934 -276.375 283.25 C-283.87484038 292.41984532 -285.07100533 301.53478412 -284.22753906 313.05419922 C-283.70704429 317.50521137 -282.24402589 321.15912809 -280 325 C-279.59910156 325.70382812 -279.19820312 326.40765625 -278.78515625 327.1328125 C-273.88470967 334.60421801 -266.1056951 339.52616987 -257.47330821 341.58783078 C-252.3540561 342.44093843 -247.17771103 342.28067047 -242.00151062 342.26742554 C-240.04891955 342.27422221 -240.04891955 342.27422221 -238.0568822 342.28115618 C-234.45906596 342.29334662 -230.86134298 342.29313041 -227.26351082 342.29076743 C-223.37722803 342.29035826 -219.49097475 342.30140788 -215.60470581 342.31088257 C-207.99671355 342.32747145 -200.38875228 342.33299114 -192.78074344 342.33410732 C-186.59490636 342.33505873 -180.40907948 342.33917366 -174.22324562 342.34550858 C-156.67355636 342.36311466 -139.12389153 342.37234835 -121.57419338 342.37084763 C-120.62875498 342.37076772 -119.68331657 342.3706878 -118.70922852 342.37060547 C-117.28933349 342.37048283 -117.28933349 342.37048283 -115.84075371 342.37035771 C-100.50035079 342.36954483 -85.16004606 342.38868466 -69.81967153 342.4168822 C-54.05681518 342.44562703 -38.29400669 342.45942164 -22.53112346 342.45769465 C-13.68604274 342.45703134 -4.84106499 342.46249802 4.00399208 342.48405075 C11.53462503 342.50228352 19.06510833 342.50659265 26.59575383 342.4930319 C30.43515715 342.486513 34.27427354 342.48634578 38.11364937 342.5037384 C42.28283537 342.52243027 46.45136034 342.50988679 50.62055969 342.49447632 C51.82427399 342.50476344 53.02798828 342.51505057 54.26817876 342.52564943 C65.26254829 342.43601611 74.90352238 339.70277998 83 332 C91.37642107 323.06739805 93.69086715 314.96947453 93.41015625 302.7890625 C92.39225439 293.38558817 88.1359801 285.20760987 81 279 C73.57810048 273.48588559 66.86459988 271.21272817 57.7265625 270.7734375 C56.96093994 270.73645752 56.19531738 270.69947754 55.40649414 270.66137695 C53.85942644 270.59611683 52.3115595 270.54742856 50.76342773 270.51635742 C48.59765625 270.44140625 48.59765625 270.44140625 45 270 C42.5144729 266.27170935 42.74730032 264.36975273 42.74171448 259.91340637 C42.73803877 259.18709273 42.73436307 258.46077908 42.73057598 257.71245593 C42.72057316 255.27153062 42.72475147 252.83083212 42.72875977 250.38989258 C42.72437359 248.64203142 42.71907183 246.89417236 42.71292114 245.14631653 C42.70140441 241.37639398 42.69596044 237.60652776 42.69503975 233.83658791 C42.69309896 227.8628237 42.675041 221.88917553 42.65428162 215.91545105 C42.60507602 201.06530952 42.57429859 186.21513615 42.55297852 171.3649292 C42.53640879 159.84634352 42.51343377 148.32785662 42.46995777 136.80933684 C42.44830544 130.88528165 42.44011218 124.96141462 42.44235051 119.03732264 C42.44066894 115.32719483 42.42652883 111.61718685 42.40913773 107.90710258 C42.40359606 106.20290636 42.40299868 104.49868467 42.40807533 102.794487 C42.48787704 72.83251014 33.1196252 45.8688802 12 24 C9.43768275 21.527001 6.76583486 19.24218282 4 17 C3.13761719 16.30003906 2.27523438 15.60007812 1.38671875 14.87890625 C-39.43748182 -16.99601084 -95.86065995 -22.36540892 -145 -10 Z M-249 20 C-249.33 27.92 -249.66 35.84 -250 44 C-252.660625 45.010625 -255.32125 46.02125 -258.0625 47.0625 C-258.8862915 47.38484619 -259.71008301 47.70719238 -260.55883789 48.03930664 C-265.40225337 49.81114646 -268.89796007 50.51105712 -274 49 C-276.44704095 47.54963042 -278.58260336 45.83591245 -280.75 44 C-285.00252183 40.38889004 -285.00252183 40.38889004 -290 38 C-297.26 45.26 -304.52 52.52 -312 60 C-307.80086933 64.19913067 -303.38326711 67.26922346 -298.484375 70.5859375 C-296 73 -296 73 -295.484375 75.8046875 C-296.09895132 79.61319833 -297.18700671 83.13749413 -298.5 86.75 C-300.29033767 91.26754084 -300.29033767 91.26754084 -301 96 C-308.92 96.33 -316.84 96.66 -325 97 C-325 106.9 -325 116.8 -325 127 C-317.89521139 127.13082397 -317.89521139 127.13082397 -310.78979492 127.20776367 C-303.53164325 127.43814975 -303.53164325 127.43814975 -300.9375 130.1796875 C-300.628125 131.11039062 -300.31875 132.04109375 -300 133 C-299.61457031 133.95777344 -299.22914063 134.91554688 -298.83203125 135.90234375 C-298.49558594 136.90394531 -298.15914062 137.90554687 -297.8125 138.9375 C-297.46832031 139.93652344 -297.12414062 140.93554688 -296.76953125 141.96484375 C-295.32338936 147.66866227 -295.32338936 147.66866227 -296 151 C-298.38593815 153.52740151 -301.13973229 155.41822902 -304 157.375 C-304.763125 157.92027344 -305.52625 158.46554688 -306.3125 159.02734375 C-308.19656588 160.36974069 -310.09165823 161.69245599 -312 163 C-307.47008204 168.43733055 -302.65705784 173.46458931 -297.625 178.4375 C-296.52091797 179.53481445 -296.52091797 179.53481445 -295.39453125 180.65429688 C-293.59863926 182.43852723 -291.80044015 184.22036124 -290 186 C-285.48544226 183.52787506 -281.56805399 180.94312858 -277.5625 177.6875 C-272.5470463 174.04483986 -272.5470463 174.04483986 -268.1875 173.6875 C-266.32421875 174.1640625 -266.32421875 174.1640625 -264 175 C-262.81019531 175.39960938 -261.62039063 175.79921875 -260.39453125 176.2109375 C-256.8952985 177.39782308 -253.46613321 178.70020005 -250 180 C-249.505 191.88 -249.505 191.88 -249 204 C-239.1 204 -229.2 204 -219 204 C-218.75048385 196.52107605 -218.75048385 196.52107605 -218.52197266 189.04150391 C-218.4863623 188.11257324 -218.45075195 187.18364258 -218.4140625 186.2265625 C-218.36693115 184.79691162 -218.36693115 184.79691162 -218.31884766 183.33837891 C-218 181 -218 181 -216 179 C-213.4005849 178.04793898 -210.83046024 177.18459779 -208.1875 176.375 C-207.47529297 176.14554688 -206.76308594 175.91609375 -206.02929688 175.6796875 C-198.49655442 173.33833554 -198.49655442 173.33833554 -195 174 C-192.67888911 175.5569828 -190.62348974 177.08653881 -188.5 178.875 C-184.7412858 181.98836652 -181.63389191 184.14644324 -177 186 C-170.07 179.07 -163.14 172.14 -156 165 C-157.30021775 161.09934676 -159.7419237 159.63959215 -162.9375 157.3125 C-163.48857422 156.89677734 -164.03964844 156.48105469 -164.60742188 156.05273438 C-167.49632738 153.72307634 -167.49632738 153.72307634 -171 153 C-172.40186203 146.89015047 -171.3978876 142.91292239 -169.1875 137.125 C-168.91357422 136.35414063 -168.63964844 135.58328125 -168.35742188 134.7890625 C-166.2846277 129.14231385 -166.2846277 129.14231385 -164 128 C-162.33434251 127.84777027 -160.66343504 127.75082785 -158.9921875 127.68359375 C-158.1038623 127.64548584 -157.21553711 127.60737793 -156.30029297 127.56811523 C-154.60477295 127.50346069 -154.60477295 127.50346069 -152.875 127.4375 C-149.28625 127.293125 -145.6975 127.14875 -142 127 C-142 117.1 -142 107.2 -142 97 C-149.59 96.67 -157.18 96.34 -165 96 C-167.03907242 91.92185517 -168.76582621 88.25315474 -170.25 84 C-170.78367188 82.515 -170.78367188 82.515 -171.328125 81 C-172.13883949 77.38006554 -172.26978128 75.51138072 -171 72 C-168.70784469 69.69661964 -166.12969135 67.93124688 -163.4375 66.125 C-162.72658203 65.62742188 -162.01566406 65.12984375 -161.28320312 64.6171875 C-159.53308067 63.39562552 -157.7679322 62.19564127 -156 61 C-157.51376081 57.43235715 -159.60513129 55.16293713 -162.3515625 52.453125 C-163.20234375 51.60878906 -164.053125 50.76445313 -164.9296875 49.89453125 C-165.81914062 49.02183594 -166.70859375 48.14914063 -167.625 47.25 C-168.5221875 46.36183594 -169.419375 45.47367188 -170.34375 44.55859375 C-172.55807004 42.36783031 -174.77692435 40.18187237 -177 38 C-180.12986796 39.15845762 -182.70367741 40.32602859 -185.3046875 42.41796875 C-185.88863281 42.86720703 -186.47257813 43.31644531 -187.07421875 43.77929688 C-188.27562918 44.71879462 -189.4684248 45.6694131 -190.65234375 46.63085938 C-193.89580766 49.0937534 -195.32254362 50.01503788 -199.51953125 49.921875 C-200.66808594 49.61765625 -201.81664062 49.3134375 -203 49 C-204.14082031 48.70222656 -205.28164062 48.40445313 -206.45703125 48.09765625 C-207.56433594 47.75605469 -208.67164063 47.41445312 -209.8125 47.0625 C-210.93269531 46.72347656 -212.05289063 46.38445312 -213.20703125 46.03515625 C-216 45 -216 45 -218 43 C-218.31884766 40.66162109 -218.31884766 40.66162109 -218.4140625 37.7734375 C-218.46747803 36.3800415 -218.46747803 36.3800415 -218.52197266 34.95849609 C-218.55597168 33.77594238 -218.5899707 32.59338867 -218.625 31.375 C-218.74875 27.62125 -218.8725 23.8675 -219 20 C-228.9 20 -238.8 20 -249 20 Z M-171 353 C-167.74331798 369.28341008 -160.03145144 380.55802504 -146.21484375 389.87890625 C-123.77215112 403.56924444 -96.95874774 407.04142579 -71.5 400.99609375 C-53.19036961 396.19323098 -36.63880309 387.13913666 -26 371 C-22.59439526 364.84273457 -21.00958035 360.06706244 -20 353 C-69.83 353 -119.66 353 -171 353 Z " fill="#FDFDFD" transform="translate(372,62)"/>
<path d="M0 0 C8.67134624 6.96979905 12.46999763 15.45270492 13.8828125 26.3515625 C14.4751601 36.81637014 11.02506002 45.25410709 4.5703125 53.2890625 C-1.48774508 59.87093709 -10.05618916 64.20765053 -18.99609375 64.90234375 C-29.69613515 65.12949547 -38.63423094 63.37488643 -47.08203125 56.48828125 C-55.12303822 48.54927436 -58.97734297 39.9727275 -59.3671875 28.7890625 C-59.09157483 18.12055527 -55.62070042 9.18510828 -47.9296875 1.6640625 C-33.07064212 -9.78112268 -15.43952707 -10.9206411 0 0 Z M-42.9296875 12.6640625 C-47.33819663 19.87027934 -49.11719944 26.62586619 -47.46875 35.0078125 C-45.41173024 42.0742804 -41.64740676 47.24159754 -35.3046875 51.0390625 C-27.99067632 54.56062344 -20.43827905 54.83125759 -12.7421875 52.1640625 C-6.17315661 49.24105033 -2.59703809 44.46090865 1.0078125 38.4140625 C3.07369937 31.12269707 3.19423434 24.26133207 0.0078125 17.2890625 C-3.68970492 10.81840701 -8.62882027 6.43758051 -15.765625 4.13671875 C-26.2749371 1.84136358 -35.48243366 5.04361671 -42.9296875 12.6640625 Z " fill="#FDFDFD" transform="translate(160.9296875,145.3359375)"/>
</svg>

