<svg width="51" height="47" viewBox="0 0 51 47" fill="none" xmlns="http://www.w3.org/2000/svg">
<rect width="50.0156" height="47" rx="4" fill="#3D8CEF" fill-opacity="0.1"/>
<path d="M33.4519 22.5C33.4519 22.6326 33.3943 22.7598 33.2917 22.8536C33.1892 22.9473 33.0501 23 32.905 23H27.4363C27.2912 23 27.1521 22.9473 27.0496 22.8536C26.947 22.7598 26.8894 22.6326 26.8894 22.5C26.8894 22.3674 26.947 22.2402 27.0496 22.1464C27.1521 22.0527 27.2912 22 27.4363 22H32.905C33.0501 22 33.1892 22.0527 33.2917 22.1464C33.3943 22.2402 33.4519 22.3674 33.4519 22.5ZM32.905 26H27.4363C27.2912 26 27.1521 26.0527 27.0496 26.1464C26.947 26.2402 26.8894 26.3674 26.8894 26.5C26.8894 26.6326 26.947 26.7598 27.0496 26.8536C27.1521 26.9473 27.2912 27 27.4363 27H32.905C33.0501 27 33.1892 26.9473 33.2917 26.8536C33.3943 26.7598 33.4519 26.6326 33.4519 26.5C33.4519 26.3674 33.3943 26.2402 33.2917 26.1464C33.1892 26.0527 33.0501 26 32.905 26ZM37.8269 15.5V33.5C37.8269 33.8978 37.6541 34.2794 37.3464 34.5607C37.0387 34.842 36.6214 35 36.1863 35H12.1238C11.6887 35 11.2714 34.842 10.9637 34.5607C10.656 34.2794 10.4832 33.8978 10.4832 33.5V15.5C10.4832 15.1022 10.656 14.7206 10.9637 14.4393C11.2714 14.158 11.6887 14 12.1238 14H36.1863C36.6214 14 37.0387 14.158 37.3464 14.4393C37.6541 14.7206 37.8269 15.1022 37.8269 15.5ZM36.7332 15.5C36.7332 15.3674 36.6755 15.2402 36.573 15.1464C36.4704 15.0527 36.3313 15 36.1863 15H12.1238C11.9787 15 11.8396 15.0527 11.7371 15.1464C11.6345 15.2402 11.5769 15.3674 11.5769 15.5V33.5C11.5769 33.6326 11.6345 33.7598 11.7371 33.8536C11.8396 33.9473 11.9787 34 12.1238 34H36.1863C36.3313 34 36.4704 33.9473 36.573 33.8536C36.6755 33.7598 36.7332 33.6326 36.7332 33.5V15.5ZM24.6841 29.375C24.7052 29.4394 24.7119 29.5071 24.7037 29.5739C24.6955 29.6408 24.6727 29.7054 24.6366 29.764C24.6004 29.8226 24.5517 29.8739 24.4934 29.9149C24.4351 29.9559 24.3683 29.9857 24.297 30.0025C24.2258 30.0193 24.1516 30.0228 24.0789 30.0128C24.0061 30.0028 23.9363 29.9795 23.8737 29.9443C23.811 29.909 23.7568 29.8626 23.7142 29.8077C23.6716 29.7529 23.6416 29.6907 23.6259 29.625C23.2062 28.125 21.5574 27 19.78 27C18.0027 27 16.3621 28.125 15.9341 29.625C15.9038 29.7323 15.8354 29.8273 15.7397 29.8952C15.6439 29.963 15.5262 29.9999 15.405 30C15.3589 30.0001 15.3129 29.9946 15.2683 29.9837C15.128 29.9505 15.0079 29.8677 14.9344 29.7536C14.8608 29.6395 14.8398 29.5033 14.8759 29.375C15.0709 28.7228 15.423 28.1188 15.9062 27.6071C16.3895 27.0954 16.9918 26.6889 17.6691 26.4175C16.9826 26.0026 16.4606 25.3966 16.1805 24.6891C15.9004 23.9817 15.8771 23.2106 16.114 22.4901C16.3509 21.7696 16.8355 21.138 17.4958 20.6891C18.1561 20.2402 18.9571 19.9977 19.78 19.9977C20.6029 19.9977 21.4039 20.2402 22.0643 20.6891C22.7246 21.138 23.2092 21.7696 23.4461 22.4901C23.683 23.2106 23.6597 23.9817 23.3795 24.6891C23.0994 25.3966 22.5774 26.0026 21.891 26.4175C22.5687 26.6883 23.1713 27.0946 23.6547 27.6064C24.1381 28.1182 24.4898 28.7225 24.6841 29.375ZM19.78 26C20.3208 26 20.8495 25.8534 21.2992 25.5787C21.7488 25.304 22.0993 24.9135 22.3063 24.4567C22.5132 23.9999 22.5674 23.4972 22.4619 23.0123C22.3564 22.5273 22.0959 22.0819 21.7135 21.7322C21.3311 21.3826 20.8439 21.1445 20.3135 21.048C19.7831 20.9516 19.2333 21.0011 18.7336 21.1903C18.234 21.3795 17.8069 21.7 17.5065 22.1111C17.206 22.5222 17.0457 23.0055 17.0457 23.5C17.0457 24.163 17.3337 24.7989 17.8465 25.2678C18.3593 25.7366 19.0548 26 19.78 26Z" fill="#3D8CEF"/>
</svg>
