<svg width="51" height="47" viewBox="0 0 51 47" fill="none" xmlns="http://www.w3.org/2000/svg">
<rect width="50.0156" height="47" rx="4" fill="#3D8CEF" fill-opacity="0.1"/>
<g clip-path="url(#clip0_634_20)">
<path d="M32.9298 10C30.5211 10 27.8478 11.9818 27.7278 15.1828C27.6904 16.178 28.1365 17.2063 28.6082 18.2948C28.7757 18.6811 28.9438 19.0723 29.0943 19.4666C27.7037 18.8834 26.66 16.5542 26.66 14.9603C26.66 14.6653 26.4215 14.4267 26.1264 14.4267C25.8313 14.4267 25.5928 14.6653 25.5928 14.9603C25.5928 17.1299 27.1445 20.2857 29.3408 20.6368C29.3808 20.6843 29.4289 20.7221 29.4833 20.7531C29.494 20.8032 29.5052 20.8534 29.5142 20.9036C27.5282 21.2045 25.8682 22.5001 25.0592 24.269C24.2343 22.4659 22.5257 21.1533 20.4884 20.886C20.5039 20.8027 20.5242 20.72 20.5428 20.6368C22.7749 20.283 24.5256 17.0889 24.5256 14.9603C24.5256 14.6653 24.2871 14.4267 23.992 14.4267C23.697 14.4267 23.4584 14.6653 23.4584 14.9603C23.4584 16.5889 22.2818 18.7452 20.9313 19.4015C21.0754 19.029 21.2333 18.6598 21.3918 18.2948C21.864 17.2063 22.3101 16.178 22.2722 15.1828C22.1522 11.9818 19.4789 10 17.0702 10C13.1717 10 10 15.2661 10 21.7392C10 28.2123 13.1717 33.4784 17.0702 33.4784C18.5066 33.4784 21.1816 33.4784 22.2424 30.4534C22.6623 29.2565 22.1287 27.8393 21.5108 26.1979C21.0167 24.8858 20.4655 23.4077 20.4148 21.9526C22.7354 22.2899 24.5251 24.2866 24.5251 26.6995V37.3715C24.5251 37.6666 24.7636 37.9051 25.0587 37.9051C25.3538 37.9051 25.5923 37.6666 25.5923 37.3715V26.6995C25.5923 24.3282 27.3212 22.3582 29.5836 21.9713C29.5287 23.4205 28.9806 24.8917 28.4887 26.1985C27.8708 27.8393 27.3372 29.2565 27.7571 30.4539C28.8184 33.4789 31.4928 33.4789 32.9293 33.4789C36.8278 33.4789 39.9995 28.2128 39.9995 21.7397C39.9995 15.2666 36.8278 10 32.9298 10ZM21.236 30.1001C20.4879 32.2329 18.7681 32.4112 17.0702 32.4112C13.7603 32.4112 11.0672 27.6237 11.0672 21.7392C11.0672 15.8546 13.7603 11.0672 17.0702 11.0672C18.9927 11.0672 21.1127 12.7368 21.2061 15.2223C21.2344 15.9758 20.8353 16.8962 20.4127 17.8701C20.37 17.9688 20.3267 18.0696 20.2835 18.1705C19.5333 16.3237 17.79 14.9603 15.8701 14.9603C15.575 14.9603 15.3365 15.1989 15.3365 15.4939C15.3365 15.789 15.575 16.0275 15.8701 16.0275C17.7895 16.0275 19.537 17.9175 19.5994 20.0237C19.5221 20.2985 19.4596 20.5781 19.4148 20.8619H16.4032C16.1081 20.8619 15.8696 21.1005 15.8696 21.3955C15.8696 21.6906 16.1081 21.9291 16.4032 21.9291H19.3396C19.3241 23.9824 17.9346 26.1659 15.8696 26.1659C15.5745 26.1659 15.336 26.4044 15.336 26.6995C15.336 26.9946 15.5745 27.2331 15.8696 27.2331C17.6491 27.2331 19.0418 26.0448 19.7926 24.5011C20.006 25.223 20.2648 25.9189 20.5119 26.5741C21.0343 27.9599 21.5273 29.2688 21.236 30.1001ZM32.9298 32.4112C31.2324 32.4112 29.5132 32.2329 28.764 30.1001C28.4727 29.2688 28.9657 27.9599 29.4876 26.5741C29.7346 25.9183 29.994 25.222 30.2074 24.4995C31.0451 26.0992 32.6481 27.2331 34.3988 27.2331C34.6939 27.2331 34.9324 26.9946 34.9324 26.6995C34.9324 26.4044 34.6939 26.1659 34.3988 26.1659C32.4442 26.1659 30.6636 24.2065 30.6636 22.0551C30.6636 22.0321 30.6535 22.0129 30.6508 21.9905C30.6519 21.9596 30.654 21.9286 30.6551 21.8971H33.8657C34.1608 21.8971 34.3993 21.6586 34.3993 21.3635C34.3993 21.0684 34.1608 20.8299 33.8657 20.8299H30.5814C30.5211 20.4617 30.4326 20.1 30.3216 19.7467C30.5846 17.9202 32.1011 16.0275 34.012 16.0275C34.307 16.0275 34.5456 15.789 34.5456 15.4939C34.5456 15.1989 34.307 14.9603 34.012 14.9603C32.0563 14.9603 30.4571 16.3882 29.6941 18.1182C29.6583 18.0355 29.6226 17.9512 29.5874 17.8701C29.1647 16.8962 28.7656 15.9758 28.7939 15.2223C28.8873 12.7368 31.0073 11.0672 32.9298 11.0672C36.2397 11.0672 38.9328 15.8546 38.9328 21.7392C38.9328 27.6237 36.2397 32.4112 32.9298 32.4112Z" fill="#3D8CEF"/>
</g>
<defs>
<clipPath id="clip0_634_20">
<rect width="30" height="30" fill="white" transform="translate(10 10)"/>
</clipPath>
</defs>
</svg>
