<svg width="51" height="42" viewBox="0 0 51 42" fill="none" xmlns="http://www.w3.org/2000/svg">
<path d="M29.7125 13.9848C28.54 12.7275 27.2207 11.5949 25.779 10.6078C25.6824 10.5451 25.5675 10.5115 25.4496 10.5115C25.3318 10.5115 25.2169 10.5451 25.1203 10.6078C23.6786 11.5949 22.3593 12.7275 21.1868 13.9848C18.5896 16.7574 17.2168 19.6749 17.2168 22.4218C17.2168 24.4488 18.0842 26.3927 19.6281 27.8259C21.1721 29.2592 23.2662 30.0644 25.4496 30.0644C27.6331 30.0644 29.7272 29.2592 31.2711 27.8259C32.8151 26.3927 33.6825 24.4488 33.6825 22.4218C33.6825 19.6749 32.3097 16.7574 29.7125 13.9848ZM25.4496 28.998C23.5715 28.9959 21.771 28.3023 20.443 27.0695C19.1149 25.8367 18.3678 24.1653 18.3656 22.4218C18.3656 17.1236 24.0137 12.7415 25.4496 11.7124C26.8856 12.7415 32.5337 17.1236 32.5337 22.4218C32.5314 24.1653 31.7843 25.8367 30.4563 27.0695C29.1283 28.3023 27.3278 28.9959 25.4496 28.998ZM30.6114 23.2216C30.4199 24.2152 29.9051 25.1304 29.1362 25.8441C28.3674 26.5578 27.3815 27.0357 26.3112 27.2135C26.2795 27.218 26.2475 27.2204 26.2155 27.2206C26.0711 27.2212 25.9317 27.1712 25.8252 27.0806C25.7188 26.9901 25.6529 26.8656 25.6408 26.732C25.6288 26.5984 25.6713 26.4655 25.7601 26.3598C25.8489 26.254 25.9773 26.1832 26.1198 26.1614C27.7836 25.9019 29.1956 24.5902 29.478 23.0439C29.5034 22.9044 29.5874 22.7799 29.7117 22.6979C29.7732 22.6573 29.8427 22.6284 29.9163 22.6127C29.9899 22.597 30.066 22.595 30.1404 22.6067C30.2149 22.6183 30.2861 22.6435 30.35 22.6807C30.414 22.7179 30.4694 22.7665 30.5131 22.8236C30.5569 22.8807 30.5881 22.9452 30.6049 23.0135C30.6218 23.0818 30.624 23.1525 30.6114 23.2216Z" fill="#3D8CEF"/>
<rect width="50.0156" height="41.125" rx="4" fill="#3D8CEF" fill-opacity="0.1"/>
</svg>
