<svg width="51" height="47" viewBox="0 0 51 47" fill="none" xmlns="http://www.w3.org/2000/svg">
<rect width="50.0156" height="47" rx="4" fill="#3D8CEF" fill-opacity="0.1"/>
<path d="M16.77 35.3744V28.7824C16.77 28.2445 16.5549 27.7286 16.1719 27.3482C15.7889 26.9678 15.2694 26.7541 14.7278 26.7541V18.6409C14.7278 18.6409 16.2595 17.6267 18.8123 17.6267C19.5878 17.6255 20.3603 17.723 21.1109 17.9168M23.919 35.3744V29.7966H20.344V29.5431L20.4175 29.3909C22.0499 25.9859 22.8969 22.2621 22.8968 18.4908V18.1571C23.8779 17.8003 24.9154 17.6207 25.9602 17.6267C27.2754 17.6267 28.32 17.8965 29.0236 18.1571V18.4908C29.0236 19.3056 29.0631 20.1199 29.142 20.9308M34.3845 35.3744V31.8999C34.3845 30.7377 35.1851 29.7966 36.1715 29.7966V23.2421C36.1715 23.2421 34.8317 22.1904 32.5975 22.1904C30.3643 22.1904 29.0236 23.2421 29.0236 23.2421V29.7966C30.011 29.7966 30.8105 30.7387 30.8105 31.8999V35.3744M18.6591 15.5984C18.6591 15.5984 17.0253 14.5843 17.0253 13.3166C17.0253 13.0838 17.0715 12.8532 17.1612 12.6382C17.2509 12.4231 17.3824 12.2277 17.5481 12.063C17.7139 11.8984 17.9106 11.7679 18.1272 11.6788C18.3437 11.5897 18.5759 11.5438 18.8103 11.5438C19.0447 11.5438 19.2768 11.5897 19.4933 11.6788C19.7099 11.7679 19.9066 11.8984 20.0724 12.063C20.2381 12.2277 20.3696 12.4231 20.4593 12.6382C20.549 12.8532 20.5952 13.0838 20.5952 13.3166C20.5952 14.5843 18.9655 15.5984 18.9655 15.5984H18.6591ZM25.807 15.5984C25.807 15.5984 24.1732 14.5843 24.1732 13.3166C24.1732 12.8464 24.3613 12.3955 24.696 12.063C25.0307 11.7306 25.4848 11.5438 25.9581 11.5438C26.4315 11.5438 26.8855 11.7306 27.2203 12.063C27.555 12.3955 27.7431 12.8464 27.7431 13.3166C27.7431 14.5843 26.1134 15.5984 26.1134 15.5984H25.807ZM32.4678 20.1621C32.4678 20.1621 31.0658 19.2747 31.0658 18.1652C31.0658 17.3083 31.752 16.6126 32.5996 16.6126C33.4471 16.6126 34.1292 17.3083 34.1292 18.1652C34.1292 19.2747 32.7303 20.1621 32.7303 20.1621H32.4678Z" stroke="#3D8CEF"/>
</svg>
