<svg width="51" height="47" viewBox="0 0 51 47" fill="none" xmlns="http://www.w3.org/2000/svg">
<rect width="50.0156" height="47" rx="4" fill="#3D8CEF" fill-opacity="0.1"/>
<path d="M39.4023 19.8299H39.0018C38.6117 17.8503 36.6105 14.3649 35.7245 12.8886C36.1399 12.6029 36.4129 12.1245 36.4129 11.5834C36.4129 10.7103 35.7026 10 34.8296 10C33.9565 10 33.2462 10.7103 33.2462 11.5834C33.2462 12.1245 33.5193 12.6029 33.9347 12.8886C33.0488 14.3649 31.0476 17.8503 30.6575 19.8299H30.257C29.927 19.8299 29.6594 20.0975 29.6594 20.4275C29.6594 23.2784 31.9788 25.5978 34.8297 25.5978C37.6806 25.5978 39.9999 23.2784 39.9999 20.4275C39.9999 20.0975 39.7323 19.8299 39.4023 19.8299ZM34.8296 11.1953C35.0436 11.1953 35.2177 11.3694 35.2177 11.5834C35.2177 11.7974 35.0436 11.9714 34.8296 11.9714C34.6156 11.9714 34.4416 11.7974 34.4416 11.5834C34.4416 11.3694 34.6156 11.1953 34.8296 11.1953ZM34.8287 13.7206C35.84 15.4276 37.4017 18.2709 37.7858 19.8299H31.8753C32.238 18.3702 33.6431 15.7132 34.8287 13.7206ZM34.8296 24.4026C32.8409 24.4026 31.1885 22.9345 30.8994 21.0251H38.7599C38.4708 22.9345 36.8185 24.4026 34.8296 24.4026Z" fill="#3D8CEF"/>
<path d="M30.3193 34.1389H28.7393V32.6212C28.7393 32.2911 28.4717 32.0236 28.1417 32.0236H26.624V15.33C27.0149 14.9437 27.2667 14.4169 27.2959 13.8323L29.8228 13.2885C30.1455 13.2191 30.3508 12.9012 30.2813 12.5785C30.2119 12.2559 29.894 12.0508 29.5714 12.12L27.0385 12.6651C26.6586 11.9437 25.9015 11.4504 25.0311 11.4504C23.8256 11.4504 22.8372 12.3959 22.7677 13.5842L16.4489 14.9439C16.1607 14.5496 15.695 14.2929 15.1703 14.2929C14.2973 14.2929 13.5869 15.0032 13.5869 15.8763C13.5869 16.4174 13.86 16.8958 14.2754 17.1815C13.3895 18.6578 11.3883 22.1432 10.9981 24.1228H10.5977C10.2675 24.1228 10 24.3903 10 24.7204C10 27.5713 12.3194 29.8907 15.1703 29.8907C18.0211 29.8907 20.3405 27.5713 20.3405 24.7204C20.3405 24.3903 20.073 24.1228 19.7429 24.1228H19.3425C18.9523 22.1432 16.9511 18.6578 16.0652 17.1815C16.4211 16.9367 16.6722 16.5506 16.737 16.1046L23.0148 14.7537C23.1252 14.9678 23.2684 15.1624 23.4381 15.3302V32.0238H21.9205C21.5904 32.0238 21.3229 32.2913 21.3229 32.6214V34.1391H19.743C19.4129 34.1391 19.1454 34.4066 19.1454 34.7366V36.9762C19.1454 37.3062 19.4129 37.5738 19.743 37.5738H30.3193C30.6493 37.5738 30.9169 37.3062 30.9169 36.9762V34.7365C30.9169 34.4064 30.6493 34.1389 30.3193 34.1389ZM15.1703 15.488C15.3842 15.488 15.5584 15.6622 15.5584 15.8761C15.5584 16.0901 15.3842 16.2642 15.1703 16.2642C14.9563 16.2642 14.7821 16.0901 14.7821 15.8761C14.7821 15.6622 14.9563 15.488 15.1703 15.488ZM15.1703 28.6953C13.1815 28.6953 11.5291 27.2273 11.24 25.3179H19.1005C18.8114 27.2273 17.159 28.6953 15.1703 28.6953ZM18.1264 24.1227H12.216C12.5787 22.663 13.9838 20.0059 15.1694 18.0134C16.1806 19.7203 17.7423 22.5636 18.1264 24.1227ZM25.0311 12.6455C25.6225 12.6455 26.1036 13.1266 26.1036 13.718C26.1036 14.3093 25.6224 14.7904 25.0311 14.7904C24.4398 14.7904 23.9587 14.3093 23.9587 13.718C23.9587 13.1266 24.4397 12.6455 25.0311 12.6455ZM25.4289 15.9501V32.0236H24.6333V15.95C24.7626 15.9731 24.8954 15.9857 25.0312 15.9857C25.167 15.9857 25.2996 15.973 25.4289 15.9501ZM22.518 33.2188H27.5441V34.1389H22.518V33.2188ZM29.7217 36.3785H20.3406V35.3341H29.7217V36.3785Z" fill="#3D8CEF"/>
<path d="M32.5833 12.1201C32.5139 11.7975 32.196 11.5922 31.8733 11.6616L31.4378 11.7553C31.1152 11.8248 30.9099 12.1426 30.9793 12.4653C31.0397 12.7456 31.2875 12.9373 31.563 12.9373C31.6047 12.9373 31.647 12.9329 31.6894 12.9238L32.1248 12.8301C32.4474 12.7607 32.6528 12.4428 32.5833 12.1201Z" fill="#3D8CEF"/>
</svg>
