<svg width="51" height="47" viewBox="0 0 51 47" fill="none" xmlns="http://www.w3.org/2000/svg">
<rect width="50.0156" height="47" rx="4" fill="#3D8CEF" fill-opacity="0.1"/>
<path d="M13.5273 11.6406C11.8164 12.0039 10.9844 13.0703 10.8555 15.1211C10.75 16.6914 11.1133 18.3203 12.1094 20.7812C12.2617 21.1328 12.4492 21.625 12.5547 21.8594C12.9648 22.8789 14.1601 23.5703 15.25 23.4062C15.9531 23.3008 16.7851 22.7148 17.0898 22.1055C17.2656 21.7422 17.4414 21.5664 17.793 21.4258C18.3672 21.1914 19.6562 20.2773 19.8789 19.9609C20.0312 19.7383 20.0664 19.7617 20.3008 20.4297C20.4531 20.8281 20.875 21.7422 21.2617 22.4687C22.3633 24.5781 22.3398 25.1992 21.0039 26.9805C20.5117 27.6484 20.1367 28.293 20.0195 28.6562C19.7734 29.4883 19.7969 30.8945 20.0898 32.3008C20.3125 33.4023 21.4375 37.0117 21.8828 38.0312L22.0703 38.4766H25H27.9297L28.1172 38.0312C28.5625 37.0117 29.6875 33.4023 29.9101 32.3008C30.2148 30.8477 30.2266 29.4648 29.957 28.6211C29.8398 28.2578 29.4297 27.5547 28.9726 26.9453C27.6484 25.1641 27.625 24.6484 28.8555 22.2227C29.3008 21.332 29.7226 20.4062 29.8047 20.1602C29.9453 19.7266 29.957 19.7148 30.1094 19.9492C30.3437 20.2773 31.6328 21.1797 32.207 21.4258C32.5586 21.5664 32.7344 21.7422 32.9101 22.1055C33.2148 22.7148 34.0469 23.3008 34.75 23.4062C35.8867 23.582 37.082 22.8437 37.4922 21.7305C37.5976 21.4375 37.8437 20.8516 38.0195 20.4297C39.1562 17.7695 39.4726 15.2617 38.8867 13.5977C38.4414 12.3437 37.2226 11.5937 35.6055 11.5937C34.6797 11.5937 34.1523 11.8164 32.8164 12.7539C31.668 13.5508 31.1641 13.75 30.2031 13.75C29.3008 13.75 28.7617 13.5977 27.1094 12.8477C26.1836 12.4375 26.043 12.4023 25 12.4023C23.9101 12.4023 23.8516 12.4141 22.4219 13.0469C21.1445 13.5977 20.8398 13.6914 20.043 13.7266C18.9297 13.7852 18.4609 13.6328 17.2539 12.8008C15.6133 11.6641 14.7226 11.3945 13.5273 11.6406ZM15.4258 12.3789C15.6367 12.4727 16.3164 12.8828 16.9375 13.3047C18.9766 14.6758 20.0547 14.7578 22.4805 13.6914C24.7422 12.707 25.2578 12.707 27.5195 13.6914C29.9453 14.7461 31.0234 14.6758 33.0391 13.3164C33.6719 12.8945 34.3516 12.4727 34.5625 12.3906C35.0312 12.1914 36.1328 12.1797 36.7773 12.3555C37.4101 12.5312 38.1719 13.3164 38.3711 13.9844C38.6055 14.8047 38.5469 16.6914 38.2539 17.8164C37.9258 19.0937 37.3047 20.6641 37.1289 20.6641C36.9414 20.6641 36.5195 20.1953 36.3789 19.8086C36.168 19.2695 36.2266 18.7422 36.5664 18.0156C37.1523 16.75 36.918 15.4492 36.0156 14.8281C35.2773 14.3242 34.6914 14.4883 33.3555 15.5781C32.3828 16.375 31.5742 16.7148 30.4961 16.7734L29.6055 16.8203L29.5351 17.957C29.4414 19.457 29.2539 20.0547 28.2461 22.0469C27.4961 23.5352 27.4023 23.8047 27.3672 24.5195C27.3086 25.5039 27.5312 26.0781 28.457 27.2734C29.2305 28.2812 29.4414 28.7852 29.5351 29.7227C29.6641 31.1641 28.8555 34.4805 27.6367 37.5742C27.5664 37.7266 27.4141 37.7734 26.9101 37.7734H26.2539L26.3359 37.1523C26.3828 36.8242 26.6055 35.0547 26.8164 33.2383C27.2383 29.6875 27.2383 29.4883 26.7109 28.8555L26.4062 28.4922V25.082C26.4062 21.6016 26.5351 19.2461 26.7695 18.0859C26.957 17.1836 27.4258 16.2227 27.7656 16.0703C27.918 16 28.0469 15.9062 28.0469 15.8594C28.0469 15.6836 26.0664 15.3437 25 15.3437C23.9336 15.3437 21.9531 15.6836 21.9531 15.8594C21.9531 15.9062 22.082 16 22.2344 16.0703C22.5625 16.2109 22.9258 16.9375 23.1719 17.9102C23.4531 18.9883 23.5937 21.4492 23.5937 25.1055V28.4336L23.2891 28.832C23.125 29.0547 22.9375 29.3828 22.8906 29.582C22.7969 29.8867 23.1484 33.332 23.6641 37.1641L23.7461 37.7734H23.0898H22.4453L22.0703 36.8008C21.0625 34.1875 20.3359 30.9414 20.4766 29.6758C20.5703 28.7617 20.7812 28.2695 21.543 27.2734C22.4687 26.0781 22.6914 25.5039 22.6328 24.5195C22.5976 23.8047 22.5039 23.5352 21.7539 22.0469C20.7461 20.0547 20.5586 19.457 20.4648 17.957L20.3945 16.8203L19.5039 16.7734C18.4258 16.7148 17.6172 16.375 16.6445 15.5781C15.3086 14.4883 14.7226 14.3242 13.9844 14.8281C13.082 15.4492 12.8476 16.75 13.4336 18.0156C13.7734 18.7422 13.832 19.2695 13.6211 19.8086C13.4805 20.1953 13.0586 20.6641 12.8711 20.6641C12.6953 20.6641 12.0742 19.1055 11.7461 17.8164C11.4531 16.7031 11.3945 14.8164 11.6289 13.9961C11.8164 13.3516 12.4961 12.6133 13.1055 12.4023C13.7031 12.1914 14.9336 12.1797 15.4258 12.3789ZM15.4609 15.4609C15.707 15.6367 16.1289 15.9531 16.3867 16.1758C17.1016 16.7852 18.168 17.2656 19.0234 17.3594L19.7851 17.4414L19.8203 17.9453C19.8437 18.2969 19.7851 18.5664 19.6211 18.8359C19.293 19.3633 18.4492 20.125 17.8633 20.418L17.3828 20.6641V20.4297C17.3828 20.0547 16.9609 19.3164 16.5391 18.9648C16 18.5078 15.4961 18.3203 14.8281 18.3203C14.2773 18.3203 14.2656 18.3086 14.0078 17.793C13.832 17.4414 13.75 17.043 13.75 16.6094C13.75 16.0234 13.7851 15.918 14.1484 15.5547C14.6289 15.0742 14.8633 15.0625 15.4609 15.4609ZM35.8516 15.5547C36.2148 15.918 36.25 16.0234 36.25 16.6094C36.25 17.043 36.168 17.4414 35.9922 17.793C35.7344 18.3086 35.7226 18.3203 35.1719 18.3203C34.5039 18.3203 34 18.5078 33.4609 18.9648C33.0391 19.3164 32.6172 20.0547 32.6172 20.4297V20.6641L32.1367 20.418C31.5508 20.125 30.707 19.3633 30.3789 18.8359C30.2148 18.5664 30.1562 18.2969 30.1797 17.9453L30.2148 17.4414L30.9766 17.3594C31.832 17.2656 32.8984 16.7852 33.6133 16.1758C34.3398 15.5547 34.9726 15.1562 35.2187 15.1562C35.3476 15.1562 35.6289 15.332 35.8516 15.5547ZM26.7109 16.1289C26.7578 16.1641 26.6875 16.457 26.5469 16.7617C25.9844 18.0742 25.9141 18.8125 25.8555 23.5937L25.7969 28.1055H25H24.2031L24.1445 23.5937C24.0859 18.8359 24.0039 18.0508 23.4648 16.8086C23.1719 16.1523 23.1836 16.1172 23.5703 16.0586C24.0273 15.9766 26.6172 16.0352 26.7109 16.1289ZM15.9414 19.2695C16.5039 19.6211 16.832 20.3242 16.7617 21.0508C16.668 22.0586 15.8945 22.7734 14.8984 22.7734C14.2187 22.7734 13.7734 22.5742 13.3516 22.0703C12.9531 21.5898 12.9648 21.3555 13.3984 21.1094C13.7734 20.8984 14.3359 19.8789 14.3359 19.4219C14.3359 19.293 14.4062 19.1172 14.4883 19.0352C14.6758 18.8359 15.4375 18.9648 15.9414 19.2695ZM35.5234 19.0469C35.6055 19.1289 35.6641 19.293 35.6641 19.4219C35.6641 19.8789 36.2266 20.8984 36.6016 21.1094C37.0351 21.3555 37.0351 21.5195 36.6484 22.0352C36.25 22.5508 35.793 22.7734 35.1016 22.7734C33.6953 22.7734 32.7695 21.2617 33.4141 19.9961C33.8242 19.1875 35.1016 18.625 35.5234 19.0469ZM26.1836 29.1953C26.4648 29.5 26.5234 29.6875 26.5234 30.1445C26.5234 31.1172 26.5586 31.0937 25 31.0937C23.4414 31.0937 23.4766 31.1172 23.4766 30.168C23.4766 29.7695 23.5469 29.5117 23.7226 29.2891C24.0742 28.8437 24.3555 28.75 25.1641 28.7852C25.7734 28.8203 25.8906 28.8672 26.1836 29.1953ZM26.3594 31.9375C26.3242 32.0898 26.2656 32.4531 26.2305 32.7578L26.1601 33.3203H25H23.8398L23.7695 32.7578C23.7344 32.4531 23.6758 32.0898 23.6406 31.9375C23.5937 31.6797 23.5937 31.6797 25 31.6797C26.4062 31.6797 26.4062 31.6797 26.3594 31.9375ZM26.0547 34.1055C26.0547 34.2227 26.0195 34.5977 25.9844 34.9258L25.9023 35.5469H25H24.0976L24.0156 34.9258C23.8867 33.8242 23.8164 33.9062 25 33.9062C25.9258 33.9062 26.0547 33.9297 26.0547 34.1055ZM25.7617 36.8594C25.6445 37.7852 25.6562 37.7734 25 37.7734C24.3437 37.7734 24.3555 37.7852 24.2383 36.8594L24.168 36.25H25H25.832L25.7617 36.8594Z" fill="#3D8CEF" stroke="#3D8CEF" stroke-width="0.3"/>
</svg>
