<svg width="51" height="47" viewBox="0 0 51 47" fill="none" xmlns="http://www.w3.org/2000/svg">
<rect width="50.0156" height="47" rx="4" fill="#3D8CEF" fill-opacity="0.1"/>
<path d="M33.788 23.3275C33.6521 20.9692 32.8066 18.965 31.2513 17.315C29.696 15.6658 27.8073 14.7692 25.5852 14.625V13.375C26.8616 13.4392 28.0563 13.74 29.1694 14.2775C30.2816 14.815 31.2572 15.5292 32.0961 16.42C32.9358 17.31 33.6089 18.345 34.1156 19.525C34.6222 20.7058 34.9058 21.9733 34.9662 23.3275H33.788ZM29.0751 23.3275C28.9392 22.3658 28.5504 21.5404 27.9087 20.8512C27.2662 20.1621 26.4917 19.7533 25.5852 19.625V18.375C26.8224 18.5033 27.8757 19.0325 28.7452 19.9625C29.6147 20.8933 30.1175 22.015 30.2533 23.3275H29.0751ZM33.6148 34C31.6275 34 29.5912 33.4725 27.5057 32.4175C25.4195 31.3617 23.4778 29.8804 21.6806 27.9737C19.8975 26.0662 18.5088 24.01 17.5144 21.805C16.5207 19.6 16.0239 17.4442 16.0239 15.3375C16.0239 14.9625 16.1417 14.6458 16.3774 14.3875C16.613 14.1292 16.9076 14 17.2611 14H20.1748C20.4953 14 20.7749 14.1071 21.0137 14.3212C21.2525 14.5354 21.4139 14.8096 21.498 15.1437L22.0824 18.125C22.1373 18.475 22.1275 18.7804 22.0529 19.0412C21.9791 19.3021 21.8487 19.5158 21.6617 19.6825L19.0755 22.24C19.5594 23.1717 20.0939 24.0367 20.6791 24.835C21.2643 25.6342 21.8887 26.3912 22.5525 27.1062C23.2358 27.8312 23.9718 28.5062 24.7605 29.1312C25.5491 29.7554 26.4147 30.3446 27.3573 30.8987L29.8775 28.1775C30.0691 27.9583 30.2848 27.8137 30.5243 27.7437C30.7639 27.6746 31.0286 27.6608 31.3185 27.7025L33.7974 28.24C34.1171 28.3233 34.3767 28.4942 34.5763 28.7525C34.7758 29.0117 34.8755 29.3087 34.8755 29.6437V32.6875C34.8755 33.0625 34.7538 33.375 34.5103 33.625C34.2668 33.875 33.9683 34 33.6148 34ZM18.5241 21.0675L20.7863 18.86C20.8617 18.7967 20.9104 18.7088 20.9324 18.5963C20.956 18.4838 20.952 18.3796 20.9206 18.2838L20.3987 15.6338C20.368 15.5063 20.315 15.4104 20.2396 15.3463C20.1642 15.2821 20.0656 15.25 19.9439 15.25H17.5262C17.4358 15.25 17.3604 15.2821 17.2999 15.3463C17.2395 15.4104 17.2092 15.4904 17.2092 15.5863C17.232 16.4404 17.3577 17.3321 17.5863 18.2612C17.8164 19.1912 18.1286 20.1267 18.5229 21.0675M28.4789 31.485C29.2754 31.9033 30.1237 32.2129 31.0239 32.4138C31.9256 32.6138 32.7111 32.7208 33.3804 32.735C33.4707 32.735 33.5461 32.7033 33.6066 32.64C33.6671 32.5758 33.6973 32.4954 33.6973 32.3987V29.89C33.6973 29.7617 33.6671 29.6575 33.6066 29.5775C33.5461 29.4967 33.4558 29.4404 33.3356 29.4087L31.1559 28.935C31.0647 28.9033 30.985 28.8992 30.9167 28.9225C30.8491 28.9475 30.7777 28.9996 30.7022 29.0787L28.4789 31.485Z" fill="#3D8CEF"/>
</svg>
