<svg width="51" height="47" viewBox="0 0 51 47" fill="none" xmlns="http://www.w3.org/2000/svg">
<rect width="50.0156" height="47" rx="4" fill="#3D8CEF" fill-opacity="0.1"/>
<path d="M25.3424 23.4998C24.1742 23.4998 23.1735 23.0833 22.3405 22.2503C21.5075 21.4173 21.0915 20.4172 21.0924 19.2498C21.0924 18.0806 21.5085 17.0795 22.3405 16.2465C23.1726 15.4154 24.1732 14.9998 25.3424 14.9998C26.5117 14.9998 27.5123 15.4154 28.3444 16.2465C29.1764 17.0795 29.5924 18.0806 29.5924 19.2498C29.5924 20.4181 29.1764 21.4183 28.3444 22.2503C27.5123 23.0824 26.5117 23.4989 25.3424 23.4998ZM15.4258 33.7423V31.4119C15.4258 30.8273 15.5958 30.2805 15.9358 29.7714C16.2767 29.2614 16.7348 28.8657 17.3099 28.5842C18.6473 27.943 19.9851 27.4622 21.3234 27.1421C22.6626 26.821 24.0023 26.6604 25.3424 26.6604C26.6836 26.6604 28.0233 26.821 29.3615 27.1421C30.6998 27.4632 32.0371 27.9439 33.3735 28.5842C33.9496 28.8657 34.4077 29.2614 34.7477 29.7714C35.0886 30.2805 35.2591 30.8273 35.2591 31.4119V33.7437L15.4258 33.7423ZM16.8424 32.3257H33.8425V31.4105C33.8425 31.0969 33.7414 30.8018 33.5393 30.5251C33.3362 30.2493 33.0557 30.016 32.6978 29.8252C31.5323 29.2605 30.3301 28.8279 29.0909 28.5276C27.8537 28.2263 26.6042 28.0757 25.3424 28.0757C24.0816 28.0757 22.8321 28.2263 21.5939 28.5276C20.3548 28.8279 19.1526 29.2605 17.9871 29.8252C17.6282 30.016 17.3477 30.2493 17.1456 30.5251C16.9435 30.8018 16.8424 31.0974 16.8424 31.4119V32.3257ZM25.3424 22.0832C26.1216 22.0832 26.7889 21.8055 27.3442 21.2502C27.8995 20.6948 28.1767 20.028 28.1758 19.2498C28.1758 18.4707 27.8986 17.8034 27.3442 17.2481C26.7898 16.6927 26.1226 16.4155 25.3424 16.4165C24.5633 16.4165 23.8965 16.6937 23.3421 17.2481C22.7877 17.8025 22.5101 18.4697 22.5091 19.2498C22.5091 20.029 22.7868 20.6958 23.3421 21.2502C23.8974 21.8045 24.5642 22.0822 25.3424 22.0832Z" fill="#3D8CEF"/>
</svg>
