<svg width="19" height="24" viewBox="0 0 19 24" fill="none" xmlns="http://www.w3.org/2000/svg">
<path d="M18.8515 12.5306C18.8515 12.6747 18.8046 12.8128 18.7211 12.9147C18.6376 13.0165 18.5243 13.0737 18.4062 13.0737H14.8437C14.7256 13.0737 14.6123 13.0165 14.5288 12.9147C14.4453 12.8128 14.3984 12.6747 14.3984 12.5306C14.3984 12.3866 14.4453 12.2484 14.5288 12.1466C14.6123 12.0447 14.7256 11.9875 14.8437 11.9875H18.4062C18.5243 11.9875 18.6376 12.0447 18.7211 12.1466C18.8046 12.2484 18.8515 12.3866 18.8515 12.5306ZM14.5906 17.9745C14.6303 18.0287 14.6607 18.0921 14.68 18.1609C14.6992 18.2297 14.707 18.3025 14.7027 18.375C14.6985 18.4475 14.6824 18.5183 14.6553 18.583C14.6282 18.6478 14.5908 18.7053 14.5452 18.7521C14.4995 18.7989 14.4467 18.834 14.3897 18.8554C14.3328 18.8768 14.2729 18.8841 14.2136 18.8767C14.1543 18.8694 14.0968 18.8476 14.0445 18.8127C13.9923 18.7777 13.9463 18.7304 13.9093 18.6734C12.3871 16.4637 10.2934 15.2462 8.01559 15.2462C5.73781 15.2462 3.64484 16.4637 2.12188 18.6734C2.04473 18.7787 1.93698 18.8432 1.82147 18.8532C1.70597 18.8633 1.59181 18.8181 1.50318 18.7272C1.41456 18.6363 1.35845 18.5068 1.34676 18.3663C1.33507 18.2258 1.36871 18.0853 1.44055 17.9745C2.60801 16.2791 4.08199 15.1086 5.71481 14.5456C4.75001 13.9195 3.98457 12.918 3.54026 11.7002C3.09595 10.4824 2.99829 9.11844 3.2628 7.82518C3.52732 6.53192 4.13883 5.38369 5.00005 4.56314C5.86127 3.7426 6.92274 3.29687 8.01559 3.29688C9.10844 3.29687 10.1699 3.7426 11.0311 4.56314C11.8923 5.38369 12.5038 6.53192 12.7684 7.82518C13.0329 9.11844 12.9352 10.4824 12.4909 11.7002C12.0466 12.918 11.2812 13.9195 10.3164 14.5456C11.9492 15.1086 13.4232 16.2791 14.5906 17.9745ZM8.01559 14.16C8.80826 14.16 9.58313 13.8733 10.2422 13.3362C10.9013 12.7991 11.415 12.0357 11.7183 11.1425C12.0217 10.2493 12.101 9.26643 11.9464 8.31823C11.7917 7.37002 11.41 6.49904 10.8495 5.81543C10.289 5.13181 9.57491 4.66626 8.79747 4.47765C8.02003 4.28904 7.2142 4.38584 6.48186 4.75581C5.74953 5.12578 5.1236 5.75231 4.68321 6.55616C4.24283 7.36 4.00777 8.30507 4.00777 9.27186C4.00895 10.5678 4.43158 11.8103 5.18294 12.7267C5.93429 13.6431 6.95301 14.1585 8.01559 14.16Z" fill="#6C87AE"/>
</svg>
