<svg width="23" height="22" viewBox="0 0 23 22" fill="none" xmlns="http://www.w3.org/2000/svg">
<path fill-rule="evenodd" clip-rule="evenodd" d="M19.0659 15.4285V4.85006C19.0659 4.28895 18.8427 3.75081 18.4452 3.35404C18.0477 2.95728 17.5086 2.73438 16.9465 2.73438H8.4688C7.90669 2.73438 7.3676 2.95728 6.97013 3.35404C6.57266 3.75081 6.34937 4.28895 6.34937 4.85006V15.4285C6.34937 15.9896 6.57266 16.5277 6.97013 16.9245C7.3676 17.3213 7.90669 17.5442 8.4688 17.5442H16.9465C17.5086 17.5442 18.0477 17.3213 18.4452 16.9245C18.8427 16.5277 19.0659 15.9896 19.0659 15.4285Z" stroke="#6C87AE" stroke-linecap="round" stroke-linejoin="round"/>
<path d="M6.14274 5.31067L4.01908 6.08289C3.49104 6.27488 3.06101 6.66835 2.82353 7.17678C2.58606 7.68521 2.56059 8.26697 2.75272 8.79415L6.37694 18.7347C6.47217 18.9958 6.61799 19.2356 6.80609 19.4405C6.99418 19.6454 7.22086 19.8112 7.47317 19.9286C7.72549 20.046 7.9985 20.1126 8.27661 20.1247C8.55473 20.1367 8.83249 20.0939 9.09405 19.9988L14.9945 17.6737M9.52853 8.02404H14.8271M9.52853 10.1397H15.8868M9.52853 12.2554H12.7077" stroke="#6C87AE" stroke-linecap="round" stroke-linejoin="round"/>
</svg>
