        <svg
            width="22"
            height="22"
            viewBox="0 0 22 22"
            fill="none"
            xmlns="http://www.w3.org/2000/svg"
          >
            <path
              d="M13.5 8.64648L8.5 13.6465M8.5 8.64648L13.5 13.6465M21 11.1465C21 15.8605 21 18.2175 19.535 19.6815C18.072 21.1465 15.714 21.1465 11 21.1465C6.286 21.1465 3.929 21.1465 2.464 19.6815C1 18.2185 1 15.8605 1 11.1465C1 6.43248 1 4.07548 2.464 2.61048C3.93 1.14648 6.286 1.14648 11 1.14648C15.714 1.14648 18.071 1.14648 19.535 2.61048C20.509 3.58448 20.835 4.95348 20.945 7.14648"
              stroke="#3D8CEF"
              stroke-width="1.25"
              stroke-linecap="round"
            />
          </svg>
