<svg width="20" height="26" viewBox="0 0 20 26" fill="none" xmlns="http://www.w3.org/2000/svg">
<path d="M7.19143 13.256C7.04263 13.256 6.91794 13.2149 6.81734 13.1328C6.71745 13.0502 6.6675 12.9477 6.6675 12.8254C6.6675 12.7031 6.71745 12.6007 6.81734 12.518C6.91794 12.4359 7.04263 12.3949 7.19143 12.3949H13.4786C13.6274 12.3949 13.7521 12.4359 13.8527 12.518C13.9526 12.6007 14.0025 12.7031 14.0025 12.8254C14.0025 12.9477 13.9526 13.0502 13.8527 13.1328C13.7521 13.2149 13.6274 13.256 13.4786 13.256H7.19143ZM7.19143 9.81152C7.04263 9.81152 6.91794 9.77048 6.81734 9.68838C6.71745 9.60572 6.6675 9.50325 6.6675 9.38097C6.6675 9.25869 6.71745 9.15622 6.81734 9.07355C6.91794 8.99146 7.04263 8.95041 7.19143 8.95041H13.4786C13.6274 8.95041 13.7521 8.99146 13.8527 9.07355C13.9526 9.15622 14.0025 9.25869 14.0025 9.38097C14.0025 9.50325 13.9526 9.60572 13.8527 9.68838C13.7521 9.77048 13.6274 9.81152 13.4786 9.81152H7.19143ZM4.04786 15.8393H11.9068C12.3329 15.8393 12.7241 15.9151 13.0804 16.0666C13.436 16.2188 13.7419 16.4323 13.9983 16.7073L16.6221 19.5059V7.32722C16.6221 7.17279 16.5617 7.04592 16.4409 6.94661C16.32 6.84729 16.1656 6.79763 15.9777 6.79763H4.69229C4.50437 6.79763 4.34999 6.84729 4.22914 6.94661C4.10828 7.04592 4.04786 7.17279 4.04786 7.32722V15.8393ZM4.69229 20.5754H16.2921L13.1747 17.2317C13.0161 17.0618 12.8289 16.9309 12.613 16.8391C12.3972 16.7466 12.1618 16.7004 11.9068 16.7004H4.04786V20.0458C4.04786 20.2003 4.10828 20.3271 4.22914 20.4264C4.34999 20.5258 4.50437 20.5754 4.69229 20.5754ZM15.9777 21.4365H4.69229C4.21027 21.4365 3.8079 21.3039 3.48516 21.0387C3.16172 20.7729 3 20.4419 3 20.0458V7.32722C3 6.93111 3.16172 6.60044 3.48516 6.33522C3.8079 6.06942 4.21027 5.93652 4.69229 5.93652H15.9777C16.4597 5.93652 16.8621 6.06942 17.1848 6.33522C17.5083 6.60044 17.67 6.93111 17.67 7.32722V20.0458C17.67 20.4419 17.5086 20.7726 17.1859 21.0378C16.8625 21.3036 16.4597 21.4365 15.9777 21.4365Z" fill="#6C87AE"/>
</svg>
