<svg width="20" height="26" viewBox="0 0 20 26" fill="none" xmlns="http://www.w3.org/2000/svg">
<path fill-rule="evenodd" clip-rule="evenodd" d="M17.7796 17.8081V5.40292C17.7796 4.7449 17.5652 4.11384 17.1837 3.64855C16.8023 3.18327 16.2848 2.92188 15.7453 2.92188H7.60844C7.06893 2.92188 6.55152 3.18327 6.17003 3.64855C5.78854 4.11384 5.57422 4.7449 5.57422 5.40292V17.8081C5.57422 18.4661 5.78854 19.0972 6.17003 19.5625C6.55152 20.0278 7.06893 20.2892 7.60844 20.2892H15.7453C16.2848 20.2892 16.8023 20.0278 17.1837 19.5625C17.5652 19.0972 17.7796 18.4661 17.7796 17.8081Z" stroke="#6C87AE" stroke-width="1.2" stroke-linecap="round" stroke-linejoin="round"/>
<path d="M5.37632 5.94257L3.33803 6.84815C2.83122 7.07329 2.41848 7.53471 2.19055 8.13093C1.96262 8.72716 1.93817 9.40939 2.12258 10.0276L5.6011 21.6848C5.6925 21.991 5.83246 22.2722 6.013 22.5125C6.19353 22.7527 6.41109 22.9472 6.65327 23.0848C6.89544 23.2225 7.15747 23.3006 7.42441 23.3148C7.69134 23.3289 7.95794 23.2787 8.20898 23.1672L13.8723 20.4405M8.62599 9.1245H13.7116M8.62599 11.6055H14.7287M8.62599 14.0866H11.6773" stroke="#6C87AE" stroke-width="1.2" stroke-linecap="round" stroke-linejoin="round"/>
</svg>
