<svg width="20" height="25" viewBox="0 0 20 25" fill="none" xmlns="http://www.w3.org/2000/svg">
<path d="M16.2493 6.30205H13.3327V5.28568C13.332 4.74681 13.1562 4.23024 12.8438 3.8492C12.5314 3.46816 12.1078 3.25374 11.666 3.25293H8.33268C7.89086 3.25374 7.46732 3.46816 7.1549 3.8492C6.84248 4.23024 6.66668 4.74681 6.66602 5.28568V6.30205H3.74935C3.19695 6.30259 2.6673 6.57047 2.2767 7.04687C1.88609 7.52327 1.66646 8.16926 1.66602 8.84299V19.0067C1.66646 19.6805 1.88609 20.3265 2.2767 20.8029C2.6673 21.2793 3.19695 21.5471 3.74935 21.5477H16.2493C16.8017 21.5471 17.3314 21.2793 17.722 20.8029C18.1126 20.3265 18.3322 19.6805 18.3327 19.0067V8.84299C18.3322 8.16926 18.1126 7.52327 17.722 7.04687C17.3314 6.57047 16.8017 6.30259 16.2493 6.30205ZM7.49935 5.28568C7.49935 5.01612 7.58715 4.7576 7.74343 4.56699C7.89971 4.37639 8.11167 4.2693 8.33268 4.2693H11.666C11.887 4.2693 12.099 4.37639 12.2553 4.56699C12.4116 4.7576 12.4993 5.01612 12.4993 5.28568V6.30205H7.49935V5.28568ZM17.4993 19.0067C17.4993 19.4111 17.3677 19.7989 17.1332 20.0848C16.8988 20.3707 16.5809 20.5313 16.2493 20.5313H3.74935C3.41783 20.5313 3.09989 20.3707 2.86547 20.0848C2.63105 19.7989 2.49935 19.4111 2.49935 19.0067V12.4277L7.36768 14.4076C7.4102 14.4245 7.45464 14.4331 7.49935 14.4331H12.4993C12.5441 14.4331 12.5885 14.4245 12.631 14.4076L17.4993 12.4277V19.0067ZM17.4993 11.39C17.4548 11.388 17.4104 11.3949 17.3677 11.4104L12.4318 13.4167H7.56685L2.63102 11.4093C2.58833 11.3938 2.54385 11.387 2.49935 11.389V8.84299C2.49935 8.43865 2.63105 8.05087 2.86547 7.76496C3.09989 7.47905 3.41783 7.31843 3.74935 7.31843H16.2493C16.5809 7.31843 16.8988 7.47905 17.1332 7.76496C17.3677 8.05087 17.4993 8.43865 17.4993 8.84299V11.39Z" fill="#6C87AE"/>
</svg>
