<svg width="20" height="26" viewBox="0 0 20 26" fill="none" xmlns="http://www.w3.org/2000/svg">
<path d="M1.66732 17.7686L4.65898 14.1198H12.5007C12.9427 14.1198 13.3666 13.9056 13.6792 13.5244C13.9917 13.1432 14.1673 12.6262 14.1673 12.0871V7.00518C14.1673 6.46606 13.9917 5.94902 13.6792 5.56781C13.3666 5.18659 12.9427 4.97243 12.5007 4.97243H3.33398C2.89196 4.97243 2.46803 5.18659 2.15547 5.56781C1.84291 5.94902 1.66732 6.46606 1.66732 7.00518V17.7686ZM1.66732 19.2017H0.833984V7.00518C0.833984 6.1965 1.09738 5.42095 1.56622 4.84912C2.03506 4.2773 2.67094 3.95605 3.33398 3.95605H12.5007C13.1637 3.95605 13.7996 4.2773 14.2684 4.84912C14.7373 5.42095 15.0007 6.1965 15.0007 7.00518V12.0871C15.0007 12.8957 14.7373 13.6713 14.2684 14.2431C13.7996 14.8149 13.1637 15.1362 12.5007 15.1362H5.00065L1.66732 19.2017ZM17.5007 21.8341V11.0707C17.5007 10.5316 17.3251 10.0145 17.0125 9.63331C16.6999 9.2521 16.276 9.03793 15.834 9.03793V8.02156C16.497 8.02156 17.1329 8.3428 17.6018 8.91462C18.0706 9.48645 18.334 10.262 18.334 11.0707V23.2672H17.5007L14.1673 19.2017H6.66732C5.63398 19.2017 4.75065 18.4394 4.36732 17.3519L5.03398 16.5388C5.17565 17.4738 5.83398 18.1853 6.66732 18.1853H14.509L17.5007 21.8341Z" fill="#6C87AE"/>
</svg>
