<svg width="23" height="24" viewBox="0 0 23 24" fill="none" xmlns="http://www.w3.org/2000/svg">
<path d="M21.5625 19.6879H19.9453V9.00042C19.9453 8.65233 19.8128 8.31849 19.5769 8.07235C19.341 7.8262 19.0211 7.68792 18.6875 7.68792H12.7578V3.00042C12.7577 2.76287 12.6958 2.52979 12.5788 2.32605C12.4617 2.12231 12.2938 1.95555 12.0931 1.84354C11.8923 1.73153 11.6662 1.67847 11.4388 1.69003C11.2114 1.70159 10.9913 1.77733 10.8019 1.90917L3.61441 6.90886C3.44217 7.02877 3.30097 7.1912 3.20332 7.38173C3.10568 7.57226 3.05463 7.78499 3.05469 8.00105V19.6879H1.4375C1.29453 19.6879 1.15742 19.7472 1.05633 19.8527C0.955231 19.9582 0.898438 20.1012 0.898438 20.2504C0.898438 20.3996 0.955231 20.5427 1.05633 20.6482C1.15742 20.7537 1.29453 20.8129 1.4375 20.8129H21.5625C21.7055 20.8129 21.8426 20.7537 21.9437 20.6482C22.0448 20.5427 22.1016 20.3996 22.1016 20.2504C22.1016 20.1012 22.0448 19.9582 21.9437 19.8527C21.8426 19.7472 21.7055 19.6879 21.5625 19.6879ZM18.6875 8.81292C18.7352 8.81292 18.7809 8.83268 18.8146 8.86784C18.8483 8.903 18.8672 8.95069 18.8672 9.00042V19.6879H12.7578V8.81292H18.6875ZM4.13281 8.00105C4.13287 7.97025 4.14019 7.93994 4.15414 7.9128C4.16808 7.88566 4.18822 7.86252 4.21277 7.84542L11.4003 2.8448C11.4273 2.82598 11.4587 2.81516 11.4912 2.8135C11.5237 2.81183 11.5559 2.81939 11.5846 2.83536C11.6133 2.85133 11.6373 2.87511 11.654 2.90418C11.6708 2.93325 11.6796 2.96651 11.6797 3.00042V19.6879H4.13281V8.00105ZM9.88281 10.5004V12.0004C9.88281 12.1496 9.82602 12.2927 9.72492 12.3982C9.62383 12.5037 9.48672 12.5629 9.34375 12.5629C9.20078 12.5629 9.06367 12.5037 8.96258 12.3982C8.86148 12.2927 8.80469 12.1496 8.80469 12.0004V10.5004C8.80469 10.3512 8.86148 10.2082 8.96258 10.1027C9.06367 9.99719 9.20078 9.93792 9.34375 9.93792C9.48672 9.93792 9.62383 9.99719 9.72492 10.1027C9.82602 10.2082 9.88281 10.3512 9.88281 10.5004ZM7.00781 10.5004V12.0004C7.00781 12.1496 6.95102 12.2927 6.84992 12.3982C6.74883 12.5037 6.61172 12.5629 6.46875 12.5629C6.32578 12.5629 6.18867 12.5037 6.08758 12.3982C5.98648 12.2927 5.92969 12.1496 5.92969 12.0004V10.5004C5.92969 10.3512 5.98648 10.2082 6.08758 10.1027C6.18867 9.99719 6.32578 9.93792 6.46875 9.93792C6.61172 9.93792 6.74883 9.99719 6.84992 10.1027C6.95102 10.2082 7.00781 10.3512 7.00781 10.5004ZM7.00781 15.7504V17.2504C7.00781 17.3996 6.95102 17.5427 6.84992 17.6482C6.74883 17.7537 6.61172 17.8129 6.46875 17.8129C6.32578 17.8129 6.18867 17.7537 6.08758 17.6482C5.98648 17.5427 5.92969 17.3996 5.92969 17.2504V15.7504C5.92969 15.6012 5.98648 15.4582 6.08758 15.3527C6.18867 15.2472 6.32578 15.1879 6.46875 15.1879C6.61172 15.1879 6.74883 15.2472 6.84992 15.3527C6.95102 15.4582 7.00781 15.6012 7.00781 15.7504ZM9.88281 15.7504V17.2504C9.88281 17.3996 9.82602 17.5427 9.72492 17.6482C9.62383 17.7537 9.48672 17.8129 9.34375 17.8129C9.20078 17.8129 9.06367 17.7537 8.96258 17.6482C8.86148 17.5427 8.80469 17.3996 8.80469 17.2504V15.7504C8.80469 15.6012 8.86148 15.4582 8.96258 15.3527C9.06367 15.2472 9.20078 15.1879 9.34375 15.1879C9.48672 15.1879 9.62383 15.2472 9.72492 15.3527C9.82602 15.4582 9.88281 15.6012 9.88281 15.7504Z" fill="#333333"/>
</svg>
