<svg width="20" height="26" viewBox="0 0 20 26" fill="none" xmlns="http://www.w3.org/2000/svg">
<path d="M2.23055 12.2191C2.33627 12.3044 2.46915 12.341 2.59997 12.3209C2.73078 12.3008 2.84882 12.2257 2.9281 12.112C3.3458 11.513 3.88743 11.0269 4.51009 10.6921C5.13276 10.3573 5.81936 10.183 6.51552 10.183C7.21168 10.183 7.89828 10.3573 8.52095 10.6921C9.14361 11.0269 9.68524 11.513 10.1029 12.112C10.1823 12.2255 10.3004 12.3005 10.4313 12.3204C10.5621 12.3404 10.6949 12.3036 10.8005 12.2183C10.8382 12.1884 10.8715 12.1526 10.8993 12.112C11.317 11.513 11.8586 11.0269 12.4813 10.6921C13.104 10.3573 13.7906 10.183 14.4867 10.183C15.1829 10.183 15.8695 10.3573 16.4922 10.6921C17.1148 11.0269 17.6564 11.513 18.0741 12.112C18.1535 12.2257 18.2717 12.3008 18.4026 12.3208C18.5335 12.3408 18.6664 12.3041 18.7721 12.2187C18.8778 12.1333 18.9477 12.0063 18.9663 11.8655C18.9849 11.7247 18.9507 11.5818 18.8713 11.4681C18.2441 10.5646 17.3881 9.87441 16.4058 9.48013C16.9294 9.04876 17.3141 8.45182 17.5059 7.77318C17.6977 7.09454 17.687 6.36833 17.4752 5.69658C17.2635 5.02484 16.8613 4.44134 16.3253 4.02808C15.7892 3.61482 15.1463 3.39258 14.4867 3.39258C13.8272 3.39258 13.1842 3.61482 12.6482 4.02808C12.1121 4.44134 11.71 5.02484 11.4982 5.69658C11.2864 6.36833 11.2757 7.09454 11.4675 7.77318C11.6593 8.45182 12.0441 9.04876 12.5676 9.48013C11.7818 9.79501 11.0746 10.3015 10.5015 10.9599C9.92823 10.3014 9.22072 9.79489 8.43462 9.48013C8.95818 9.04876 9.3429 8.45182 9.53472 7.77318C9.72653 7.09454 9.7158 6.36833 9.50404 5.69658C9.29227 5.02484 8.89011 4.44134 8.35407 4.02808C7.81804 3.61482 7.17507 3.39258 6.51552 3.39258C5.85597 3.39258 5.213 3.61482 4.67697 4.02808C4.14093 4.44134 3.73877 5.02484 3.527 5.69658C3.31524 6.36833 3.30451 7.09454 3.49633 7.77318C3.68814 8.45182 4.07286 9.04876 4.59642 9.48013C3.6139 9.87443 2.75789 10.5649 2.1309 11.469C2.09164 11.5253 2.06308 11.5893 2.04684 11.6575C2.0306 11.7257 2.027 11.7966 2.03626 11.8663C2.04551 11.9359 2.06743 12.0029 2.10077 12.0635C2.13411 12.124 2.17821 12.1769 2.23055 12.2191ZM14.4876 4.46738C14.9146 4.46738 15.332 4.60356 15.6871 4.8587C16.0421 5.11384 16.3189 5.47648 16.4823 5.90076C16.6457 6.32504 16.6885 6.79191 16.6052 7.24233C16.5219 7.69274 16.3162 8.10648 16.0143 8.43121C15.7123 8.75594 15.3276 8.97709 14.9088 9.06668C14.49 9.15627 14.0558 9.11029 13.6613 8.93455C13.2668 8.7588 12.9296 8.46119 12.6923 8.07935C12.4551 7.6975 12.3285 7.24858 12.3285 6.78934C12.3285 6.17351 12.5559 5.58292 12.9608 5.14746C13.3658 4.71201 13.9149 4.46738 14.4876 4.46738ZM6.51552 4.46738C6.94255 4.46738 7.35999 4.60356 7.71505 4.8587C8.07011 5.11384 8.34685 5.47648 8.51026 5.90076C8.67368 6.32504 8.71644 6.79191 8.63313 7.24233C8.54982 7.69274 8.34418 8.10648 8.04223 8.43121C7.74028 8.75594 7.35556 8.97709 6.93674 9.06668C6.51792 9.15627 6.08379 9.11029 5.68927 8.93455C5.29475 8.7588 4.95754 8.46119 4.7203 8.07935C4.48306 7.6975 4.35643 7.24858 4.35643 6.78934C4.35643 6.17351 4.5839 5.58292 4.98881 5.14746C5.39372 4.71201 5.94289 4.46738 6.51552 4.46738ZM16.4067 18.768C16.9302 18.3366 17.3149 17.7397 17.5068 17.061C17.6986 16.3824 17.6878 15.6562 17.4761 14.9844C17.2643 14.3127 16.8621 13.7292 16.3261 13.3159C15.7901 12.9027 15.1471 12.6804 14.4876 12.6804C13.828 12.6804 13.185 12.9027 12.649 13.3159C12.113 13.7292 11.7108 14.3127 11.499 14.9844C11.2873 15.6562 11.2765 16.3824 11.4684 17.061C11.6602 17.7397 12.0449 18.3366 12.5685 18.768C11.7824 19.0827 11.0749 19.5893 10.5015 20.2478C9.92823 19.5893 9.22072 19.0827 8.43462 18.768C8.95818 18.3366 9.3429 17.7397 9.53472 17.061C9.72653 16.3824 9.7158 15.6562 9.50404 14.9844C9.29227 14.3127 8.89011 13.7292 8.35407 13.3159C7.81804 12.9027 7.17507 12.6804 6.51552 12.6804C5.85597 12.6804 5.213 12.9027 4.67697 13.3159C4.14093 13.7292 3.73877 14.3127 3.527 14.9844C3.31524 15.6562 3.30451 16.3824 3.49633 17.061C3.68814 17.7397 4.07286 18.3366 4.59642 18.768C3.6139 19.1623 2.75789 19.8528 2.1309 20.7568C2.09164 20.8131 2.06308 20.8772 2.04684 20.9453C2.0306 21.0135 2.027 21.0844 2.03626 21.1541C2.04551 21.2237 2.06743 21.2908 2.10077 21.3513C2.13411 21.4119 2.17821 21.4648 2.23055 21.507C2.2829 21.5492 2.34246 21.5799 2.40585 21.5974C2.46923 21.6148 2.53519 21.6187 2.59997 21.6088C2.66474 21.5988 2.72706 21.5752 2.78336 21.5394C2.83966 21.5035 2.88885 21.4561 2.9281 21.3998C3.3458 20.8009 3.88743 20.3147 4.51009 19.9799C5.13276 19.6451 5.81936 19.4708 6.51552 19.4708C7.21168 19.4708 7.89828 19.6451 8.52095 19.9799C9.14361 20.3147 9.68524 20.8009 10.1029 21.3998C10.1823 21.5134 10.3004 21.5883 10.4313 21.6083C10.5621 21.6282 10.6949 21.5914 10.8005 21.5061C10.8382 21.4762 10.8715 21.4404 10.8993 21.3998C11.317 20.8009 11.8586 20.3147 12.4813 19.9799C13.104 19.6451 13.7906 19.4708 14.4867 19.4708C15.1829 19.4708 15.8695 19.6451 16.4922 19.9799C17.1148 20.3147 17.6564 20.8009 18.0741 21.3998C18.1535 21.5135 18.2717 21.5886 18.4026 21.6086C18.5335 21.6286 18.6664 21.5919 18.7721 21.5065C18.8778 21.4211 18.9477 21.2941 18.9663 21.1533C18.9849 21.0126 18.9507 20.8696 18.8713 20.7559C18.2443 19.8525 17.3887 19.1624 16.4067 18.768ZM6.51552 13.7552C6.94255 13.7552 7.35999 13.8914 7.71505 14.1465C8.07011 14.4017 8.34685 14.7643 8.51026 15.1886C8.67368 15.6129 8.71644 16.0797 8.63313 16.5302C8.54982 16.9806 8.34418 17.3943 8.04223 17.719C7.74028 18.0438 7.35556 18.2649 6.93674 18.3545C6.51792 18.4441 6.08379 18.3981 5.68927 18.2224C5.29475 18.0466 4.95754 17.749 4.7203 17.3672C4.48306 16.9853 4.35643 16.5364 4.35643 16.0772C4.35643 15.4613 4.5839 14.8707 4.98881 14.4353C5.39372 13.9998 5.94289 13.7552 6.51552 13.7552ZM14.4876 13.7552C14.9146 13.7552 15.332 13.8914 15.6871 14.1465C16.0421 14.4017 16.3189 14.7643 16.4823 15.1886C16.6457 15.6129 16.6885 16.0797 16.6052 16.5302C16.5219 16.9806 16.3162 17.3943 16.0143 17.719C15.7123 18.0438 15.3276 18.2649 14.9088 18.3545C14.49 18.4441 14.0558 18.3981 13.6613 18.2224C13.2668 18.0466 12.9296 17.749 12.6923 17.3672C12.4551 16.9853 12.3285 16.5364 12.3285 16.0772C12.3285 15.4613 12.5559 14.8707 12.9608 14.4353C13.3658 13.9998 13.9149 13.7552 14.4876 13.7552Z" fill="#6C87AE"/>
</svg>
