<svg width="26" height="26" viewBox="0 0 26 26" fill="none" xmlns="http://www.w3.org/2000/svg">
<path d="M15.7077 10.292L10.291 15.7087M10.291 10.292L15.7077 15.7087M23.8327 13.0003C23.8327 18.1072 23.8327 20.6606 22.2456 22.2466C20.6607 23.8337 18.1062 23.8337 12.9993 23.8337C7.89251 23.8337 5.3391 23.8337 3.75202 22.2466C2.16602 20.6617 2.16602 18.1072 2.16602 13.0003C2.16602 7.89349 2.16602 5.34008 3.75202 3.75299C5.34018 2.16699 7.89251 2.16699 12.9993 2.16699C18.1062 2.16699 20.6596 2.16699 22.2456 3.75299C23.3008 4.80816 23.6539 6.29124 23.7731 8.66699" stroke="#E40D0D" stroke-width="1.5" stroke-linecap="round"/>
</svg>
