<svg width="20" height="25" viewBox="0 0 20 25" fill="none" xmlns="http://www.w3.org/2000/svg">
<path d="M2.05874 12.7677H9.11024C9.21414 12.7677 9.31378 12.7142 9.38725 12.6189C9.46072 12.5236 9.50199 12.3943 9.50199 12.2595C9.50199 12.1248 9.46072 11.9955 9.38725 11.9002C9.31378 11.8049 9.21414 11.7513 9.11024 11.7513H2.05874C1.95484 11.7513 1.8552 11.8049 1.78173 11.9002C1.70827 11.9955 1.66699 12.1248 1.66699 12.2595C1.66699 12.3943 1.70827 12.5236 1.78173 12.6189C1.8552 12.7142 1.95484 12.7677 2.05874 12.7677ZM2.05874 8.70222H9.11024C9.21414 8.70222 9.31378 8.64868 9.38725 8.55337C9.46072 8.45807 9.50199 8.32881 9.50199 8.19403C9.50199 8.05925 9.46072 7.92999 9.38725 7.83469C9.31378 7.73938 9.21414 7.68584 9.11024 7.68584H2.05874C1.95484 7.68584 1.8552 7.73938 1.78173 7.83469C1.70827 7.92999 1.66699 8.05925 1.66699 8.19403C1.66699 8.32881 1.70827 8.45807 1.78173 8.55337C1.8552 8.64868 1.95484 8.70222 2.05874 8.70222ZM10.6772 19.8823H2.05874C1.95484 19.8823 1.8552 19.9359 1.78173 20.0312C1.70827 20.1265 1.66699 20.2558 1.66699 20.3905C1.66699 20.5253 1.70827 20.6546 1.78173 20.7499C1.8552 20.8452 1.95484 20.8987 2.05874 20.8987H10.6772C10.7811 20.8987 10.8808 20.8452 10.9543 20.7499C11.0277 20.6546 11.069 20.5253 11.069 20.3905C11.069 20.2558 11.0277 20.1265 10.9543 20.0312C10.8808 19.9359 10.7811 19.8823 10.6772 19.8823ZM16.9452 15.8168H2.05874C1.95484 15.8168 1.8552 15.8704 1.78173 15.9657C1.70827 16.061 1.66699 16.1903 1.66699 16.325C1.66699 16.4598 1.70827 16.5891 1.78173 16.6844C1.8552 16.7797 1.95484 16.8332 2.05874 16.8332H16.9452C17.0491 16.8332 17.1488 16.7797 17.2223 16.6844C17.2957 16.5891 17.337 16.4598 17.337 16.325C17.337 16.1903 17.2957 16.061 17.2223 15.9657C17.1488 15.8704 17.0491 15.8168 16.9452 15.8168ZM16.9452 4.63672H11.4607C11.3568 4.63672 11.2572 4.69026 11.1837 4.78556C11.1103 4.88087 11.069 5.01013 11.069 5.14491V12.2595C11.069 12.3943 11.1103 12.5236 11.1837 12.6189C11.2572 12.7142 11.3568 12.7677 11.4607 12.7677H16.9452C17.0491 12.7677 17.1488 12.7142 17.2223 12.6189C17.2957 12.5236 17.337 12.3943 17.337 12.2595V5.14491C17.337 5.01013 17.2957 4.88087 17.2223 4.78556C17.1488 4.69026 17.0491 4.63672 16.9452 4.63672ZM16.5535 11.7513H11.8525V5.65309H16.5535V11.7513Z" fill="#6C87AE"/>
</svg>
