<?xml version="1.0" encoding="UTF-8"?>
<svg version="1.1" xmlns="http://www.w3.org/2000/svg" width="512" height="512">
<path d="M0 0 C7.56205801 5.04991671 11.93052633 12.01444981 15.375 20.3125 C17.40963707 32.31685872 16.22973911 42.61809478 9.375 52.75 C3.84571278 59.89367765 -2.46927584 64.03571407 -11.0859375 66.63671875 C-14 67 -14 67 -17.6640625 66.33203125 C-22.08079331 65.54253314 -25.86759608 64.91220011 -30 67 C-35.78580462 73.12403117 -39.64281546 80.86138265 -43.51757812 88.27832031 C-44.72266391 90.49081971 -45.96304869 92.40510995 -47.484375 94.3984375 C-49.23810638 96.90210848 -49.23810638 96.90210848 -48.984375 99.8046875 C-47.67915505 104.04147288 -45.99272403 108.05228651 -44.25 112.125 C-41.3659805 119.10579954 -38.94643067 126.04224508 -37.125 133.375 C-36.93454102 134.13312988 -36.74408203 134.89125977 -36.54785156 135.67236328 C-27.36735338 174.57742205 -33.90822388 214.72103657 -52 250 C-46.11766423 255.39745777 -40.12256529 260.59400215 -33.91796875 265.6171875 C-30.74582593 268.20755848 -27.61956706 270.84682867 -24.5 273.5 C-19.64702904 277.62427739 -14.7418645 281.67666014 -9.80078125 285.6953125 C-6.17927994 288.67534844 -2.61894968 291.72462487 0.9465332 294.77124023 C4.36045159 297.6684629 7.84122195 300.45216842 11.39135742 303.18041992 C27.06836845 315.24342923 38.12883015 327.76508866 41 348 C42.33476839 361.55303291 37.79510021 375.04907983 29.87890625 385.91015625 C21.62462033 395.76379478 9.93737948 403.32172533 -3 405 C-20.01587571 406.44614343 -33.11691819 402.77362986 -47.0625 392.8125 C-50.63392239 389.66885244 -53.48366131 385.86471321 -56.4453125 382.16015625 C-59.21583697 378.70300456 -62.10403317 375.35216511 -65 372 C-69.32001828 366.98744935 -73.55099231 361.91460079 -77.72265625 356.77734375 C-80.28204054 353.65603633 -82.88593791 350.5754997 -85.5 347.5 C-89.6133088 342.65960192 -93.65535845 337.76751065 -97.6640625 332.83984375 C-100.82719112 328.99436798 -104.04907139 325.19992545 -107.28320312 321.4140625 C-109.61748657 318.67307374 -111.88125959 315.91151414 -114 313 C-117.8715861 314.20765071 -121.52272986 315.65058657 -125.19921875 317.36035156 C-163.80104054 335.19314043 -207.75431309 336.77342995 -247.68457031 322.4909668 C-255.42329538 319.59028656 -262.73588493 315.92246516 -270 312 C-271.05960937 311.43410156 -272.11921875 310.86820312 -273.2109375 310.28515625 C-296.54777478 297.2692037 -314.08856371 277.8032766 -329 256 C-333.35803358 261.39776748 -337.66942554 266.81195437 -341.7734375 272.40625 C-343.67366566 274.87533628 -344.70683214 275.91338222 -347.75 276.8125 C-351.77013517 277.04443088 -353.66050249 276.20103245 -357 274 C-359.06327298 271.48818942 -359.00536381 270.1526771 -358.890625 266.88671875 C-357.73522563 261.84451535 -355.37942148 258.6529559 -352.3125 254.5625 C-351.53616211 253.49418945 -351.53616211 253.49418945 -350.74414062 252.40429688 C-348.63370083 249.51065527 -346.53561391 246.63797371 -344.23193359 243.89404297 C-340.85827625 239.94885282 -340.85827625 239.94885282 -339.94921875 235.01171875 C-340.29597656 234.01785156 -340.64273438 233.02398437 -341 232 C-341.29898193 231.08661865 -341.29898193 231.08661865 -341.60400391 230.15478516 C-342.30799087 228.02836232 -343.05967055 225.92208976 -343.8125 223.8125 C-357.31864247 184.70443416 -355.1111119 140.75764539 -337.38671875 103.31640625 C-318.17301179 64.61789341 -285.31956488 34.74533305 -244.43359375 20.3828125 C-213.61193849 10.29676285 -180.24674635 9.31446373 -149 18 C-148.27538574 18.20077148 -147.55077148 18.40154297 -146.80419922 18.60839844 C-111.50411635 28.71192822 -83.24558641 51.37756032 -61 80 C-59.03479084 76.94186187 -57.07907626 73.87776151 -55.125 70.8125 C-54.56941406 69.94818359 -54.01382812 69.08386719 -53.44140625 68.19335938 C-52.90644531 67.35224609 -52.37148438 66.51113281 -51.8203125 65.64453125 C-51.08192139 64.48981323 -51.08192139 64.48981323 -50.32861328 63.31176758 C-48.95029738 60.91351818 -47.85419491 58.63223657 -47 56 C-47.95811647 53.76240419 -47.95811647 53.76240419 -49.6875 51.75 C-56.16769791 42.70441482 -57.05181299 34.06176357 -56 23 C-53.7663805 13.61122651 -48.08533281 5.76453348 -40.171875 0.3203125 C-27.48979786 -7.38929555 -12.83378879 -7.547034 0 0 Z M-34.3125 19.5 C-37.86967798 24.76989331 -38.82242298 28.67046621 -38 35 C-36.14570775 41.21798598 -32.65641948 44.94212126 -27 48 C-22.0014184 49.66619387 -17.6862891 49.62822535 -12.8125 47.8125 C-7.63778332 44.47768259 -4.16397191 40.80855617 -2 35 C-1.28591502 28.67524729 -2.38288149 24.26764832 -6 19 C-11.17925398 14.07970872 -15.42589605 12.52809417 -22.46484375 12.68359375 C-27.58827478 13.32303583 -30.81192555 15.71559519 -34.3125 19.5 Z M-295.27294922 74.17480469 C-323.38648709 103.88597364 -335.05912656 141.406508 -334.140625 181.78613281 C-333.62599755 193.54751436 -331.20729577 205.97926978 -327 217 C-326.34 217.33 -325.68 217.66 -325 218 C-324.20699253 216.87763152 -323.41403488 215.75522785 -322.62109375 214.6328125 C-322.11465332 213.91649658 -321.60821289 213.20018066 -321.08642578 212.4621582 C-319.98438014 210.90013822 -318.88510669 209.3361588 -317.78857422 207.77026367 C-315.43698751 204.41679068 -313.07650653 201.09917513 -310.57421875 197.85546875 C-306.84373792 193.36832878 -306.84373792 193.36832878 -306.375 187.875 C-306.91125 186.92625 -307.4475 185.9775 -308 185 C-311.79474286 176.68075604 -312.46159153 167.98053454 -309.8125 159.125 C-306.59309649 151.0097294 -301.71965127 146.09433064 -294 142 C-285.73703868 138.66062391 -275.7979443 138.55391921 -267.4375 141.6875 C-259.21847406 145.59289809 -254.2751942 151.38680462 -250.87109375 159.78515625 C-249.86971032 163.48084487 -249.76973767 166.6747149 -249.8125 170.5 C-249.81894531 171.7684375 -249.82539063 173.036875 -249.83203125 174.34375 C-250 178 -250 178 -250.9375 181.0703125 C-251.29939034 183.93255558 -251.29939034 183.93255558 -249.83666992 185.55566406 C-248.02969952 187.28041533 -246.15111443 188.830987 -244.1875 190.375 C-243.50421631 190.93791748 -242.82093262 191.50083496 -242.11694336 192.08081055 C-240.09330489 193.74066487 -238.0495395 195.3723045 -236 197 C-234.92340328 197.87237184 -233.84776634 198.74593053 -232.7734375 199.62109375 C-230.53044114 201.43423634 -228.27541953 203.22784973 -226 205 C-223.52614954 204.17839273 -221.07666261 203.32108278 -218.625 202.4375 C-217.92632812 202.20998047 -217.22765625 201.98246094 -216.5078125 201.74804688 C-214.46898064 200.993287 -212.77516762 200.25804514 -211 199 C-209.47350159 195.77153772 -209.47350159 195.77153772 -209 192 C-208.68528358 190.68709378 -208.36884631 189.374599 -208.05078125 188.0625 C-207.23912382 183.9417007 -206.77182678 180.21242867 -207 176 C-208.94135069 173.3640376 -210.794769 172.15775535 -213.6015625 170.50390625 C-219.02923387 167.10056183 -221.32208556 160.95696261 -223 155 C-224.1083133 144.12306483 -222.6954244 135.34605296 -215.875 126.6875 C-210.58042087 121.03842421 -203.28842011 117.52284218 -195.58984375 116.76171875 C-186.52394544 116.50803382 -178.77857578 118.41632254 -171.625 124.1875 C-165.81886903 129.80326602 -163.02314376 134.98670767 -162.6875 143.0625 C-162.2988489 146.2037625 -161.96425995 148.21081093 -159.45361328 150.265625 C-155.48838837 152.68775271 -151.26703571 154.49229347 -146.95117188 156.19189453 C-145 157 -145 157 -141.671875 158.77734375 C-138.9853395 160.37417054 -138.9853395 160.37417054 -136 159 C-135.278125 158.236875 -134.55625 157.47375 -133.8125 156.6875 C-129.76763822 152.82240985 -125.27331748 150.75777249 -120 149 C-118.04981497 149.20821214 -116.09967104 149.4168308 -114.14990234 149.62890625 C-110.33174031 149.93704725 -106.71882285 150.01680832 -103 149 C-99.29356851 145.75687244 -97.42870536 141.80807087 -95.2890625 137.46240234 C-92.63618545 132.39480425 -89.44148912 127.63649262 -86.375 122.8125 C-84.52536624 119.85002004 -82.6809071 116.88464257 -80.84667969 113.91259766 C-79.57740018 111.91068009 -78.26250011 109.93719336 -76.91113281 107.98974609 C-76.25209961 107.02762207 -75.59306641 106.06549805 -74.9140625 105.07421875 C-74.30771973 104.21787842 -73.70137695 103.36153809 -73.07666016 102.47924805 C-71.70525946 100.02146007 -71.70525946 100.02146007 -72.69091797 97.38061523 C-74.42522967 94.22670374 -76.39407115 91.28746336 -78.5 88.375 C-79.16104736 87.45738892 -79.16104736 87.45738892 -79.83544922 86.52124023 C-86.2461892 77.77446029 -93.4895694 69.75160828 -102 63 C-103.0209375 62.18015625 -104.041875 61.3603125 -105.09375 60.515625 C-125.64052689 44.48781584 -150.08172194 34.02981311 -176 31 C-176.66354492 30.92023926 -177.32708984 30.84047852 -178.01074219 30.75830078 C-221.61929416 25.92348558 -264.8208849 43.19554057 -295.27294922 74.17480469 Z M-63 118 C-63.30067383 118.50635986 -63.60134766 119.01271973 -63.91113281 119.53442383 C-70.20635127 130.12043083 -76.58409544 140.63757811 -83.25292969 150.9934082 C-83.73020508 151.73937256 -84.20748047 152.48533691 -84.69921875 153.25390625 C-85.12033936 153.90689697 -85.54145996 154.5598877 -85.9753418 155.23266602 C-87.15668261 157.1329467 -87.15668261 157.1329467 -88 160 C-87.05462416 162.20184565 -87.05462416 162.20184565 -85.625 164.4375 C-81.10884102 171.89294681 -80.67637911 180.29886181 -82.6484375 188.79296875 C-85.8663164 197.66276314 -91.50602835 203.98466795 -100 208 C-107.83451341 211.02846737 -117.08189997 211.64640586 -124.9375 208.3125 C-126.31286634 207.58016208 -127.66904894 206.81025963 -129 206 C-129.63550781 205.63777344 -130.27101563 205.27554688 -130.92578125 204.90234375 C-137.3949342 200.81583385 -141.2286308 194.38070498 -143 187 C-142.97599121 186.24267578 -142.95198242 185.48535156 -142.92724609 184.70507812 C-142.89510867 181.86173277 -143.07911406 179.69924032 -144 177 C-147.09695074 174.28941201 -150.58143729 172.89741661 -154.375 171.375 C-155.34695313 170.94316406 -156.31890625 170.51132813 -157.3203125 170.06640625 C-162.47677548 167.72936669 -162.47677548 167.72936669 -168 167 C-169.68933922 168.6436814 -171.35259924 170.3142876 -173 172 C-176.59535473 174.84283862 -179.85078741 176.36037387 -184.20703125 177.6171875 C-185.10526611 177.87870605 -186.00350098 178.14022461 -186.92895508 178.40966797 C-187.95412231 178.70188232 -187.95412231 178.70188232 -189 179 C-189.66964666 182.45776327 -190.33521087 185.91629981 -191 189.375 C-191.19078125 190.35984375 -191.3815625 191.3446875 -191.578125 192.359375 C-191.84882813 193.77089844 -191.84882813 193.77089844 -192.125 195.2109375 C-192.29257813 196.08024902 -192.46015625 196.94956055 -192.6328125 197.84521484 C-193.0559947 199.96428879 -193.0559947 199.96428879 -193 202 C-191.11117083 203.41400565 -191.11117083 203.41400565 -188.75 204.8125 C-181.39675336 209.59959015 -177.35687585 215.86965442 -175.45703125 224.453125 C-174.21351375 233.75756183 -176.01133872 241.77111879 -181.09765625 249.66796875 C-185.87661008 255.52635773 -192.49814466 259.835919 -200 261 C-210.22421989 261.92813523 -219.18538026 260.36228306 -227.375 253.875 C-232.94728272 248.5773267 -236.74144091 241.10273977 -237.1328125 233.37890625 C-237.13023437 232.44949219 -237.12765625 231.52007812 -237.125 230.5625 C-237.12757813 229.63566406 -237.13015625 228.70882812 -237.1328125 227.75390625 C-237 225 -237 225 -236.2265625 222.41796875 C-235.70546246 219.86281315 -235.70546246 219.86281315 -237.703125 217.859375 C-238.96382812 216.81523437 -238.96382812 216.81523437 -240.25 215.75 C-241.62671875 214.58984375 -241.62671875 214.58984375 -243.03125 213.40625 C-244.0109375 212.6121875 -244.990625 211.818125 -246 211 C-246.9590625 210.2059375 -247.918125 209.411875 -248.90625 208.59375 C-251.59191566 206.38028929 -254.29441652 204.1890245 -257 202 C-259.00678921 200.34120892 -261.00427329 198.67209535 -263 197 C-263.51304687 197.28875 -264.02609375 197.5775 -264.5546875 197.875 C-269.873516 200.45382594 -273.88264029 201.10610429 -279.68554688 200.66772461 C-287.17220087 200.01829273 -287.17220087 200.01829273 -293.73828125 203.05859375 C-295.65183604 205.63682022 -297.30540707 208.24052196 -298.86035156 211.04785156 C-301.05800477 214.8122978 -303.70199458 218.28047731 -306.25 221.8125 C-307.70880634 223.88368282 -309.16110935 225.95886639 -310.60351562 228.04150391 C-311.53665705 229.35018581 -312.50495886 230.63447328 -313.50585938 231.89208984 C-316.23400846 235.31875006 -316.23400846 235.31875006 -317.0859375 239.5 C-315.60506468 242.90920363 -313.71574606 245.9431687 -311.625 249 C-310.9599646 249.98250732 -310.9599646 249.98250732 -310.28149414 250.98486328 C-287.70494689 283.72935313 -254.96254565 304.62470696 -216.0625 312.25 C-179.2907324 318.16473045 -142.56617982 309.61050063 -111.765625 288.81640625 C-79.7950671 265.58391534 -58.56766505 231.98766767 -52 193 C-48.76322764 171.77123783 -51.03596135 150.48686003 -57 130 C-57.37342529 128.7164563 -57.37342529 128.7164563 -57.75439453 127.40698242 C-58.00044434 126.61267822 -58.24649414 125.81837402 -58.5 125 C-58.7165625 124.29875 -58.933125 123.5975 -59.15625 122.875 C-60.11018855 120.75513656 -61.27377973 119.53441802 -63 118 Z M-201 137 C-204.89741887 141.31876146 -206.36701401 143.99534723 -206.28125 149.90234375 C-205.68750723 154.33067527 -203.08934255 157.06627782 -199.8125 159.875 C-195.79534134 161.48186346 -192.26652255 161.66970107 -188 161 C-183.08375972 158.63292134 -180.81397473 156.13959507 -179 151 C-178.45983766 146.6787013 -178.6748744 144.60380468 -180.75 140.75 C-184.07564221 136.68532619 -185.66625232 135.30116883 -190.875 134.125 C-195.01917174 133.75525977 -197.51618847 134.62467396 -201 137 Z M-293 164 C-294.4959122 168.4877366 -294.77306515 172.33790993 -292.75 176.6875 C-290.11740789 180.16628243 -288.19920179 182.60026607 -284 184 C-277.89510298 184.58700933 -274.869097 183.46454979 -270 180 C-266.78748572 176.37296775 -266.47300348 172.90108298 -266.65234375 168.21484375 C-267.21024596 164.66056786 -268.61105111 162.6404172 -271 160 C-279.46969644 154.35353571 -286.67277225 156.76888257 -293 164 Z M-124.875 172.1875 C-126.48186346 176.20465866 -126.66970107 179.73347745 -126 184 C-123.63292134 188.91624028 -121.13959507 191.18602527 -116 193 C-111.77424726 193.52821909 -109.62014635 193.31615304 -105.8125 191.375 C-101.59561887 187.81407816 -99.24614433 185.00431814 -98.5625 179.4375 C-99.26646857 173.90631839 -101.86374415 170.61922387 -106 167 C-113.89753547 164.36748818 -119.44378956 165.85108782 -124.875 172.1875 Z M-218 223 C-220.28417236 226.61660624 -220.28324497 229.78574603 -219.60546875 234.00390625 C-218.29896149 238.31116566 -215.52476368 241.02584543 -211.75 243.4375 C-206.4146547 244.52882063 -201.71614082 244.0588954 -197.0625 241.1875 C-193.22853259 237.12117093 -192.54886457 233.7110229 -192.68359375 228.25 C-193.32301204 223.70302551 -195.81164901 221.01858656 -199.1875 218.125 C-206.99383305 215.00246678 -212.64524199 216.64406911 -218 223 Z M-64 266 C-65.66538517 267.8417541 -65.66538517 267.8417541 -67.4375 270.25 C-75.21616512 280.16919706 -83.495372 288.76163575 -93.25 296.72265625 C-95.29207885 298.4137528 -97.18421638 300.07703471 -99 302 C-94.22443253 307.88397078 -89.40719587 313.7256622 -84.5 319.5 C-80.37896395 324.34957763 -76.33008631 329.25160825 -72.3125 334.1875 C-69.73853608 337.31799666 -67.12430914 340.41172461 -64.5 343.5 C-61.12721426 347.46907935 -57.78823483 351.46016863 -54.5 355.5 C-51.11497047 359.65214054 -47.69907433 363.77603279 -44.25 367.875 C-43.80205078 368.41060547 -43.35410156 368.94621094 -42.89257812 369.49804688 C-34.9265578 378.93180348 -27.41333598 385.7410385 -14.81640625 387.42578125 C-4.81944613 387.84582159 3.66783427 385.03127202 11.4375 378.6875 C18.88800554 371.48431415 22.71156041 362.79940648 23.09765625 352.359375 C22.16662947 337.91710589 14.01036849 329.40988396 3.66015625 320.27734375 C0.12694071 317.2525792 -3.46722821 314.30932441 -7.08203125 311.3828125 C-10.25417407 308.79244152 -13.38043294 306.15317133 -16.5 303.5 C-20.46891888 300.12703063 -24.46017431 296.78823022 -28.5 293.5 C-32.53983519 290.21176205 -36.53081733 286.87266822 -40.5 283.5 C-46.27514993 278.59519561 -52.08685299 273.73841497 -58 269 C-58.72058594 268.4225 -59.44117188 267.845 -60.18359375 267.25 C-61.90710177 265.81103177 -61.90710177 265.81103177 -64 266 Z " fill="#FDFDFD" transform="translate(415,56)"/>
</svg>
