<?xml version="1.0" encoding="UTF-8"?>
<svg version="1.1" xmlns="http://www.w3.org/2000/svg" width="128" height="128">
<path d="M0 0 C2.95826372 0.69949093 4.81422425 1.89822765 6.55078125 4.4296875 C8.29953672 8.93355772 8.29378995 13.78051164 8.37890625 18.5625 C10.97049496 19.90262875 10.97049496 19.90262875 14.37890625 20.5625 C16.32609245 19.84853173 18.27210998 19.12639974 20.1796875 18.3125 C27.16236014 15.93119778 34.89048194 17.38474284 41.37890625 20.5625 C48.18102719 24.70946709 51.79724352 31.08353761 53.9765625 38.6328125 C55.06096076 44.79020032 54.19500416 51.34075355 51.1171875 56.80078125 C46.73239657 62.91186782 41.89537987 67.76508239 34.37890625 69.5625 C33.05890625 69.5625 31.73890625 69.5625 30.37890625 69.5625 C32.79401452 75.7727784 35.84769518 80.90489577 39.890625 86.203125 C41.49293673 88.74327274 42.10573407 90.58243989 42.37890625 93.5625 C40.64525794 96.68306696 39.81895252 97.41581791 36.37890625 98.5625 C34.75323546 98.70965199 33.12303768 98.80971867 31.4921875 98.87890625 C30.55439453 98.92080078 29.61660156 98.96269531 28.65039062 99.00585938 C27.67392578 99.04517578 26.69746094 99.08449219 25.69140625 99.125 C24.70333984 99.16818359 23.71527344 99.21136719 22.69726562 99.25585938 C20.25795079 99.36191654 17.81853512 99.46397714 15.37890625 99.5625 C15.11988525 100.11172119 14.86086426 100.66094238 14.59399414 101.22680664 C14.2458667 101.94731201 13.89773926 102.66781738 13.5390625 103.41015625 C13.1975415 104.12437744 12.85602051 104.83859863 12.50415039 105.57446289 C10.3381076 109.40134213 7.45717195 111.2030781 3.37890625 112.5625 C-2.18654866 113.05238853 -7.02790327 113.33064541 -12.12109375 110.875 C-16.35066903 106.96264286 -18.65764572 104.27641454 -19.62109375 98.5625 C-20.26135498 98.57821045 -20.90161621 98.5939209 -21.5612793 98.61010742 C-24.47696006 98.67267115 -27.3924993 98.71155808 -30.30859375 98.75 C-31.31599609 98.77513672 -32.32339844 98.80027344 -33.36132812 98.82617188 C-42.92610106 98.9208726 -42.92610106 98.9208726 -46.62109375 95.5625 C-47.4638663 92.45072442 -47.58195944 91.53635246 -46.62109375 88.5625 C-44.75867543 85.62803502 -42.73628746 82.92523335 -40.56640625 80.2109375 C-37.32681314 75.80040713 -36.37838774 72.14033687 -36.27734375 66.703125 C-36.23287109 65.02863281 -36.23287109 65.02863281 -36.1875 63.3203125 C-36.16558594 62.16273437 -36.14367188 61.00515625 -36.12109375 59.8125 C-35.86969207 46.7100359 -35.19211392 36.79062218 -26.12109375 26.8125 C-22.07821068 23.17390523 -18.72531837 20.49359831 -13.62109375 18.5625 C-13.60691406 17.76585938 -13.59273437 16.96921875 -13.578125 16.1484375 C-13.13895752 6.3917979 -13.13895752 6.3917979 -10.68359375 2.8125 C-6.93204536 0.05626036 -4.5837019 -0.32789522 0 0 Z M-5.62109375 5.5625 C-7.75696053 8.76630017 -7.8524155 9.58189967 -7.74609375 13.25 C-7.70484375 14.673125 -7.66359375 16.09625 -7.62109375 17.5625 C-4.32109375 17.5625 -1.02109375 17.5625 2.37890625 17.5625 C2.42015625 15.95375 2.46140625 14.345 2.50390625 12.6875 C2.53871094 11.33011719 2.53871094 11.33011719 2.57421875 9.9453125 C2.62215461 7.37443006 2.62215461 7.37443006 0.37890625 5.5625 C-2.62109375 5.14583333 -2.62109375 5.14583333 -5.62109375 5.5625 Z M-24.62109375 32.5625 C-28.65282431 39.16367543 -30.71472816 44.81939244 -30.796875 52.54296875 C-30.82072266 53.70763672 -30.84457031 54.87230469 -30.86914062 56.07226562 C-30.91176406 58.50438457 -30.94320029 60.93672791 -30.96289062 63.36914062 C-31.18365554 72.69774183 -32.80086723 79.72431794 -38.93359375 86.9375 C-40.54698889 88.7416376 -40.54698889 88.7416376 -41.62109375 90.5625 C-41.29109375 91.5525 -40.96109375 92.5425 -40.62109375 93.5625 C-30.74648587 93.60877591 -20.87190365 93.64434499 -10.99720955 93.66612434 C-6.41232609 93.67657566 -1.82751664 93.69075935 2.75732422 93.71337891 C7.17932999 93.73505936 11.60126444 93.74705846 16.02331924 93.75225449 C17.71307626 93.75595889 19.40282923 93.76319237 21.092556 93.77396011 C23.45355514 93.78841143 25.81425695 93.79048064 28.17529297 93.78955078 C29.23049133 93.80033661 29.23049133 93.80033661 30.30700684 93.81134033 C34.28769601 93.90045685 34.28769601 93.90045685 37.37890625 91.5625 C36.69054687 90.74458984 36.69054687 90.74458984 35.98828125 89.91015625 C31.53476996 84.4368283 27.09204467 78.57252308 26.0703125 71.39453125 C25.72806641 70.48767578 25.72806641 70.48767578 25.37890625 69.5625 C23.26328277 68.56101229 23.26328277 68.56101229 20.69140625 68.0625 C12.43518526 65.81934465 8.86162824 62.37174181 4.578125 55.09765625 C1.52958831 48.65302984 1.54710996 41.6580815 3.62890625 34.9375 C5.04692575 31.02268062 6.90014116 27.89601167 9.37890625 24.5625 C-2.54919934 19.26111974 -16.25290622 22.73716539 -24.62109375 32.5625 Z M11.44140625 29.3125 C7.72632213 35.16657195 5.51300863 40.51161938 6.37890625 47.5625 C8.32911491 54.17927938 11.52255865 58.84901555 17.37890625 62.5625 C23.21273682 65.33642924 29.41990327 65.63360012 35.66015625 63.9453125 C41.81930799 61.2684504 45.78300629 56.5451884 48.26171875 50.359375 C49.78204034 44.85542595 49.67146896 39.82793875 47.37890625 34.5625 C43.77022416 29.26051323 39.59978741 25.11015642 33.50390625 22.875 C25.60380922 21.71322102 17.0425516 23.11908853 11.44140625 29.3125 Z M-13.62109375 98.5625 C-12.61522546 102.58597314 -11.73390758 104.06412007 -8.49609375 106.5703125 C-4.93549146 108.45446454 -1.49733717 108.43465477 2.37890625 107.5625 C5.02745413 106.16097674 6.30223251 104.84684111 8.37890625 102.5625 C8.70890625 101.2425 9.03890625 99.9225 9.37890625 98.5625 C1.78890625 98.5625 -5.80109375 98.5625 -13.62109375 98.5625 Z " fill="#FFFFFF" transform="translate(60.62109375,7.4375)"/>
<path d="M0 0 C2.475 0.495 2.475 0.495 5 1 C4.55237423 5.32365805 1.73988644 7.59984015 -1.25 10.4375 C-1.72824219 10.90220703 -2.20648438 11.36691406 -2.69921875 11.84570312 C-4.12880275 13.2346079 -5.56438098 14.61733414 -7 16 C-8.67426034 17.65929178 -10.33774681 19.32864688 -12 21 C-16.52841327 18.67110175 -19.07612592 16.09342372 -22 12 C-22 10.68 -22 9.36 -22 8 C-17.56365871 8.50701043 -15.37262914 10.16585787 -12 13 C-10.18443212 11.21135158 -8.37248378 9.41928379 -6.5625 7.625 C-6.04623047 7.11710937 -5.52996094 6.60921875 -4.99804688 6.0859375 C-2.142867 3.31431064 -2.142867 3.31431064 0 0 Z " fill="#FFFFFF" transform="translate(97,41)"/>
</svg>

