<svg width="45" height="45" viewBox="0 0 45 45" fill="none" xmlns="http://www.w3.org/2000/svg">
<rect width="45" height="45" rx="18" fill="#3D8CEF" fill-opacity="0.1"/>
<path d="M32.815 21.4822C32.6933 21.3135 32.5333 21.1762 32.3482 21.0815C32.163 20.9868 31.958 20.9374 31.75 20.9375H30.0625V19.25C30.0625 18.9019 29.9242 18.5681 29.6781 18.3219C29.4319 18.0758 29.0981 17.9375 28.75 17.9375H22.2503C22.2097 17.9375 22.1703 17.9243 22.1378 17.9L19.5381 15.95C19.3107 15.78 19.0345 15.6879 18.7506 15.6875H13.75C13.4019 15.6875 13.0681 15.8258 12.8219 16.0719C12.5758 16.3181 12.4375 16.6519 12.4375 17V30.5C12.4375 30.6492 12.4968 30.7923 12.6023 30.8977C12.7077 31.0032 12.8508 31.0625 13 31.0625H29.7906C29.9086 31.0625 30.0236 31.0253 30.1193 30.9564C30.2151 30.8874 30.2867 30.79 30.3241 30.6781L32.995 22.6653C33.0609 22.468 33.079 22.2578 33.0477 22.052C33.0164 21.8463 32.9366 21.651 32.815 21.4822ZM13.75 16.8125H18.7506C18.7912 16.8125 18.8307 16.8257 18.8631 16.85L21.4628 18.8C21.6902 18.97 21.9664 19.0621 22.2503 19.0625H28.75C28.7997 19.0625 28.8474 19.0823 28.8826 19.1174C28.9177 19.1526 28.9375 19.2003 28.9375 19.25V20.9375H16.5409C16.2655 20.9375 15.9971 21.0242 15.7737 21.1852C15.5502 21.3462 15.3831 21.5734 15.2959 21.8347L13.5625 27.0313V17C13.5625 16.9503 13.5823 16.9026 13.6174 16.8674C13.6526 16.8323 13.7003 16.8125 13.75 16.8125ZM31.9281 22.3091L29.3856 29.9375H13.7809L16.3628 22.1909C16.3752 22.1535 16.3991 22.121 16.4311 22.0979C16.4631 22.0749 16.5015 22.0625 16.5409 22.0625H31.75C31.7797 22.0625 31.809 22.0695 31.8354 22.083C31.8619 22.0965 31.8848 22.1161 31.9022 22.1402C31.9195 22.1643 31.931 22.1921 31.9355 22.2215C31.94 22.2509 31.9375 22.2809 31.9281 22.3091Z" fill="#3D8CEF"/>
</svg>