<svg width="38" height="38" viewBox="0 0 38 38" fill="none" xmlns="http://www.w3.org/2000/svg">
<path d="M3.16699 9.5V28.5M34.8337 28.5V24.7681C34.8337 21.6093 34.8337 20.0292 34.3903 18.7609C33.9974 17.6377 33.3563 16.6175 32.5148 15.7763C31.6732 14.935 30.6528 14.2942 29.5295 13.9017C28.2628 13.4583 26.6827 13.4583 23.5239 13.4583C22.2604 13.4583 21.6287 13.4583 21.1204 13.6357C20.6715 13.7928 20.2637 14.049 19.9274 14.3854C19.591 14.7217 19.3348 15.1295 19.1777 15.5784C19.0003 16.0867 19.0003 16.72 19.0003 17.9819V25.3333M3.16699 25.3333H34.8337" stroke="black" stroke-width="0.85" stroke-linecap="round" stroke-linejoin="round"/>
<path d="M15.0417 17.4163C15.0417 18.4662 14.6246 19.473 13.8823 20.2153C13.14 20.9576 12.1331 21.3747 11.0833 21.3747C10.0335 21.3747 9.0267 20.9576 8.28437 20.2153C7.54204 19.473 7.125 18.4662 7.125 17.4163C7.125 16.3665 7.54204 15.3597 8.28437 14.6174C9.0267 13.875 10.0335 13.458 11.0833 13.458C12.1331 13.458 13.14 13.875 13.8823 14.6174C14.6246 15.3597 15.0417 16.3665 15.0417 17.4163Z" stroke="black" stroke-width="0.85"/>
</svg>

